<svg width="18" height="12" viewBox="0 0 18 12" fill="none" xmlns="http://www.w3.org/2000/svg">
<path fill-rule="evenodd" clip-rule="evenodd" d="M15.15 6.75L11.475 10.425C11.1851 10.7149 11.1851 11.1851 11.475 11.475C11.7649 11.7649 12.2351 11.7649 12.525 11.475L17.2929 6.70711C17.6834 6.31658 17.6834 5.68342 17.2929 5.29289L12.525 0.525002C12.2351 0.235053 11.765 0.235052 11.475 0.525001C11.1851 0.81495 11.1851 1.28505 11.475 1.575L15.15 5.25L0.750001 5.25C0.335786 5.25 -1.3466e-06 5.58579 -1.38281e-06 6C-1.41902e-06 6.41421 0.335785 6.75 0.749999 6.75L15.15 6.75Z" fill="white"/>
</svg>
