<svg width="44" height="44" viewBox="0 0 44 44" fill="none" xmlns="http://www.w3.org/2000/svg">
<path d="M11.3736 18.4491C11.1676 17.1522 12.0549 15.934 13.3559 15.7282L32.1996 12.7484C33.5005 12.5426 34.722 13.4271 34.9282 14.7242L37.6684 31.9674C37.8744 33.2643 36.9871 34.4825 35.6861 34.6883L16.8424 37.6682C15.5414 37.874 14.32 36.9894 14.1137 35.6923L11.3736 18.4491Z" stroke="#828282" stroke-width="2" stroke-linejoin="round"/>
<path d="M13.9671 34.7716L8.5276 34.1512C7.22181 34.0027 6.28383 32.823 6.43233 31.5163L8.40752 14.1436C8.55602 12.8369 9.73508 11.898 11.0406 12.0467L25.2084 13.6809L25.2481 13.6846" stroke="#828282" stroke-width="2" stroke-linejoin="round"/>
<path d="M27.5593 9.87085L22.9166 17.5312" stroke="#828282" stroke-width="2" stroke-linecap="round" stroke-linejoin="round"/>
<path d="M28.4167 10.0833C29.4292 10.0833 30.25 9.26248 30.25 8.24996C30.25 7.23744 29.4292 6.41663 28.4167 6.41663C27.4042 6.41663 26.5834 7.23744 26.5834 8.24996C26.5834 9.26248 27.4042 10.0833 28.4167 10.0833Z" stroke="#828282" stroke-width="2" stroke-linecap="round" stroke-linejoin="round"/>
<path d="M17.3021 23.0313L29.9063 20.9688" stroke="#828282" stroke-width="2" stroke-linecap="round" stroke-linejoin="round"/>
<path d="M17.7604 26.6979L30.3645 24.6354" stroke="#828282" stroke-width="2" stroke-linecap="round" stroke-linejoin="round"/>
<path d="M18.4479 30.3646L31.052 28.3021" stroke="#828282" stroke-width="2" stroke-linecap="round" stroke-linejoin="round"/>
</svg>
