<svg width="44" height="44" viewBox="0 0 44 44" fill="none" xmlns="http://www.w3.org/2000/svg">
<path d="M13.9792 15.5833H24.7501" stroke="#828282" stroke-width="2" stroke-linecap="round" stroke-linejoin="round"/>
<path d="M13.9792 21.0833H24.7501" stroke="#828282" stroke-width="2" stroke-linecap="round" stroke-linejoin="round"/>
<path d="M13.9792 26.5833H24.7501" stroke="#828282" stroke-width="2" stroke-linecap="round" stroke-linejoin="round"/>
<path d="M13.9792 32.0833H24.7501" stroke="#828282" stroke-width="2" stroke-linecap="round" stroke-linejoin="round"/>
<path d="M30.25 36.6667V11C30.25 9.48122 29.0188 8.25 27.5 8.25L11 8.25C9.48122 8.25 8.25 9.48122 8.25 11V36.6667C8.25 38.1854 9.48122 39.4167 11 39.4167H27.5C29.0188 39.4167 30.25 38.1854 30.25 36.6667Z" stroke="#828282" stroke-width="2" stroke-linecap="round" stroke-linejoin="round"/>
<path d="M13.75 8.02075V7.33325C13.75 6.60391 14.0397 5.90443 14.5555 5.38871C15.0712 4.87298 15.7707 4.58325 16.5 4.58325H33C33.7293 4.58325 34.4288 4.87298 34.9445 5.38871C35.4603 5.90443 35.75 6.60391 35.75 7.33325V32.9999C35.75 33.7293 35.4603 34.4287 34.9445 34.9445C34.4288 35.4602 33.7293 35.7499 33 35.7499H30.5983" stroke="#828282" stroke-width="2" stroke-linejoin="round"/>
</svg>
