<svg width="44" height="44" viewBox="0 0 44 44" fill="none" xmlns="http://www.w3.org/2000/svg">
<path d="M34.8333 6.41663H9.16663C7.64784 6.41663 6.41663 7.64784 6.41663 9.16663V36.6666C6.41663 38.1854 7.64784 39.4166 9.16663 39.4166H34.8333C36.3521 39.4166 37.5833 38.1854 37.5833 36.6666V9.16663C37.5833 7.64784 36.3521 6.41663 34.8333 6.41663Z" stroke="#828282" stroke-width="2" stroke-linecap="round" stroke-linejoin="round"/>
<path d="M19.7084 22.9166C21.9865 22.9166 23.8334 21.0698 23.8334 18.7916C23.8334 16.5135 21.9865 14.6666 19.7084 14.6666C17.4302 14.6666 15.5834 16.5135 15.5834 18.7916C15.5834 21.0698 17.4302 22.9166 19.7084 22.9166Z" stroke="#828282" stroke-width="2" stroke-linecap="round" stroke-linejoin="round"/>
<path d="M26.5834 31.1666C25.8432 26.1502 22.7769 22.9166 19.7496 22.9166C16.7223 22.9166 13.5759 26.1502 12.8334 31.1666" stroke="#828282" stroke-width="2" stroke-linecap="round" stroke-linejoin="round"/>
<path d="M32.0834 39.4167V6.64587" stroke="#828282" stroke-width="2" stroke-linecap="round" stroke-linejoin="round"/>
<path d="M32.0834 13.75H37.5834" stroke="#828282" stroke-width="2" stroke-linecap="round" stroke-linejoin="round"/>
<path d="M32.0834 22.9166H37.5834" stroke="#828282" stroke-width="2" stroke-linecap="round" stroke-linejoin="round"/>
<path d="M32.0834 32.0834H37.5834" stroke="#828282" stroke-width="2" stroke-linecap="round" stroke-linejoin="round"/>
</svg>
