<svg width="44" height="44" viewBox="0 0 44 44" fill="none" xmlns="http://www.w3.org/2000/svg">
<path d="M31.1162 25.2979L35.012 27.5414C35.527 27.839 35.9027 28.329 36.0565 28.9035C36.2103 29.4781 36.1297 30.0902 35.8324 30.6054V30.6054C35.5348 31.1203 35.0448 31.496 34.4703 31.6499C33.8957 31.8037 33.2836 31.7231 32.7685 31.4258L23.0541 25.8181" stroke="#828282" stroke-width="2" stroke-linecap="round" stroke-linejoin="round"/>
<path d="M30.816 30.3072C31.329 30.6067 31.7023 31.0975 31.8539 31.6719C32.0056 32.2463 31.9232 32.8574 31.6249 33.3711C31.3273 33.8861 30.8374 34.2618 30.2628 34.4156C29.6882 34.5695 29.0761 34.4889 28.561 34.1915L20.8014 29.7045" stroke="#828282" stroke-width="2" stroke-linecap="round" stroke-linejoin="round"/>
<path d="M26.6291 33.0709C27.144 33.3686 27.5197 33.8585 27.6736 34.4331C27.8274 35.0076 27.7468 35.6197 27.4495 36.1349C27.1518 36.6498 26.6619 37.0255 26.0873 37.1794C25.5128 37.3332 24.9007 37.2526 24.3855 36.9553L24.1266 36.8063L9.1024 28.1324L8.84344 27.9834C7.82251 27.3943 6.92764 26.6098 6.20993 25.6748C5.49223 24.7397 4.96576 23.6725 4.66059 22.534C4.35542 21.3954 4.27754 20.2079 4.43138 19.0393C4.58522 17.8707 4.96777 16.7438 5.5572 15.723L7.80074 11.8272C8.99245 9.76786 10.9532 8.26608 13.2518 7.65199C15.5505 7.03789 17.9989 7.36176 20.0589 8.55238L20.8403 9.01071" stroke="#828282" stroke-width="2" stroke-linecap="round" stroke-linejoin="round"/>
<path d="M37.2443 23.6569L37.5239 23.171C38.7137 21.11 39.0362 18.6607 38.4203 16.3619C37.8045 14.0631 36.3008 12.1031 34.2399 10.9129L30.3441 8.66936C28.2847 7.48531 25.8398 7.16609 23.5455 7.78167C21.2511 8.39726 19.2944 9.89742 18.1043 11.9533L12.0612 22L13.6653 22.6027C14.143 22.782 14.6611 22.8248 15.1617 22.7265C15.6624 22.6281 16.1258 22.3925 16.5001 22.0458L20.3799 17.8406C23.0451 18.975 24.8693 18.2394 26.3703 17.3823L37.2534 23.6614C37.7684 23.9591 38.1441 24.449 38.298 25.0236C38.4518 25.5981 38.3712 26.2103 38.0739 26.7254V26.7254C37.7762 27.2404 37.2863 27.6161 36.7117 27.7699C36.1372 27.9237 35.525 27.8431 35.0099 27.5458L25.2864 21.9335" stroke="#828282" stroke-width="2" stroke-linecap="round" stroke-linejoin="round"/>
</svg>
