<svg width="44" height="44" viewBox="0 0 44 44" fill="none" xmlns="http://www.w3.org/2000/svg">
<path d="M12.084 35.75H16.3327" stroke="#828282" stroke-width="2" stroke-linecap="round" stroke-linejoin="round"/>
<path d="M8.541 11.9167H19.8756C20.1576 11.9197 20.4362 11.9783 20.6956 12.0889C20.955 12.1996 21.19 12.3603 21.3873 12.5618C21.5846 12.7634 21.7402 13.0018 21.8453 13.2635C21.9504 13.5251 22.003 13.805 22 14.087V37.2465C22.003 37.5285 21.9504 37.8084 21.8453 38.07C21.7402 38.3317 21.5846 38.5701 21.3873 38.7717C21.19 38.9732 20.955 39.1339 20.6956 39.2446C20.4362 39.3552 20.1576 39.4138 19.8756 39.4167H8.541C8.25901 39.4138 7.98037 39.3552 7.721 39.2446C7.46162 39.1339 7.22658 38.9732 7.02931 38.7717C6.83204 38.5701 6.6764 38.3317 6.57128 38.07C6.46615 37.8084 6.4136 37.5285 6.41663 37.2465V14.087C6.4136 13.805 6.46615 13.5251 6.57128 13.2635C6.6764 13.0018 6.83204 12.7634 7.02931 12.5618C7.22658 12.3603 7.46162 12.1996 7.721 12.0889C7.98037 11.9783 8.25901 11.9197 8.541 11.9167Z" stroke="#828282" stroke-width="2" stroke-linecap="round" stroke-linejoin="round"/>
<path d="M22 22H26.5833V30.25H33.2131C33.9579 30.25 34.8815 29.4754 34.8815 28.7306V15.5833H37.5833L34.8815 12.8608V5.93314H30.25V10.0833L26.2602 5.14939C25.5383 4.37939 23.9342 4.40918 23.2398 5.14939L16.5 11.9167" stroke="#828282" stroke-width="2" stroke-linecap="round" stroke-linejoin="round"/>
<path d="M26.5833 30.25H22" stroke="#828282" stroke-width="2" stroke-linecap="round" stroke-linejoin="round"/>
</svg>
