<svg width="136" height="196" viewBox="0 0 136 196" fill="none" xmlns="http://www.w3.org/2000/svg">
<rect width="136" height="196" rx="8" fill="#333333"/>
<path d="M42.0613 110.032V120H40.1293V114.554L37.8333 120H36.4193L34.1093 114.624V120H32.1913V110.032H33.9273L37.1473 117.382L40.3393 110.032H42.0613ZM48.0195 120.112C47.2635 120.112 46.6009 119.963 46.0315 119.664C45.4715 119.365 45.0375 118.936 44.7295 118.376C44.4309 117.816 44.2815 117.163 44.2815 116.416C44.2815 115.669 44.4309 115.016 44.7295 114.456C45.0375 113.896 45.4715 113.467 46.0315 113.168C46.6009 112.869 47.2635 112.72 48.0195 112.72C48.7662 112.72 49.4195 112.869 49.9795 113.168C50.5395 113.467 50.9689 113.896 51.2675 114.456C51.5755 115.016 51.7295 115.669 51.7295 116.416C51.7295 117.163 51.5755 117.816 51.2675 118.376C50.9689 118.936 50.5395 119.365 49.9795 119.664C49.4195 119.963 48.7662 120.112 48.0195 120.112ZM48.0195 118.502C48.5422 118.502 48.9389 118.329 49.2095 117.984C49.4895 117.639 49.6295 117.116 49.6295 116.416C49.6295 115.725 49.4895 115.207 49.2095 114.862C48.9389 114.507 48.5422 114.33 48.0195 114.33C47.4875 114.33 47.0815 114.507 46.8015 114.862C46.5215 115.207 46.3815 115.725 46.3815 116.416C46.3815 117.807 46.9275 118.502 48.0195 118.502ZM58.1208 112.72C58.7368 112.72 59.2828 112.874 59.7588 113.182C60.2348 113.481 60.6034 113.91 60.8648 114.47C61.1261 115.021 61.2568 115.66 61.2568 116.388C61.2568 117.116 61.1214 117.765 60.8508 118.334C60.5894 118.894 60.2208 119.333 59.7448 119.65C59.2688 119.958 58.7274 120.112 58.1208 120.112C57.6261 120.112 57.1781 120.009 56.7768 119.804C56.3848 119.589 56.0861 119.3 55.8808 118.936V120H53.7808V109.696H55.8948V113.896C56.1001 113.532 56.3988 113.247 56.7908 113.042C57.1921 112.827 57.6354 112.72 58.1208 112.72ZM57.5188 118.502C58.0414 118.502 58.4428 118.32 58.7228 117.956C59.0028 117.592 59.1428 117.069 59.1428 116.388C59.1428 115.735 59.0028 115.231 58.7228 114.876C58.4428 114.521 58.0414 114.344 57.5188 114.344C56.9961 114.344 56.5901 114.526 56.3008 114.89C56.0208 115.245 55.8808 115.753 55.8808 116.416C55.8808 117.088 56.0208 117.606 56.3008 117.97C56.5901 118.325 56.9961 118.502 57.5188 118.502ZM63.3128 112.902H65.4268V120H63.3128V112.902ZM65.4968 109.57V111.558H63.2428V109.57H65.4968ZM67.8546 109.696H69.9686V120H67.8546V109.696ZM76.1204 111.362C75.7937 111.362 75.5324 111.455 75.3364 111.642C75.1404 111.819 75.0424 112.109 75.0424 112.51V112.902H76.5264V114.484H75.0424V120H72.9284V114.484H71.5984V112.902H72.9284V112.454C72.9284 111.558 73.157 110.863 73.6144 110.368C74.0717 109.873 74.7344 109.626 75.6024 109.626C76.0877 109.626 76.489 109.687 76.8064 109.808V111.46C76.5357 111.395 76.307 111.362 76.1204 111.362ZM85.2591 112.902V120H83.2011V118.964C82.9771 119.337 82.6831 119.622 82.3191 119.818C81.9551 120.014 81.5444 120.112 81.0871 120.112C80.2004 120.112 79.5378 119.865 79.0991 119.37C78.6604 118.875 78.4411 118.129 78.4411 117.13V112.902H80.5551V117.172C80.5551 118.031 80.9238 118.46 81.6611 118.46C82.0998 118.46 82.4544 118.311 82.7251 118.012C82.9958 117.713 83.1311 117.321 83.1311 116.836V112.902H85.2591ZM92.0553 112.72C93.7353 112.72 94.5753 113.714 94.5753 115.702V120H92.4613V115.8C92.4613 115.305 92.368 114.946 92.1813 114.722C92.004 114.489 91.7193 114.372 91.3273 114.372C90.8607 114.372 90.4873 114.521 90.2073 114.82C89.9273 115.119 89.7873 115.52 89.7873 116.024V120H87.6733V114.932C87.6733 114.176 87.636 113.499 87.5613 112.902H89.5493L89.6893 114.022C89.9413 113.602 90.268 113.28 90.6693 113.056C91.08 112.832 91.542 112.72 92.0553 112.72ZM101.859 120L99.0733 116.822V120H96.9593V109.696H99.0733V115.954L101.733 112.916H104.267L101.257 116.318L104.449 120H101.859Z" fill="#FF6600"/>
<path d="M100.631 67.438V73.1422C100.631 73.806 101.171 74.3418 101.834 74.3418H108.129C108.795 74.3418 109.332 73.806 109.332 73.1422V66.8666C109.332 66.2028 108.795 65.6669 108.129 65.6669L102.481 65.6646V62.0064H108.189C110.846 62.0064 113 64.1544 113 66.8049V73.2038C113 75.852 110.846 78 108.189 78H101.775C99.1171 78 96.9634 75.852 96.9634 73.2038V67.438H100.631V67.438Z" fill="white"/>
<path d="M100.641 62.0193V65.668H96.9897C97.4462 63.8875 98.8559 62.4768 100.641 62.0193Z" fill="#FF6600"/>
<path d="M91.0465 74.3418H85.327C84.3547 74.3418 84.1241 73.6495 84.1241 72.9857V62.0064H80.4561V73.2014C80.4561 75.8497 82.6098 77.9976 85.2675 77.9976L94.6551 78V77.8672C94.6147 75.9137 93.0125 74.3418 91.0465 74.3418" fill="white"/>
<path d="M64.0276 66.8628C64.0276 66.2013 64.5672 65.6655 65.2305 65.6655H71.5277C72.1933 65.6655 72.7306 66.2013 72.7306 66.8628V68.4749H64.0276V66.8628V66.8628ZM65.2305 74.3403C64.5791 74.3403 64.049 73.8235 64.03 73.1786C64.03 73.1668 64.0276 71.5807 64.0276 71.5475V71.5451V71.5475H76.3986V66.8604C76.3986 64.1885 74.2068 62.0002 71.5253 62.0002H65.2281C62.549 62.0002 60.3572 64.1885 60.3572 66.8604V73.1383C60.3572 75.8126 62.549 77.9985 65.2281 77.9985H71.5253C73.7908 77.9985 75.7068 76.4362 76.2465 74.3403H65.2305V74.3403Z" fill="white"/>
<path d="M57.6005 62.0014H46.5417C44.2762 62.0014 42.3578 63.5662 41.8206 65.6644H47.8302V77.9927H51.4768H51.5838V65.6644H57.6005V62.0014V62.0014Z" fill="white"/>
<path d="M35.3686 67.438V73.1422C35.3686 73.806 34.829 74.3418 34.1658 74.3418H27.8709C27.2053 74.3418 26.668 73.806 26.668 73.1422V66.8666C26.668 66.2028 27.2053 65.6669 27.8709 65.6669L33.5192 65.6646V62.0064H27.8115C25.1538 62.0064 23 64.1544 23 66.8049V73.2038C23 75.852 25.1538 78 27.8115 78H34.2252C36.8829 78 39.0367 75.852 39.0367 73.2038V67.438H35.3686V67.438Z" fill="white"/>
<path d="M35.3589 62.0193V65.668H39.0103C38.5539 63.8875 37.1418 62.4768 35.3589 62.0193Z" fill="#FF6600"/>
<rect x="52" y="14" width="32" height="8" rx="4" fill="#F2F2F2"/>
<rect x="64" y="8" width="8" height="14" rx="4" fill="#F2F2F2"/>
<path d="M64.3823 174.981H72.549" stroke="white" stroke-linecap="round" stroke-linejoin="round"/>
<path d="M57.5767 128.558H79.3545C81.6004 128.558 83.4379 130.401 83.4379 132.654V176.346C83.4379 178.599 81.6004 180.442 79.3545 180.442H57.5767C55.3309 180.442 53.4934 178.599 53.4934 176.346V132.654C53.4934 130.401 55.2969 128.558 57.5767 128.558Z" stroke="white" stroke-linecap="round" stroke-linejoin="round"/>
</svg>
