<svg width="137" height="196" viewBox="0 0 137 196" fill="none" xmlns="http://www.w3.org/2000/svg">
<rect width="137" height="196" rx="8" fill="#E50800"/>
<path d="M43.0613 110.032V120H41.1293V114.554L38.8333 120H37.4193L35.1093 114.624V120H33.1913V110.032H34.9273L38.1473 117.382L41.3393 110.032H43.0613ZM49.0195 120.112C48.2635 120.112 47.6009 119.963 47.0315 119.664C46.4715 119.365 46.0375 118.936 45.7295 118.376C45.4309 117.816 45.2815 117.163 45.2815 116.416C45.2815 115.669 45.4309 115.016 45.7295 114.456C46.0375 113.896 46.4715 113.467 47.0315 113.168C47.6009 112.869 48.2635 112.72 49.0195 112.72C49.7662 112.72 50.4195 112.869 50.9795 113.168C51.5395 113.467 51.9689 113.896 52.2675 114.456C52.5755 115.016 52.7295 115.669 52.7295 116.416C52.7295 117.163 52.5755 117.816 52.2675 118.376C51.9689 118.936 51.5395 119.365 50.9795 119.664C50.4195 119.963 49.7662 120.112 49.0195 120.112ZM49.0195 118.502C49.5422 118.502 49.9389 118.329 50.2095 117.984C50.4895 117.639 50.6295 117.116 50.6295 116.416C50.6295 115.725 50.4895 115.207 50.2095 114.862C49.9389 114.507 49.5422 114.33 49.0195 114.33C48.4875 114.33 48.0815 114.507 47.8015 114.862C47.5215 115.207 47.3815 115.725 47.3815 116.416C47.3815 117.807 47.9275 118.502 49.0195 118.502ZM59.1208 112.72C59.7368 112.72 60.2828 112.874 60.7588 113.182C61.2348 113.481 61.6034 113.91 61.8648 114.47C62.1261 115.021 62.2568 115.66 62.2568 116.388C62.2568 117.116 62.1214 117.765 61.8508 118.334C61.5894 118.894 61.2208 119.333 60.7448 119.65C60.2688 119.958 59.7274 120.112 59.1208 120.112C58.6261 120.112 58.1781 120.009 57.7768 119.804C57.3848 119.589 57.0861 119.3 56.8808 118.936V120H54.7808V109.696H56.8948V113.896C57.1001 113.532 57.3988 113.247 57.7908 113.042C58.1921 112.827 58.6354 112.72 59.1208 112.72ZM58.5188 118.502C59.0414 118.502 59.4428 118.32 59.7228 117.956C60.0028 117.592 60.1428 117.069 60.1428 116.388C60.1428 115.735 60.0028 115.231 59.7228 114.876C59.4428 114.521 59.0414 114.344 58.5188 114.344C57.9961 114.344 57.5901 114.526 57.3008 114.89C57.0208 115.245 56.8808 115.753 56.8808 116.416C56.8808 117.088 57.0208 117.606 57.3008 117.97C57.5901 118.325 57.9961 118.502 58.5188 118.502ZM64.3128 112.902H66.4268V120H64.3128V112.902ZM66.4968 109.57V111.558H64.2428V109.57H66.4968ZM68.8546 109.696H70.9686V120H68.8546V109.696ZM77.1204 111.362C76.7937 111.362 76.5324 111.455 76.3364 111.642C76.1404 111.819 76.0424 112.109 76.0424 112.51V112.902H77.5264V114.484H76.0424V120H73.9284V114.484H72.5984V112.902H73.9284V112.454C73.9284 111.558 74.157 110.863 74.6144 110.368C75.0717 109.873 75.7344 109.626 76.6024 109.626C77.0877 109.626 77.489 109.687 77.8064 109.808V111.46C77.5357 111.395 77.307 111.362 77.1204 111.362ZM86.2591 112.902V120H84.2011V118.964C83.9771 119.337 83.6831 119.622 83.3191 119.818C82.9551 120.014 82.5444 120.112 82.0871 120.112C81.2004 120.112 80.5378 119.865 80.0991 119.37C79.6604 118.875 79.4411 118.129 79.4411 117.13V112.902H81.5551V117.172C81.5551 118.031 81.9238 118.46 82.6611 118.46C83.0998 118.46 83.4544 118.311 83.7251 118.012C83.9958 117.713 84.1311 117.321 84.1311 116.836V112.902H86.2591ZM93.0553 112.72C94.7353 112.72 95.5753 113.714 95.5753 115.702V120H93.4613V115.8C93.4613 115.305 93.368 114.946 93.1813 114.722C93.004 114.489 92.7193 114.372 92.3273 114.372C91.8607 114.372 91.4873 114.521 91.2073 114.82C90.9273 115.119 90.7873 115.52 90.7873 116.024V120H88.6733V114.932C88.6733 114.176 88.636 113.499 88.5613 112.902H90.5493L90.6893 114.022C90.9413 113.602 91.268 113.28 91.6693 113.056C92.08 112.832 92.542 112.72 93.0553 112.72ZM102.859 120L100.073 116.822V120H97.9593V109.696H100.073V115.954L102.733 112.916H105.267L102.257 116.318L105.449 120H102.859Z" fill="white"/>
<path fill-rule="evenodd" clip-rule="evenodd" d="M35.0979 81C41.2269 81 46.1937 76.075 46.1937 70C46.1937 63.925 41.2269 59 35.0979 59C28.9689 59 24 63.925 24 70C24 76.075 28.9689 81 35.0979 81ZM28.9502 69.4219C28.9645 73.5649 32.1371 76.1437 35.1853 76.1335L35.1852 76.1334C38.9491 76.1213 41.1755 73.0576 41.1674 70.2606C41.1572 67.4656 39.6239 65.4447 36.2454 64.6282C36.2373 64.5938 36.2312 64.519 36.2312 64.4484C36.2251 62.3364 37.8318 60.4732 39.8503 60.0589C39.6607 59.9942 39.3488 59.97 39.0511 59.97C36.743 59.9781 34.1964 60.9582 32.3369 62.482C30.4325 64.0462 28.94 66.6836 28.9502 69.4219Z" fill="white"/>
<path d="M53.3605 74.5554L49.9678 66.5303H52.1841L54.3005 71.8595L56.3516 66.5303H58.468L55.1752 74.5554H53.3605Z" fill="white"/>
<path d="M64.3729 70.5016C64.3729 70.1681 64.3342 69.8508 64.2546 69.5497C64.1771 69.2486 64.0589 68.9899 63.9019 68.7737C63.7449 68.5554 63.5553 68.3836 63.331 68.2563C63.1067 68.1269 62.8437 68.0623 62.5419 68.0623C62.2402 68.0623 61.9751 68.127 61.7529 68.2563C61.5286 68.3836 61.3369 68.5554 61.182 68.7737C61.025 68.9899 60.9067 69.2486 60.8292 69.5497C60.7497 69.8508 60.711 70.1681 60.711 70.5016C60.711 70.8471 60.7497 71.1685 60.8292 71.4635C60.9067 71.7586 61.0209 72.0173 61.1718 72.2396C61.3227 72.4619 61.5143 72.6377 61.7447 72.767C61.9731 72.8943 62.2402 72.959 62.5419 72.959C62.8437 72.959 63.1067 72.8943 63.331 72.767C63.5553 72.6377 63.7449 72.4619 63.9019 72.2396C64.0589 72.0173 64.1771 71.7586 64.2546 71.4635C64.3341 71.1685 64.3729 70.8471 64.3729 70.5016ZM66.422 70.5104C66.422 71.0338 66.3405 71.5471 66.1794 72.0523C66.0163 72.5576 65.7757 73.0082 65.4556 73.4084C65.1375 73.8085 64.7338 74.1299 64.2465 74.3744C63.7592 74.6189 63.1903 74.7402 62.5419 74.7402C61.8915 74.7402 61.3227 74.6189 60.8374 74.3744C60.3501 74.1299 59.9464 73.8085 59.6263 73.4084C59.3082 73.0082 59.0676 72.5576 58.9045 72.0523C58.7434 71.5471 58.6619 71.0338 58.6619 70.5104C58.6619 69.989 58.7434 69.4797 58.9045 68.9785C59.0676 68.4793 59.3082 68.0327 59.6263 67.6386C59.9464 67.2445 60.3501 66.9292 60.8374 66.6908C61.3227 66.4523 61.8915 66.3311 62.5419 66.3311C63.1903 66.3311 63.7571 66.4523 64.2383 66.6908C64.7195 66.9292 65.1232 67.2445 65.4474 67.6386C65.7736 68.0327 66.0163 68.4793 66.1794 68.9785C66.3405 69.4797 66.422 69.989 66.422 70.5104Z" fill="white"/>
<path d="M72.6796 68.2964C72.2779 68.1408 71.9048 68.062 71.5582 68.062C71.2034 68.062 70.8955 68.1308 70.6407 68.2641C70.3838 68.3974 70.1717 68.5773 70.0045 68.8057C69.8373 69.0341 69.7129 69.2907 69.6294 69.5757C69.5458 69.8586 69.5029 70.1517 69.5029 70.4528C69.5029 70.7862 69.5396 71.1055 69.613 71.4127C69.6844 71.7179 69.7965 71.9867 69.9474 72.215C70.0963 72.4434 70.2859 72.6273 70.5142 72.7667C70.7426 72.9042 71.0138 72.9749 71.3257 72.9749C71.5826 72.9749 71.8436 72.9042 72.1107 72.7667C72.3778 72.6273 72.5674 72.4616 72.6796 72.2736L72.6796 68.2964ZM72.8468 74.5553L72.7632 73.9409C72.5736 74.1511 72.3228 74.337 72.0088 74.4967C71.6968 74.6583 71.3278 74.7392 70.9037 74.7392C70.3471 74.7392 69.8536 74.622 69.4316 74.3896C69.0054 74.1572 68.6486 73.8459 68.3591 73.4579C68.0696 73.0699 67.8473 72.6192 67.6965 72.1079C67.5476 71.5986 67.4722 71.0651 67.4722 70.5094C67.4722 69.988 67.5497 69.4766 67.7046 68.9775C67.8616 68.4783 68.0981 68.0317 68.4162 67.6376C68.7363 67.2435 69.1339 66.9282 69.6151 66.6898C70.0942 66.4513 70.659 66.33 71.3053 66.33C71.7294 66.33 72.1882 66.4088 72.6796 66.5624V63.4502H74.7613V74.5553H72.8468Z" fill="white"/>
<path d="M80.6248 70.7923C80.4005 70.8041 80.1681 70.8247 79.9316 70.851C79.695 70.8793 79.4708 70.9157 79.2567 70.9601C78.804 71.049 78.4921 71.2006 78.3167 71.4168C78.1434 71.6351 78.0557 71.8695 78.0557 72.1262C78.0557 72.3909 78.1536 72.6052 78.3514 72.7668C78.5492 72.9265 78.8265 73.0073 79.1874 73.0073C79.4585 73.0073 79.7215 72.9527 79.9744 72.8416C80.2272 72.7304 80.4454 72.591 80.6248 72.4253V70.7923ZM80.792 74.5493L80.7104 73.949C80.4841 74.1956 80.1987 74.3896 79.85 74.5291C79.5014 74.6685 79.1201 74.7392 78.7041 74.7392C78.3555 74.7392 78.019 74.6806 77.701 74.5634C77.3788 74.4483 77.0954 74.2805 76.8487 74.0642C76.602 73.848 76.4022 73.5833 76.2513 73.266C76.0984 72.9487 76.0229 72.591 76.0229 72.1908C76.0229 71.7927 76.1004 71.439 76.2595 71.1339C76.4165 70.8287 76.6285 70.572 76.8997 70.3599C77.1688 70.1497 77.4787 69.9779 77.8274 69.8445C78.174 69.7112 78.541 69.6101 78.9223 69.5434C79.1914 69.4888 79.4871 69.4483 79.8072 69.42C80.1273 69.3917 80.3944 69.3675 80.6085 69.3453V69.2281C80.6085 68.7835 80.4943 68.4682 80.2619 68.2782C80.0315 68.0903 79.7134 67.9953 79.3097 67.9953C79.0732 67.9953 78.8469 68.0236 78.6328 68.0802C78.4187 68.1348 78.2291 68.2035 78.0598 68.2863C77.8906 68.3713 77.7418 68.4541 77.6113 68.537C77.4828 68.6198 77.3788 68.6946 77.2993 68.7613L76.6102 67.3143C76.6999 67.2355 76.8365 67.1425 77.022 67.0313C77.2076 66.9202 77.4298 66.811 77.6949 66.706C77.9579 66.6008 78.2535 66.5119 78.5838 66.4392C78.9141 66.3665 79.2709 66.3301 79.6502 66.3301C80.0988 66.3301 80.5086 66.3888 80.8776 66.5059C81.2467 66.6231 81.5668 66.805 81.8359 67.0556C82.103 67.3042 82.313 67.6195 82.4659 68.0034C82.6168 68.3854 82.6923 68.8482 82.6923 69.3918V74.5493H80.792Z" fill="white"/>
<path d="M89.1274 65.2811C89.0601 65.2489 88.9296 65.2003 88.7339 65.1396C88.5361 65.0791 88.2771 65.0487 87.9509 65.0487C87.6614 65.0487 87.4167 65.1357 87.221 65.3074C87.0252 65.4792 86.9274 65.7601 86.9274 66.1481V66.5301H88.6747V68.1953H86.9437V74.5552H84.8599V68.1953H83.7854V66.5301H84.8599V66.0976C84.8599 65.5762 84.9272 65.1356 85.0618 64.7739C85.1963 64.4141 85.3839 64.1191 85.6245 63.8927C85.8651 63.6644 86.1485 63.4966 86.4727 63.3915C86.7989 63.2864 87.1517 63.2339 87.5329 63.2339C88.0366 63.2339 88.4525 63.2804 88.7828 63.3754C89.1131 63.4704 89.3068 63.533 89.3618 63.5674L89.1274 65.2811Z" fill="white"/>
<path d="M94.806 70.5016C94.806 70.1681 94.7652 69.8508 94.6877 69.5497C94.6103 69.2486 94.492 68.9899 94.335 68.7737C94.178 68.5554 93.9884 68.3836 93.7641 68.2563C93.5398 68.1269 93.2768 68.0623 92.975 68.0623C92.6733 68.0623 92.4082 68.127 92.186 68.2563C91.9617 68.3836 91.77 68.5554 91.613 68.7737C91.4581 68.9899 91.3398 69.2486 91.2603 69.5497C91.1828 69.8508 91.1441 70.1681 91.1441 70.5016C91.1441 70.8471 91.1828 71.1685 91.2603 71.4635C91.3398 71.7586 91.454 72.0173 91.6049 72.2396C91.7558 72.4619 91.9474 72.6377 92.1758 72.767C92.4062 72.8943 92.6733 72.959 92.975 72.959C93.2768 72.959 93.5398 72.8943 93.7641 72.767C93.9884 72.6377 94.178 72.4619 94.335 72.2396C94.492 72.0173 94.6103 71.7586 94.6877 71.4635C94.7652 71.1685 94.806 70.8471 94.806 70.5016ZM96.8551 70.5104C96.8551 71.0338 96.7736 71.5471 96.6104 72.0523C96.4494 72.5576 96.2088 73.0082 95.8887 73.4084C95.5706 73.8085 95.1669 74.1299 94.6796 74.3744C94.1923 74.6189 93.6234 74.7402 92.975 74.7402C92.3246 74.7402 91.7558 74.6189 91.2705 74.3744C90.7832 74.1299 90.3795 73.8085 90.0594 73.4084C89.7413 73.0082 89.5007 72.5576 89.3376 72.0523C89.1745 71.5471 89.095 71.0338 89.095 70.5104C89.095 69.989 89.1745 69.4797 89.3376 68.9785C89.5007 68.4793 89.7413 68.0327 90.0594 67.6386C90.3795 67.2445 90.7832 66.9292 91.2705 66.6908C91.7558 66.4523 92.3246 66.3311 92.975 66.3311C93.6234 66.3311 94.1902 66.4523 94.6714 66.6908C95.1526 66.9292 95.5563 67.2445 95.8805 67.6386C96.2067 68.0327 96.4494 68.4793 96.6104 68.9785C96.7736 69.4797 96.8551 69.989 96.8551 70.5104Z" fill="white"/>
<path d="M103.32 74.5552V69.9778C103.32 69.3675 103.192 68.8946 102.935 68.5611C102.676 68.2297 102.319 68.062 101.858 68.062C101.534 68.062 101.234 68.1448 100.961 68.3125C100.686 68.4783 100.447 68.6622 100.245 68.8622V74.5552H98.1636V66.5301H100.062L100.162 67.1626C100.488 66.8979 100.853 66.6918 101.263 66.5483C101.671 66.4028 102.082 66.332 102.496 66.332C102.922 66.332 103.314 66.3947 103.673 66.522C104.032 66.6513 104.339 66.8534 104.596 67.1303C104.855 67.4072 105.053 67.7689 105.194 68.2115C105.332 68.6561 105.404 69.1896 105.404 69.8101V74.5552H103.32Z" fill="white"/>
<path d="M111.884 69.5778C111.861 69.3009 111.802 69.0584 111.706 68.8543C111.61 68.6481 111.492 68.4824 111.351 68.3551C111.211 68.2257 111.06 68.1328 110.897 68.0701C110.732 68.0096 110.566 67.9792 110.397 67.9792C110.036 67.9792 109.694 68.1125 109.368 68.3794C109.041 68.6461 108.85 69.0442 108.793 69.5778H111.884ZM108.744 71.0591C108.789 71.7361 109.001 72.2252 109.384 72.5243C109.765 72.8234 110.261 72.975 110.866 72.975C111.148 72.975 111.413 72.9487 111.659 72.9002C111.906 72.8497 112.126 72.787 112.318 72.7082C112.51 72.6314 112.673 72.5526 112.807 72.4758C112.942 72.397 113.042 72.3242 113.111 72.2575L113.666 73.941C113.586 73.9955 113.46 74.0703 113.286 74.1653C113.113 74.2603 112.897 74.3472 112.64 74.4321C112.383 74.5149 112.079 74.5857 111.733 74.6483C111.386 74.7089 111.005 74.7392 110.591 74.7392C110.063 74.7392 109.563 74.6564 109.086 74.4906C108.611 74.3229 108.193 74.0642 107.836 73.7146C107.478 73.365 107.192 72.9305 106.98 72.4091C106.766 71.8877 106.66 71.2652 106.66 70.5438C106.66 69.8667 106.758 69.2665 106.954 68.7451C107.149 68.2237 107.418 67.7851 107.759 67.4295C108.101 67.0758 108.499 66.803 108.952 66.613C109.406 66.4251 109.89 66.3301 110.405 66.3301C110.921 66.3301 111.396 66.415 111.835 66.5807C112.271 66.7464 112.648 67.0051 112.968 67.3547C113.286 67.7043 113.539 68.157 113.723 68.7128C113.908 69.2665 114 69.9274 114 70.6933V71.0591L108.744 71.0591Z" fill="white"/>
<rect x="53" y="14" width="32" height="8" rx="4" fill="#F2F2F2"/>
<rect x="65" y="8" width="8" height="14" rx="4" fill="#F2F2F2"/>
<path d="M65.3823 174.981H73.549" stroke="white" stroke-linecap="round" stroke-linejoin="round"/>
<path d="M58.5769 128.558H80.3546C82.6005 128.558 84.438 130.401 84.438 132.654V176.346C84.438 178.599 82.6005 180.442 80.3546 180.442H58.5769C56.331 180.442 54.4935 178.599 54.4935 176.346V132.654C54.4935 130.401 56.297 128.558 58.5769 128.558Z" stroke="white" stroke-linecap="round" stroke-linejoin="round"/>
</svg>
