<svg width="136" height="196" viewBox="0 0 136 196" fill="none" xmlns="http://www.w3.org/2000/svg">
<rect width="136" height="196" rx="8" fill="white"/>
<path fill-rule="evenodd" clip-rule="evenodd" d="M34.0979 81C40.2269 81 45.1937 76.075 45.1937 70C45.1937 63.925 40.2269 59 34.0979 59C27.9689 59 23 63.925 23 70C23 76.075 27.9689 81 34.0979 81ZM27.9502 69.4219C27.9645 73.5649 31.1371 76.1437 34.1853 76.1335L34.1852 76.1334C37.9491 76.1213 40.1755 73.0576 40.1674 70.2606C40.1572 67.4656 38.6239 65.4447 35.2454 64.6282C35.2373 64.5938 35.2312 64.519 35.2312 64.4484C35.2251 62.3364 36.8318 60.4732 38.8503 60.0589C38.6607 59.9942 38.3488 59.97 38.0511 59.97C35.743 59.9781 33.1964 60.9582 31.3369 62.482C29.4325 64.0462 27.94 66.6836 27.9502 69.4219Z" fill="#E50800"/>
<path d="M52.3605 74.5554L48.9678 66.5303H51.1841L53.3005 71.8595L55.3516 66.5303H57.468L54.1752 74.5554H52.3605Z" fill="#E50800"/>
<path d="M63.3729 70.5016C63.3729 70.1681 63.3342 69.8508 63.2546 69.5497C63.1771 69.2486 63.0589 68.9899 62.9019 68.7737C62.7449 68.5554 62.5553 68.3836 62.331 68.2563C62.1067 68.1269 61.8437 68.0623 61.5419 68.0623C61.2402 68.0623 60.9751 68.127 60.7529 68.2563C60.5286 68.3836 60.3369 68.5554 60.182 68.7737C60.025 68.9899 59.9067 69.2486 59.8292 69.5497C59.7497 69.8508 59.711 70.1681 59.711 70.5016C59.711 70.8471 59.7497 71.1685 59.8292 71.4635C59.9067 71.7586 60.0209 72.0173 60.1718 72.2396C60.3227 72.4619 60.5143 72.6377 60.7447 72.767C60.9731 72.8943 61.2402 72.959 61.5419 72.959C61.8437 72.959 62.1067 72.8943 62.331 72.767C62.5553 72.6377 62.7449 72.4619 62.9019 72.2396C63.0589 72.0173 63.1771 71.7586 63.2546 71.4635C63.3341 71.1685 63.3729 70.8471 63.3729 70.5016ZM65.422 70.5104C65.422 71.0338 65.3405 71.5471 65.1794 72.0523C65.0163 72.5576 64.7757 73.0082 64.4556 73.4084C64.1375 73.8085 63.7338 74.1299 63.2465 74.3744C62.7592 74.6189 62.1903 74.7402 61.5419 74.7402C60.8915 74.7402 60.3227 74.6189 59.8374 74.3744C59.3501 74.1299 58.9464 73.8085 58.6263 73.4084C58.3082 73.0082 58.0676 72.5576 57.9045 72.0523C57.7434 71.5471 57.6619 71.0338 57.6619 70.5104C57.6619 69.989 57.7434 69.4797 57.9045 68.9785C58.0676 68.4793 58.3082 68.0327 58.6263 67.6386C58.9464 67.2445 59.3501 66.9292 59.8374 66.6908C60.3227 66.4523 60.8915 66.3311 61.5419 66.3311C62.1903 66.3311 62.7571 66.4523 63.2383 66.6908C63.7195 66.9292 64.1232 67.2445 64.4474 67.6386C64.7736 68.0327 65.0163 68.4793 65.1794 68.9785C65.3405 69.4797 65.422 69.989 65.422 70.5104Z" fill="#E50800"/>
<path d="M71.6796 68.2964C71.2779 68.1408 70.9048 68.062 70.5582 68.062C70.2034 68.062 69.8955 68.1308 69.6407 68.2641C69.3838 68.3974 69.1717 68.5773 69.0045 68.8057C68.8373 69.0341 68.7129 69.2907 68.6294 69.5757C68.5458 69.8586 68.5029 70.1517 68.5029 70.4528C68.5029 70.7862 68.5396 71.1055 68.613 71.4127C68.6844 71.7179 68.7965 71.9867 68.9474 72.215C69.0963 72.4434 69.2859 72.6273 69.5142 72.7667C69.7426 72.9042 70.0138 72.9749 70.3257 72.9749C70.5826 72.9749 70.8436 72.9042 71.1107 72.7667C71.3778 72.6273 71.5674 72.4616 71.6796 72.2736L71.6796 68.2964ZM71.8468 74.5553L71.7632 73.9409C71.5736 74.1511 71.3228 74.337 71.0088 74.4967C70.6968 74.6583 70.3278 74.7392 69.9037 74.7392C69.3471 74.7392 68.8536 74.622 68.4316 74.3896C68.0054 74.1572 67.6486 73.8459 67.3591 73.4579C67.0696 73.0699 66.8473 72.6192 66.6965 72.1079C66.5476 71.5986 66.4722 71.0651 66.4722 70.5094C66.4722 69.988 66.5497 69.4766 66.7046 68.9775C66.8616 68.4783 67.0981 68.0317 67.4162 67.6376C67.7363 67.2435 68.1339 66.9282 68.6151 66.6898C69.0942 66.4513 69.659 66.33 70.3053 66.33C70.7294 66.33 71.1882 66.4088 71.6796 66.5624V63.4502H73.7613V74.5553H71.8468Z" fill="#E50800"/>
<path d="M79.6248 70.7923C79.4005 70.8041 79.1681 70.8247 78.9316 70.851C78.695 70.8793 78.4708 70.9157 78.2567 70.9601C77.804 71.049 77.4921 71.2006 77.3167 71.4168C77.1434 71.6351 77.0557 71.8695 77.0557 72.1262C77.0557 72.3909 77.1536 72.6052 77.3514 72.7668C77.5492 72.9265 77.8265 73.0073 78.1874 73.0073C78.4585 73.0073 78.7215 72.9527 78.9744 72.8416C79.2272 72.7304 79.4454 72.591 79.6248 72.4253V70.7923ZM79.792 74.5493L79.7104 73.949C79.4841 74.1956 79.1987 74.3896 78.85 74.5291C78.5014 74.6685 78.1201 74.7392 77.7041 74.7392C77.3555 74.7392 77.019 74.6806 76.701 74.5634C76.3788 74.4483 76.0954 74.2805 75.8487 74.0642C75.602 73.848 75.4022 73.5833 75.2513 73.266C75.0984 72.9487 75.0229 72.591 75.0229 72.1908C75.0229 71.7927 75.1004 71.439 75.2595 71.1339C75.4165 70.8287 75.6285 70.572 75.8997 70.3599C76.1688 70.1497 76.4787 69.9779 76.8274 69.8445C77.174 69.7112 77.541 69.6101 77.9223 69.5434C78.1914 69.4888 78.4871 69.4483 78.8072 69.42C79.1273 69.3917 79.3944 69.3675 79.6085 69.3453V69.2281C79.6085 68.7835 79.4943 68.4682 79.2619 68.2782C79.0315 68.0903 78.7134 67.9953 78.3097 67.9953C78.0732 67.9953 77.8469 68.0236 77.6328 68.0802C77.4187 68.1348 77.2291 68.2035 77.0598 68.2863C76.8906 68.3713 76.7418 68.4541 76.6113 68.537C76.4828 68.6198 76.3788 68.6946 76.2993 68.7613L75.6102 67.3143C75.6999 67.2355 75.8365 67.1425 76.022 67.0313C76.2076 66.9202 76.4298 66.811 76.6949 66.706C76.9579 66.6008 77.2535 66.5119 77.5838 66.4392C77.9141 66.3665 78.2709 66.3301 78.6502 66.3301C79.0988 66.3301 79.5086 66.3888 79.8776 66.5059C80.2467 66.6231 80.5668 66.805 80.8359 67.0556C81.103 67.3042 81.313 67.6195 81.4659 68.0034C81.6168 68.3854 81.6923 68.8482 81.6923 69.3918V74.5493H79.792Z" fill="#E50800"/>
<path d="M88.1274 65.2811C88.0601 65.2489 87.9296 65.2003 87.7339 65.1396C87.5361 65.0791 87.2771 65.0487 86.9509 65.0487C86.6614 65.0487 86.4167 65.1357 86.221 65.3074C86.0252 65.4792 85.9274 65.7601 85.9274 66.1481V66.5301H87.6747V68.1953H85.9437V74.5552H83.8599V68.1953H82.7854V66.5301H83.8599V66.0976C83.8599 65.5762 83.9272 65.1356 84.0618 64.7739C84.1963 64.4141 84.3839 64.1191 84.6245 63.8927C84.8651 63.6644 85.1485 63.4966 85.4727 63.3915C85.7989 63.2864 86.1517 63.2339 86.5329 63.2339C87.0366 63.2339 87.4525 63.2804 87.7828 63.3754C88.1131 63.4704 88.3068 63.533 88.3618 63.5674L88.1274 65.2811Z" fill="#E50800"/>
<path d="M93.806 70.5016C93.806 70.1681 93.7652 69.8508 93.6877 69.5497C93.6103 69.2486 93.492 68.9899 93.335 68.7737C93.178 68.5554 92.9884 68.3836 92.7641 68.2563C92.5398 68.1269 92.2768 68.0623 91.975 68.0623C91.6733 68.0623 91.4082 68.127 91.186 68.2563C90.9617 68.3836 90.77 68.5554 90.613 68.7737C90.4581 68.9899 90.3398 69.2486 90.2603 69.5497C90.1828 69.8508 90.1441 70.1681 90.1441 70.5016C90.1441 70.8471 90.1828 71.1685 90.2603 71.4635C90.3398 71.7586 90.454 72.0173 90.6049 72.2396C90.7558 72.4619 90.9474 72.6377 91.1758 72.767C91.4062 72.8943 91.6733 72.959 91.975 72.959C92.2768 72.959 92.5398 72.8943 92.7641 72.767C92.9884 72.6377 93.178 72.4619 93.335 72.2396C93.492 72.0173 93.6103 71.7586 93.6877 71.4635C93.7652 71.1685 93.806 70.8471 93.806 70.5016ZM95.8551 70.5104C95.8551 71.0338 95.7736 71.5471 95.6104 72.0523C95.4494 72.5576 95.2088 73.0082 94.8887 73.4084C94.5706 73.8085 94.1669 74.1299 93.6796 74.3744C93.1923 74.6189 92.6234 74.7402 91.975 74.7402C91.3246 74.7402 90.7558 74.6189 90.2705 74.3744C89.7832 74.1299 89.3795 73.8085 89.0594 73.4084C88.7413 73.0082 88.5007 72.5576 88.3376 72.0523C88.1745 71.5471 88.095 71.0338 88.095 70.5104C88.095 69.989 88.1745 69.4797 88.3376 68.9785C88.5007 68.4793 88.7413 68.0327 89.0594 67.6386C89.3795 67.2445 89.7832 66.9292 90.2705 66.6908C90.7558 66.4523 91.3246 66.3311 91.975 66.3311C92.6234 66.3311 93.1902 66.4523 93.6714 66.6908C94.1526 66.9292 94.5563 67.2445 94.8805 67.6386C95.2067 68.0327 95.4494 68.4793 95.6104 68.9785C95.7736 69.4797 95.8551 69.989 95.8551 70.5104Z" fill="#E50800"/>
<path d="M102.32 74.5552V69.9778C102.32 69.3675 102.192 68.8946 101.935 68.5611C101.676 68.2297 101.319 68.062 100.858 68.062C100.534 68.062 100.234 68.1448 99.961 68.3125C99.6857 68.4783 99.4472 68.6622 99.2453 68.8622V74.5552H97.1636V66.5301H99.0618L99.1617 67.1626C99.4879 66.8979 99.8529 66.6918 100.263 66.5483C100.671 66.4028 101.082 66.332 101.496 66.332C101.922 66.332 102.314 66.3947 102.673 66.522C103.032 66.6513 103.339 66.8534 103.596 67.1303C103.855 67.4072 104.053 67.7689 104.194 68.2115C104.332 68.6561 104.404 69.1896 104.404 69.8101V74.5552H102.32Z" fill="#E50800"/>
<path d="M110.884 69.5778C110.861 69.3009 110.802 69.0584 110.706 68.8543C110.61 68.6481 110.492 68.4824 110.351 68.3551C110.211 68.2257 110.06 68.1328 109.897 68.0701C109.732 68.0096 109.566 67.9792 109.397 67.9792C109.036 67.9792 108.694 68.1125 108.368 68.3794C108.041 68.6461 107.85 69.0442 107.793 69.5778H110.884ZM107.744 71.0591C107.789 71.7361 108.001 72.2252 108.384 72.5243C108.765 72.8234 109.261 72.975 109.866 72.975C110.148 72.975 110.413 72.9487 110.659 72.9002C110.906 72.8497 111.126 72.787 111.318 72.7082C111.51 72.6314 111.673 72.5526 111.807 72.4758C111.942 72.397 112.042 72.3242 112.111 72.2575L112.666 73.941C112.586 73.9955 112.46 74.0703 112.286 74.1653C112.113 74.2603 111.897 74.3472 111.64 74.4321C111.383 74.5149 111.079 74.5857 110.733 74.6483C110.386 74.7089 110.005 74.7392 109.591 74.7392C109.063 74.7392 108.563 74.6564 108.086 74.4906C107.611 74.3229 107.193 74.0642 106.836 73.7146C106.478 73.365 106.192 72.9305 105.98 72.4091C105.766 71.8877 105.66 71.2652 105.66 70.5438C105.66 69.8667 105.758 69.2665 105.954 68.7451C106.149 68.2237 106.418 67.7851 106.759 67.4295C107.101 67.0758 107.499 66.803 107.952 66.613C108.406 66.4251 108.89 66.3301 109.405 66.3301C109.921 66.3301 110.396 66.415 110.835 66.5807C111.271 66.7464 111.648 67.0051 111.968 67.3547C112.286 67.7043 112.539 68.157 112.723 68.7128C112.908 69.2665 113 69.9274 113 70.6933V71.0591L107.744 71.0591Z" fill="#E50800"/>
<path d="M37.5104 110.032H44.2304V111.754H39.6664V114.064H43.9504V115.8H39.6664V120H37.5104V110.032ZM52.3974 116.626H47.7214C47.7588 117.289 47.9314 117.774 48.2394 118.082C48.5474 118.381 49.0048 118.53 49.6114 118.53C49.9754 118.53 50.3394 118.469 50.7034 118.348C51.0674 118.227 51.4034 118.049 51.7114 117.816L52.2714 119.244C51.9354 119.515 51.5154 119.729 51.0114 119.888C50.5168 120.037 50.0174 120.112 49.5134 120.112C48.3188 120.112 47.3808 119.785 46.6994 119.132C46.0181 118.469 45.6774 117.569 45.6774 116.43C45.6774 115.711 45.8221 115.072 46.1114 114.512C46.4101 113.943 46.8254 113.504 47.3574 113.196C47.8894 112.879 48.4914 112.72 49.1634 112.72C50.1621 112.72 50.9508 113.047 51.5294 113.7C52.1081 114.344 52.3974 115.217 52.3974 116.318V116.626ZM49.2194 114.204C48.8181 114.204 48.4914 114.321 48.2394 114.554C47.9968 114.787 47.8381 115.128 47.7634 115.576H50.5774C50.4654 114.661 50.0128 114.204 49.2194 114.204ZM57.1407 120.112C55.7967 120.112 54.7374 119.823 53.9627 119.244L54.5227 117.774C54.896 118.045 55.3114 118.255 55.7687 118.404C56.226 118.544 56.6927 118.614 57.1687 118.614C57.5327 118.614 57.8127 118.558 58.0087 118.446C58.2047 118.334 58.3027 118.171 58.3027 117.956C58.3027 117.779 58.2327 117.639 58.0927 117.536C57.9527 117.433 57.7054 117.345 57.3507 117.27L56.1887 117.004C55.5074 116.855 55.0034 116.617 54.6767 116.29C54.3594 115.963 54.2007 115.529 54.2007 114.988C54.2007 114.549 54.3267 114.157 54.5787 113.812C54.84 113.467 55.1994 113.201 55.6567 113.014C56.114 112.818 56.6414 112.72 57.2387 112.72C57.7427 112.72 58.2374 112.799 58.7227 112.958C59.208 113.107 59.642 113.322 60.0247 113.602L59.4367 115.016C59.0727 114.764 58.6994 114.573 58.3167 114.442C57.9434 114.311 57.5794 114.246 57.2247 114.246C56.8794 114.246 56.6087 114.307 56.4127 114.428C56.2167 114.549 56.1187 114.717 56.1187 114.932C56.1187 115.091 56.1747 115.221 56.2867 115.324C56.408 115.417 56.618 115.497 56.9167 115.562L58.1067 115.828C58.8347 115.996 59.362 116.248 59.6887 116.584C60.0154 116.92 60.1787 117.368 60.1787 117.928C60.1787 118.6 59.908 119.132 59.3667 119.524C58.8254 119.916 58.0834 120.112 57.1407 120.112ZM64.7574 114.484V117.242C64.7574 117.634 64.86 117.923 65.0654 118.11C65.2707 118.287 65.5367 118.376 65.8634 118.376C66.0687 118.376 66.302 118.343 66.5634 118.278V119.916C66.2274 120.047 65.8214 120.112 65.3454 120.112C64.468 120.112 63.796 119.865 63.3294 119.37C62.872 118.875 62.6434 118.18 62.6434 117.284V114.484H61.2994V112.902H62.6434V111.236L64.7574 110.55V112.902H66.5634V114.484H64.7574ZM72.7301 112.72C74.4101 112.72 75.2501 113.714 75.2501 115.702V120H73.1361V115.8C73.1361 115.305 73.0428 114.946 72.8561 114.722C72.6788 114.489 72.3941 114.372 72.0021 114.372C71.5355 114.372 71.1621 114.521 70.8821 114.82C70.6021 115.119 70.4621 115.52 70.4621 116.024V120H68.3481V114.932C68.3481 114.176 68.3108 113.499 68.2361 112.902H70.2241L70.3641 114.022C70.6161 113.602 70.9428 113.28 71.3441 113.056C71.7548 112.832 72.2168 112.72 72.7301 112.72ZM84.0041 116.626H79.3281C79.3654 117.289 79.5381 117.774 79.8461 118.082C80.1541 118.381 80.6114 118.53 81.2181 118.53C81.5821 118.53 81.9461 118.469 82.3101 118.348C82.6741 118.227 83.0101 118.049 83.3181 117.816L83.8781 119.244C83.5421 119.515 83.1221 119.729 82.6181 119.888C82.1234 120.037 81.6241 120.112 81.1201 120.112C79.9254 120.112 78.9874 119.785 78.3061 119.132C77.6247 118.469 77.2841 117.569 77.2841 116.43C77.2841 115.711 77.4287 115.072 77.7181 114.512C78.0167 113.943 78.4321 113.504 78.9641 113.196C79.4961 112.879 80.0981 112.72 80.7701 112.72C81.7687 112.72 82.5574 113.047 83.1361 113.7C83.7147 114.344 84.0041 115.217 84.0041 116.318V116.626ZM80.8261 114.204C80.4247 114.204 80.0981 114.321 79.8461 114.554C79.6034 114.787 79.4447 115.128 79.3701 115.576H82.1841C82.0721 114.661 81.6194 114.204 80.8261 114.204ZM88.5546 114.484V117.242C88.5546 117.634 88.6573 117.923 88.8626 118.11C89.068 118.287 89.334 118.376 89.6606 118.376C89.866 118.376 90.0993 118.343 90.3606 118.278V119.916C90.0246 120.047 89.6186 120.112 89.1426 120.112C88.2653 120.112 87.5933 119.865 87.1266 119.37C86.6693 118.875 86.4406 118.18 86.4406 117.284V114.484H85.0966V112.902H86.4406V111.236L88.5546 110.55V112.902H90.3606V114.484H88.5546ZM98.2898 118.418V120H92.0318V118.516L95.6158 114.484H92.0878V112.902H98.1498V114.33L94.5098 118.418H98.2898Z" fill="#E50800"/>
<rect x="52" y="14" width="32" height="8" rx="4" fill="#F2F2F2"/>
<rect x="64" y="8" width="8" height="14" rx="4" fill="#F2F2F2"/>
<g clip-path="url(#clip0)">
<path d="M39.4424 150.327C56.565 133.163 84.3943 133.163 101.517 150.286C101.517 150.286 101.517 150.286 101.558 150.327" stroke="#E30613" stroke-linecap="round" stroke-linejoin="round"/>
<path d="M48.4326 159.726C60.6922 147.466 80.5528 147.466 92.8124 159.726" stroke="#E30613" stroke-linecap="round" stroke-linejoin="round"/>
<path d="M57.6682 168.961C64.7788 161.851 76.3437 161.851 83.4543 168.961" stroke="#E30613" stroke-linecap="round" stroke-linejoin="round"/>
<path d="M70.5001 181.18C71.4029 181.18 72.1347 180.449 72.1347 179.546C72.1347 178.643 71.4029 177.911 70.5001 177.911C69.5973 177.911 68.8655 178.643 68.8655 179.546C68.8655 180.449 69.5973 181.18 70.5001 181.18Z" stroke="#E30613" stroke-linecap="round" stroke-linejoin="round"/>
<path d="M70.4999 180.567C71.0641 180.567 71.5215 180.11 71.5215 179.546C71.5215 178.981 71.0641 178.524 70.4999 178.524C69.9357 178.524 69.4783 178.981 69.4783 179.546C69.4783 180.11 69.9357 180.567 70.4999 180.567Z" stroke="#E30613" stroke-linecap="round" stroke-linejoin="round"/>
<path d="M70.5 179.955C70.7257 179.955 70.9086 179.772 70.9086 179.546C70.9086 179.32 70.7257 179.137 70.5 179.137C70.2743 179.137 70.0913 179.32 70.0913 179.546C70.0913 179.772 70.2743 179.955 70.5 179.955Z" stroke="#E30613" stroke-linecap="round" stroke-linejoin="round"/>
</g>
<defs>
<clipPath id="clip0">
<rect width="67" height="67" fill="white" transform="translate(37 125)"/>
</clipPath>
</defs>
</svg>
