<svg width="136" height="196" viewBox="0 0 136 196" fill="none" xmlns="http://www.w3.org/2000/svg">
<path d="M4.15227 168.88H8.77227V169.72H5.17227V171.96H8.57227V172.8H5.17227V175.16H8.77227V176H4.15227V168.88ZM12.4805 170.84C12.6338 170.84 12.7938 170.863 12.9605 170.91L12.9405 171.83C12.7605 171.763 12.5638 171.73 12.3505 171.73C11.8905 171.73 11.5438 171.87 11.3105 172.15C11.0838 172.423 10.9705 172.77 10.9705 173.19V176H9.97047V172.38C9.97047 171.853 9.9438 171.38 9.89047 170.96H10.8305L10.9205 171.87C11.0538 171.537 11.2605 171.283 11.5405 171.11C11.8205 170.93 12.1338 170.84 12.4805 170.84ZM18.2826 170.96V175.91C18.2826 176.677 18.0792 177.253 17.6726 177.64C17.2726 178.033 16.6759 178.23 15.8826 178.23C15.1159 178.23 14.4459 178.063 13.8726 177.73L14.0426 176.94C14.3559 177.107 14.6559 177.23 14.9426 177.31C15.2359 177.39 15.5459 177.43 15.8726 177.43C16.8126 177.43 17.2826 176.95 17.2826 175.99V174.9C17.1292 175.193 16.9059 175.427 16.6126 175.6C16.3192 175.767 15.9792 175.85 15.5926 175.85C15.1526 175.85 14.7592 175.747 14.4126 175.54C14.0726 175.333 13.8059 175.04 13.6126 174.66C13.4259 174.28 13.3326 173.843 13.3326 173.35C13.3326 172.857 13.4259 172.42 13.6126 172.04C13.8059 171.66 14.0726 171.367 14.4126 171.16C14.7592 170.947 15.1526 170.84 15.5926 170.84C15.9792 170.84 16.3192 170.923 16.6126 171.09C16.9059 171.25 17.1292 171.48 17.2826 171.78V170.96H18.2826ZM15.8226 175.04C16.2759 175.04 16.6326 174.89 16.8926 174.59C17.1526 174.29 17.2826 173.877 17.2826 173.35C17.2826 172.823 17.1526 172.41 16.8926 172.11C16.6392 171.803 16.2826 171.65 15.8226 171.65C15.3692 171.65 15.0092 171.803 14.7426 172.11C14.4826 172.41 14.3526 172.823 14.3526 173.35C14.3526 173.87 14.4826 174.283 14.7426 174.59C15.0092 174.89 15.3692 175.04 15.8226 175.04ZM24.0654 173.5H20.4654C20.4987 174.68 21.0354 175.27 22.0754 175.27C22.6554 175.27 23.1854 175.08 23.6654 174.7L23.9754 175.42C23.7487 175.62 23.4587 175.78 23.1054 175.9C22.7587 176.013 22.4087 176.07 22.0554 176.07C21.2487 176.07 20.6154 175.84 20.1554 175.38C19.6954 174.913 19.4654 174.277 19.4654 173.47C19.4654 172.957 19.5654 172.5 19.7654 172.1C19.9721 171.7 20.2587 171.39 20.6254 171.17C20.9921 170.95 21.4087 170.84 21.8754 170.84C22.5554 170.84 23.0887 171.06 23.4754 171.5C23.8687 171.94 24.0654 172.55 24.0654 173.33V173.5ZM21.8954 171.59C21.5154 171.59 21.2054 171.703 20.9654 171.93C20.7254 172.157 20.5721 172.48 20.5054 172.9H23.1754C23.1354 172.473 23.0054 172.15 22.7854 171.93C22.5654 171.703 22.2687 171.59 21.8954 171.59ZM27.8944 170.84C28.3344 170.84 28.7244 170.947 29.0644 171.16C29.4044 171.373 29.6677 171.677 29.8544 172.07C30.041 172.463 30.1344 172.92 30.1344 173.44C30.1344 173.96 30.0377 174.42 29.8444 174.82C29.6577 175.213 29.3944 175.52 29.0544 175.74C28.7144 175.96 28.3277 176.07 27.8944 176.07C27.5077 176.07 27.1677 175.99 26.8744 175.83C26.5877 175.663 26.371 175.427 26.2244 175.12V176H25.2244V168.64H26.2244V171.79C26.371 171.49 26.5877 171.257 26.8744 171.09C27.1677 170.923 27.5077 170.84 27.8944 170.84ZM27.6644 175.27C28.1177 175.27 28.471 175.11 28.7244 174.79C28.9777 174.463 29.1044 174.013 29.1044 173.44C29.1044 172.873 28.9777 172.433 28.7244 172.12C28.471 171.807 28.1177 171.65 27.6644 171.65C27.2044 171.65 26.8477 171.807 26.5944 172.12C26.3477 172.433 26.2244 172.88 26.2244 173.46C26.2244 174.04 26.3477 174.487 26.5944 174.8C26.8477 175.113 27.2044 175.27 27.6644 175.27ZM33.9981 170.84C35.2048 170.84 35.8081 171.513 35.8081 172.86V176H34.7981V172.92C34.7981 172.48 34.7115 172.16 34.5381 171.96C34.3715 171.76 34.1015 171.66 33.7281 171.66C33.3015 171.66 32.9581 171.793 32.6981 172.06C32.4448 172.327 32.3181 172.683 32.3181 173.13V176H31.3181V172.38C31.3181 171.853 31.2915 171.38 31.2381 170.96H32.1781L32.2681 171.83C32.4281 171.51 32.6581 171.267 32.9581 171.1C33.2648 170.927 33.6115 170.84 33.9981 170.84ZM37.2459 170.96H38.2459V176H37.2459V170.96ZM38.3259 168.76V169.82H37.1559V168.76H38.3259ZM41.4863 176.07C40.6063 176.07 39.913 175.857 39.4063 175.43L39.7063 174.7C40.233 175.1 40.8363 175.3 41.5163 175.3C41.863 175.3 42.1263 175.243 42.3063 175.13C42.4863 175.01 42.5763 174.843 42.5763 174.63C42.5763 174.45 42.513 174.31 42.3863 174.21C42.2663 174.103 42.0597 174.013 41.7663 173.94L40.9263 173.74C40.4863 173.647 40.1497 173.483 39.9163 173.25C39.6897 173.01 39.5763 172.713 39.5763 172.36C39.5763 171.907 39.7563 171.54 40.1163 171.26C40.483 170.98 40.9663 170.84 41.5663 170.84C41.9263 170.84 42.2663 170.897 42.5863 171.01C42.913 171.123 43.1897 171.283 43.4163 171.49L43.1063 172.2C42.6197 171.813 42.1063 171.62 41.5663 171.62C41.2397 171.62 40.9863 171.683 40.8063 171.81C40.6263 171.93 40.5363 172.1 40.5363 172.32C40.5363 172.493 40.593 172.633 40.7063 172.74C40.8197 172.847 40.9997 172.93 41.2463 172.99L42.1063 173.2C42.5863 173.307 42.9397 173.477 43.1663 173.71C43.3997 173.937 43.5163 174.233 43.5163 174.6C43.5163 175.053 43.333 175.413 42.9663 175.68C42.6063 175.94 42.113 176.07 41.4863 176.07ZM46.4668 176.07C45.5868 176.07 44.8935 175.857 44.3868 175.43L44.6868 174.7C45.2135 175.1 45.8168 175.3 46.4968 175.3C46.8435 175.3 47.1068 175.243 47.2868 175.13C47.4668 175.01 47.5568 174.843 47.5568 174.63C47.5568 174.45 47.4935 174.31 47.3668 174.21C47.2468 174.103 47.0401 174.013 46.7468 173.94L45.9068 173.74C45.4668 173.647 45.1301 173.483 44.8968 173.25C44.6701 173.01 44.5568 172.713 44.5568 172.36C44.5568 171.907 44.7368 171.54 45.0968 171.26C45.4635 170.98 45.9468 170.84 46.5468 170.84C46.9068 170.84 47.2468 170.897 47.5668 171.01C47.8935 171.123 48.1701 171.283 48.3968 171.49L48.0868 172.2C47.6001 171.813 47.0868 171.62 46.5468 171.62C46.2201 171.62 45.9668 171.683 45.7868 171.81C45.6068 171.93 45.5168 172.1 45.5168 172.32C45.5168 172.493 45.5735 172.633 45.6868 172.74C45.8001 172.847 45.9801 172.93 46.2268 172.99L47.0868 173.2C47.5668 173.307 47.9201 173.477 48.1468 173.71C48.3801 173.937 48.4968 174.233 48.4968 174.6C48.4968 175.053 48.3135 175.413 47.9468 175.68C47.5868 175.94 47.0935 176.07 46.4668 176.07ZM53.9873 173.5H50.3873C50.4206 174.68 50.9573 175.27 51.9973 175.27C52.5773 175.27 53.1073 175.08 53.5873 174.7L53.8973 175.42C53.6706 175.62 53.3806 175.78 53.0273 175.9C52.6806 176.013 52.3306 176.07 51.9773 176.07C51.1706 176.07 50.5373 175.84 50.0773 175.38C49.6173 174.913 49.3873 174.277 49.3873 173.47C49.3873 172.957 49.4873 172.5 49.6873 172.1C49.8939 171.7 50.1806 171.39 50.5473 171.17C50.9139 170.95 51.3306 170.84 51.7973 170.84C52.4773 170.84 53.0106 171.06 53.3973 171.5C53.7906 171.94 53.9873 172.55 53.9873 173.33V173.5ZM51.8173 171.59C51.4373 171.59 51.1273 171.703 50.8873 171.93C50.6473 172.157 50.4939 172.48 50.4273 172.9H53.0973C53.0573 172.473 52.9273 172.15 52.7073 171.93C52.4873 171.703 52.1906 171.59 51.8173 171.59ZM65.6323 170.96L63.7123 176H62.7923L61.4423 172.35L60.1023 176H59.1823L57.2623 170.96H58.3123L59.6823 174.81L61.0723 170.96H61.8723L63.2623 174.81L64.6423 170.96H65.6323ZM70.8037 173.5H67.2037C67.237 174.68 67.7737 175.27 68.8137 175.27C69.3937 175.27 69.9237 175.08 70.4037 174.7L70.7137 175.42C70.487 175.62 70.197 175.78 69.8437 175.9C69.497 176.013 69.147 176.07 68.7937 176.07C67.987 176.07 67.3537 175.84 66.8937 175.38C66.4337 174.913 66.2037 174.277 66.2037 173.47C66.2037 172.957 66.3037 172.5 66.5037 172.1C66.7103 171.7 66.997 171.39 67.3637 171.17C67.7303 170.95 68.147 170.84 68.6137 170.84C69.2937 170.84 69.827 171.06 70.2137 171.5C70.607 171.94 70.8037 172.55 70.8037 173.33V173.5ZM68.6337 171.59C68.2537 171.59 67.9437 171.703 67.7037 171.93C67.4637 172.157 67.3103 172.48 67.2437 172.9H69.9137C69.8737 172.473 69.7437 172.15 69.5237 171.93C69.3037 171.703 69.007 171.59 68.6337 171.59ZM74.4727 170.84C74.626 170.84 74.786 170.863 74.9527 170.91L74.9327 171.83C74.7527 171.763 74.556 171.73 74.3427 171.73C73.8827 171.73 73.536 171.87 73.3027 172.15C73.076 172.423 72.9627 172.77 72.9627 173.19V176H71.9627V172.38C71.9627 171.853 71.936 171.38 71.8827 170.96H72.8227L72.9127 171.87C73.046 171.537 73.2527 171.283 73.5327 171.11C73.8127 170.93 74.126 170.84 74.4727 170.84ZM80.2348 168.64V176H79.2348V175.14C79.0881 175.44 78.8681 175.67 78.5748 175.83C78.2881 175.99 77.9514 176.07 77.5648 176.07C77.1314 176.07 76.7448 175.96 76.4048 175.74C76.0648 175.52 75.7981 175.213 75.6048 174.82C75.4181 174.42 75.3248 173.96 75.3248 173.44C75.3248 172.92 75.4181 172.463 75.6048 172.07C75.7914 171.677 76.0514 171.373 76.3848 171.16C76.7248 170.947 77.1181 170.84 77.5648 170.84C77.9448 170.84 78.2781 170.92 78.5648 171.08C78.8581 171.24 79.0781 171.467 79.2248 171.76V168.64H80.2348ZM77.7948 175.27C78.2548 175.27 78.6081 175.113 78.8548 174.8C79.1081 174.48 79.2348 174.033 79.2348 173.46C79.2348 172.887 79.1081 172.443 78.8548 172.13C78.6081 171.81 78.2581 171.65 77.8048 171.65C77.3448 171.65 76.9848 171.807 76.7248 172.12C76.4714 172.433 76.3448 172.873 76.3448 173.44C76.3448 174.013 76.4714 174.463 76.7248 174.79C76.9848 175.11 77.3414 175.27 77.7948 175.27ZM86.0185 173.5H82.4185C82.4518 174.68 82.9885 175.27 84.0285 175.27C84.6085 175.27 85.1385 175.08 85.6185 174.7L85.9285 175.42C85.7018 175.62 85.4118 175.78 85.0585 175.9C84.7118 176.013 84.3618 176.07 84.0085 176.07C83.2018 176.07 82.5685 175.84 82.1085 175.38C81.6485 174.913 81.4185 174.277 81.4185 173.47C81.4185 172.957 81.5185 172.5 81.7185 172.1C81.9252 171.7 82.2118 171.39 82.5785 171.17C82.9452 170.95 83.3618 170.84 83.8285 170.84C84.5085 170.84 85.0418 171.06 85.4285 171.5C85.8218 171.94 86.0185 172.55 86.0185 173.33V173.5ZM83.8485 171.59C83.4685 171.59 83.1585 171.703 82.9185 171.93C82.6785 172.157 82.5252 172.48 82.4585 172.9H85.1285C85.0885 172.473 84.9585 172.15 84.7385 171.93C84.5185 171.703 84.2218 171.59 83.8485 171.59ZM89.8575 170.84C91.0642 170.84 91.6675 171.513 91.6675 172.86V176H90.6575V172.92C90.6575 172.48 90.5708 172.16 90.3975 171.96C90.2308 171.76 89.9608 171.66 89.5875 171.66C89.1608 171.66 88.8175 171.793 88.5575 172.06C88.3042 172.327 88.1775 172.683 88.1775 173.13V176H87.1775V172.38C87.1775 171.853 87.1508 171.38 87.0975 170.96H88.0375L88.1275 171.83C88.2875 171.51 88.5175 171.267 88.8175 171.1C89.1242 170.927 89.4708 170.84 89.8575 170.84ZM100.421 170.96V175.91C100.421 176.677 100.218 177.253 99.8113 177.64C99.4113 178.033 98.8146 178.23 98.0213 178.23C97.2546 178.23 96.5846 178.063 96.0113 177.73L96.1813 176.94C96.4946 177.107 96.7946 177.23 97.0813 177.31C97.3746 177.39 97.6846 177.43 98.0113 177.43C98.9513 177.43 99.4213 176.95 99.4213 175.99V174.9C99.2679 175.193 99.0446 175.427 98.7513 175.6C98.4579 175.767 98.1179 175.85 97.7313 175.85C97.2913 175.85 96.8979 175.747 96.5513 175.54C96.2113 175.333 95.9446 175.04 95.7513 174.66C95.5646 174.28 95.4713 173.843 95.4713 173.35C95.4713 172.857 95.5646 172.42 95.7513 172.04C95.9446 171.66 96.2113 171.367 96.5513 171.16C96.8979 170.947 97.2913 170.84 97.7313 170.84C98.1179 170.84 98.4579 170.923 98.7513 171.09C99.0446 171.25 99.2679 171.48 99.4213 171.78V170.96H100.421ZM97.9613 175.04C98.4146 175.04 98.7713 174.89 99.0313 174.59C99.2913 174.29 99.4213 173.877 99.4213 173.35C99.4213 172.823 99.2913 172.41 99.0313 172.11C98.7779 171.803 98.4213 171.65 97.9613 171.65C97.5079 171.65 97.1479 171.803 96.8813 172.11C96.6213 172.41 96.4913 172.823 96.4913 173.35C96.4913 173.87 96.6213 174.283 96.8813 174.59C97.1479 174.89 97.5079 175.04 97.9613 175.04ZM106.204 173.5H102.604C102.637 174.68 103.174 175.27 104.214 175.27C104.794 175.27 105.324 175.08 105.804 174.7L106.114 175.42C105.887 175.62 105.597 175.78 105.244 175.9C104.897 176.013 104.547 176.07 104.194 176.07C103.387 176.07 102.754 175.84 102.294 175.38C101.834 174.913 101.604 174.277 101.604 173.47C101.604 172.957 101.704 172.5 101.904 172.1C102.111 171.7 102.397 171.39 102.764 171.17C103.131 170.95 103.547 170.84 104.014 170.84C104.694 170.84 105.227 171.06 105.614 171.5C106.007 171.94 106.204 172.55 106.204 173.33V173.5ZM104.034 171.59C103.654 171.59 103.344 171.703 103.104 171.93C102.864 172.157 102.711 172.48 102.644 172.9H105.314C105.274 172.473 105.144 172.15 104.924 171.93C104.704 171.703 104.407 171.59 104.034 171.59ZM107.363 168.64H108.363V176H107.363V168.64ZM114.454 170.96V176H113.454V175.14C113.307 175.44 113.087 175.67 112.794 175.83C112.507 175.99 112.17 176.07 111.784 176.07C111.337 176.07 110.944 175.963 110.604 175.75C110.27 175.537 110.01 175.237 109.824 174.85C109.637 174.457 109.544 174 109.544 173.48C109.544 172.96 109.637 172.5 109.824 172.1C110.017 171.7 110.284 171.39 110.624 171.17C110.964 170.95 111.35 170.84 111.784 170.84C112.17 170.84 112.507 170.923 112.794 171.09C113.08 171.25 113.3 171.48 113.454 171.78V170.96H114.454ZM112.024 175.27C112.477 175.27 112.827 175.113 113.074 174.8C113.327 174.48 113.454 174.033 113.454 173.46C113.454 172.88 113.327 172.433 113.074 172.12C112.827 171.807 112.474 171.65 112.014 171.65C111.56 171.65 111.204 171.813 110.944 172.14C110.69 172.46 110.564 172.907 110.564 173.48C110.564 174.047 110.69 174.487 110.944 174.8C111.204 175.113 111.564 175.27 112.024 175.27ZM120.547 168.64V176H119.547V175.14C119.401 175.44 119.181 175.67 118.887 175.83C118.601 175.99 118.264 176.07 117.877 176.07C117.444 176.07 117.057 175.96 116.717 175.74C116.377 175.52 116.111 175.213 115.917 174.82C115.731 174.42 115.637 173.96 115.637 173.44C115.637 172.92 115.731 172.463 115.917 172.07C116.104 171.677 116.364 171.373 116.697 171.16C117.037 170.947 117.431 170.84 117.877 170.84C118.257 170.84 118.591 170.92 118.877 171.08C119.171 171.24 119.391 171.467 119.537 171.76V168.64H120.547ZM118.107 175.27C118.567 175.27 118.921 175.113 119.167 174.8C119.421 174.48 119.547 174.033 119.547 173.46C119.547 172.887 119.421 172.443 119.167 172.13C118.921 171.81 118.571 171.65 118.117 171.65C117.657 171.65 117.297 171.807 117.037 172.12C116.784 172.433 116.657 172.873 116.657 173.44C116.657 174.013 116.784 174.463 117.037 174.79C117.297 175.11 117.654 175.27 118.107 175.27ZM126.331 173.5H122.731C122.764 174.68 123.301 175.27 124.341 175.27C124.921 175.27 125.451 175.08 125.931 174.7L126.241 175.42C126.014 175.62 125.724 175.78 125.371 175.9C125.024 176.013 124.674 176.07 124.321 176.07C123.514 176.07 122.881 175.84 122.421 175.38C121.961 174.913 121.731 174.277 121.731 173.47C121.731 172.957 121.831 172.5 122.031 172.1C122.238 171.7 122.524 171.39 122.891 171.17C123.258 170.95 123.674 170.84 124.141 170.84C124.821 170.84 125.354 171.06 125.741 171.5C126.134 171.94 126.331 172.55 126.331 173.33V173.5ZM124.161 171.59C123.781 171.59 123.471 171.703 123.231 171.93C122.991 172.157 122.838 172.48 122.771 172.9H125.441C125.401 172.473 125.271 172.15 125.051 171.93C124.831 171.703 124.534 171.59 124.161 171.59ZM130.17 170.84C131.377 170.84 131.98 171.513 131.98 172.86V176H130.97V172.92C130.97 172.48 130.883 172.16 130.71 171.96C130.543 171.76 130.273 171.66 129.9 171.66C129.473 171.66 129.13 171.793 128.87 172.06C128.617 172.327 128.49 172.683 128.49 173.13V176H127.49V172.38C127.49 171.853 127.463 171.38 127.41 170.96H128.35L128.44 171.83C128.6 171.51 128.83 171.267 129.13 171.1C129.437 170.927 129.783 170.84 130.17 170.84Z" fill="#828282"/>
<rect x="0.5" y="0.5" width="135" height="195" rx="7.5" stroke="#828282" stroke-linejoin="round" stroke-dasharray="2 2"/>
<path fill-rule="evenodd" clip-rule="evenodd" d="M34.0979 81C40.2269 81 45.1937 76.075 45.1937 70C45.1937 63.925 40.2269 59 34.0979 59C27.9689 59 23 63.925 23 70C23 76.075 27.9689 81 34.0979 81ZM27.9502 69.4219C27.9645 73.5649 31.1371 76.1437 34.1853 76.1335L34.1852 76.1334C37.9491 76.1213 40.1755 73.0576 40.1674 70.2606C40.1572 67.4656 38.6239 65.4447 35.2454 64.6282C35.2373 64.5938 35.2312 64.519 35.2312 64.4484C35.2251 62.3364 36.8318 60.4732 38.8503 60.0589C38.6607 59.9942 38.3488 59.97 38.0511 59.97C35.743 59.9781 33.1964 60.9582 31.3369 62.482C29.4325 64.0462 27.94 66.6836 27.9502 69.4219Z" fill="#828282"/>
<path d="M52.3605 74.5554L48.9678 66.5303H51.1841L53.3005 71.8595L55.3516 66.5303H57.468L54.1752 74.5554H52.3605Z" fill="#828282"/>
<path d="M63.3726 70.5016C63.3726 70.1681 63.3339 69.8508 63.2544 69.5497C63.1769 69.2486 63.0586 68.9899 62.9016 68.7737C62.7447 68.5554 62.555 68.3836 62.3308 68.2563C62.1065 68.1269 61.8434 68.0623 61.5417 68.0623C61.2399 68.0623 60.9749 68.127 60.7526 68.2563C60.5283 68.3836 60.3367 68.5554 60.1817 68.7737C60.0247 68.9899 59.9065 69.2486 59.829 69.5497C59.7495 69.8508 59.7107 70.1681 59.7107 70.5016C59.7107 70.8471 59.7495 71.1685 59.829 71.4635C59.9065 71.7586 60.0207 72.0173 60.1715 72.2396C60.3224 72.4619 60.5141 72.6377 60.7445 72.767C60.9728 72.8943 61.2399 72.959 61.5417 72.959C61.8434 72.959 62.1065 72.8943 62.3308 72.767C62.555 72.6377 62.7447 72.4619 62.9016 72.2396C63.0586 72.0173 63.1769 71.7586 63.2544 71.4635C63.3339 71.1685 63.3726 70.8471 63.3726 70.5016ZM65.4218 70.5104C65.4218 71.0338 65.3402 71.5471 65.1791 72.0523C65.016 72.5576 64.7754 73.0082 64.4553 73.4084C64.1372 73.8085 63.7335 74.1299 63.2462 74.3744C62.7589 74.6189 62.1901 74.7402 61.5417 74.7402C60.8913 74.7402 60.3224 74.6189 59.8372 74.3744C59.3498 74.1299 58.9461 73.8085 58.626 73.4084C58.308 73.0082 58.0674 72.5576 57.9043 72.0523C57.7432 71.5471 57.6616 71.0338 57.6616 70.5104C57.6616 69.989 57.7432 69.4797 57.9043 68.9785C58.0674 68.4793 58.308 68.0327 58.626 67.6386C58.9461 67.2445 59.3498 66.9292 59.8372 66.6908C60.3224 66.4523 60.8913 66.3311 61.5417 66.3311C62.1901 66.3311 62.7569 66.4523 63.2381 66.6908C63.7193 66.9292 64.123 67.2445 64.4472 67.6386C64.7734 68.0327 65.016 68.4793 65.1791 68.9785C65.3402 69.4797 65.4218 69.989 65.4218 70.5104Z" fill="#828282"/>
<path d="M71.6796 68.2964C71.2779 68.1408 70.9048 68.062 70.5582 68.062C70.2034 68.062 69.8955 68.1308 69.6407 68.2641C69.3838 68.3974 69.1717 68.5773 69.0045 68.8057C68.8373 69.0341 68.7129 69.2907 68.6294 69.5757C68.5458 69.8586 68.5029 70.1517 68.5029 70.4528C68.5029 70.7862 68.5396 71.1055 68.613 71.4127C68.6844 71.7179 68.7965 71.9867 68.9474 72.215C69.0963 72.4434 69.2859 72.6273 69.5142 72.7667C69.7426 72.9042 70.0138 72.9749 70.3257 72.9749C70.5826 72.9749 70.8436 72.9042 71.1107 72.7667C71.3778 72.6273 71.5674 72.4616 71.6796 72.2736L71.6796 68.2964ZM71.8468 74.5553L71.7632 73.9409C71.5736 74.1511 71.3228 74.337 71.0088 74.4967C70.6968 74.6583 70.3278 74.7392 69.9037 74.7392C69.3471 74.7392 68.8536 74.622 68.4316 74.3896C68.0054 74.1572 67.6486 73.8459 67.3591 73.4579C67.0696 73.0699 66.8473 72.6192 66.6965 72.1079C66.5476 71.5986 66.4722 71.0651 66.4722 70.5094C66.4722 69.988 66.5497 69.4766 66.7046 68.9775C66.8616 68.4783 67.0981 68.0317 67.4162 67.6376C67.7363 67.2435 68.1339 66.9282 68.6151 66.6898C69.0942 66.4513 69.659 66.33 70.3053 66.33C70.7294 66.33 71.1882 66.4088 71.6796 66.5624V63.4502H73.7613V74.5553H71.8468Z" fill="#828282"/>
<path d="M79.6248 70.7923C79.4005 70.8041 79.1681 70.8247 78.9316 70.851C78.695 70.8793 78.4708 70.9157 78.2567 70.9601C77.804 71.049 77.4921 71.2006 77.3167 71.4168C77.1434 71.6351 77.0557 71.8695 77.0557 72.1262C77.0557 72.3909 77.1536 72.6052 77.3514 72.7668C77.5492 72.9265 77.8265 73.0073 78.1874 73.0073C78.4585 73.0073 78.7215 72.9527 78.9744 72.8416C79.2272 72.7304 79.4454 72.591 79.6248 72.4253V70.7923ZM79.792 74.5493L79.7104 73.949C79.4841 74.1956 79.1987 74.3896 78.85 74.5291C78.5014 74.6685 78.1201 74.7392 77.7041 74.7392C77.3555 74.7392 77.019 74.6806 76.701 74.5634C76.3788 74.4483 76.0954 74.2805 75.8487 74.0642C75.602 73.848 75.4022 73.5833 75.2513 73.266C75.0984 72.9487 75.0229 72.591 75.0229 72.1908C75.0229 71.7927 75.1004 71.439 75.2595 71.1339C75.4165 70.8287 75.6285 70.572 75.8997 70.3599C76.1688 70.1497 76.4787 69.9779 76.8274 69.8445C77.174 69.7112 77.541 69.6101 77.9223 69.5434C78.1914 69.4888 78.4871 69.4483 78.8072 69.42C79.1273 69.3917 79.3944 69.3675 79.6085 69.3453V69.2281C79.6085 68.7835 79.4943 68.4682 79.2619 68.2782C79.0315 68.0903 78.7134 67.9953 78.3097 67.9953C78.0732 67.9953 77.8469 68.0236 77.6328 68.0802C77.4187 68.1348 77.2291 68.2035 77.0598 68.2863C76.8906 68.3713 76.7418 68.4541 76.6113 68.537C76.4828 68.6198 76.3788 68.6946 76.2993 68.7613L75.6102 67.3143C75.6999 67.2355 75.8365 67.1425 76.022 67.0313C76.2076 66.9202 76.4298 66.811 76.6949 66.706C76.9579 66.6008 77.2535 66.5119 77.5838 66.4392C77.9141 66.3665 78.2709 66.3301 78.6502 66.3301C79.0988 66.3301 79.5086 66.3888 79.8776 66.5059C80.2467 66.6231 80.5668 66.805 80.8359 67.0556C81.103 67.3042 81.313 67.6195 81.4659 68.0034C81.6168 68.3854 81.6923 68.8482 81.6923 69.3918V74.5493H79.792Z" fill="#828282"/>
<path d="M88.1276 65.2807C88.0603 65.2484 87.9298 65.1999 87.7341 65.1391C87.5363 65.0786 87.2774 65.0482 86.9512 65.0482C86.6616 65.0482 86.417 65.1352 86.2212 65.3069C86.0255 65.4787 85.9276 65.7596 85.9276 66.1476V66.5296H87.675V68.1948H85.9439V74.5547H83.8602V68.1948H82.7856V66.5296H83.8602V66.0971C83.8602 65.5757 83.9274 65.1351 84.062 64.7734C84.1966 64.4137 84.3842 64.1186 84.6248 63.8922C84.8653 63.6639 85.1487 63.4961 85.4729 63.391C85.7992 63.2859 86.1519 63.2334 86.5332 63.2334C87.0368 63.2334 87.4527 63.2799 87.783 63.3749C88.1133 63.4699 88.307 63.5326 88.3621 63.5669L88.1276 65.2807Z" fill="#828282"/>
<path d="M93.8062 70.5016C93.8062 70.1681 93.7655 69.8508 93.688 69.5497C93.6105 69.2486 93.4922 68.9899 93.3352 68.7737C93.1783 68.5554 92.9886 68.3836 92.7644 68.2563C92.5401 68.1269 92.277 68.0623 91.9753 68.0623C91.6735 68.0623 91.4085 68.127 91.1862 68.2563C90.9619 68.3836 90.7703 68.5554 90.6133 68.7737C90.4583 68.9899 90.3401 69.2486 90.2605 69.5497C90.1831 69.8508 90.1443 70.1681 90.1443 70.5016C90.1443 70.8471 90.1831 71.1685 90.2605 71.4635C90.3401 71.7586 90.4542 72.0173 90.6051 72.2396C90.756 72.4619 90.9477 72.6377 91.176 72.767C91.4064 72.8943 91.6735 72.959 91.9753 72.959C92.277 72.959 92.5401 72.8943 92.7644 72.767C92.9886 72.6377 93.1783 72.4619 93.3352 72.2396C93.4922 72.0173 93.6105 71.7586 93.688 71.4635C93.7655 71.1685 93.8062 70.8471 93.8062 70.5016ZM95.8554 70.5104C95.8554 71.0338 95.7738 71.5471 95.6107 72.0523C95.4496 72.5576 95.209 73.0082 94.8889 73.4084C94.5708 73.8085 94.1671 74.1299 93.6798 74.3744C93.1925 74.6189 92.6237 74.7402 91.9753 74.7402C91.3249 74.7402 90.756 74.6189 90.2707 74.3744C89.7834 74.1299 89.3797 73.8085 89.0596 73.4084C88.7416 73.0082 88.501 72.5576 88.3379 72.0523C88.1747 71.5471 88.0952 71.0338 88.0952 70.5104C88.0952 69.989 88.1747 69.4797 88.3379 68.9785C88.501 68.4793 88.7416 68.0327 89.0596 67.6386C89.3797 67.2445 89.7834 66.9292 90.2707 66.6908C90.756 66.4523 91.3249 66.3311 91.9753 66.3311C92.6237 66.3311 93.1905 66.4523 93.6717 66.6908C94.1529 66.9292 94.5566 67.2445 94.8808 67.6386C95.207 68.0327 95.4496 68.4793 95.6107 68.9785C95.7738 69.4797 95.8554 69.989 95.8554 70.5104Z" fill="#828282"/>
<path d="M102.32 74.5552V69.9778C102.32 69.3675 102.192 68.8946 101.935 68.5611C101.676 68.2297 101.319 68.062 100.858 68.062C100.534 68.062 100.234 68.1448 99.961 68.3125C99.6857 68.4783 99.4472 68.6622 99.2453 68.8622V74.5552H97.1636V66.5301H99.0618L99.1617 67.1626C99.4879 66.8979 99.8529 66.6918 100.263 66.5483C100.671 66.4028 101.082 66.332 101.496 66.332C101.922 66.332 102.314 66.3947 102.673 66.522C103.032 66.6513 103.339 66.8534 103.596 67.1303C103.855 67.4072 104.053 67.7689 104.194 68.2115C104.332 68.6561 104.404 69.1896 104.404 69.8101V74.5552H102.32Z" fill="#828282"/>
<path d="M110.883 69.5778C110.861 69.3009 110.802 69.0584 110.706 68.8543C110.61 68.6481 110.492 68.4824 110.351 68.3551C110.211 68.2257 110.06 68.1328 109.897 68.0701C109.731 68.0096 109.566 67.9792 109.397 67.9792C109.036 67.9792 108.694 68.1125 108.367 68.3794C108.041 68.6461 107.849 69.0442 107.792 69.5778H110.883ZM107.743 71.0591C107.788 71.7361 108 72.2252 108.384 72.5243C108.765 72.8234 109.26 72.975 109.866 72.975C110.147 72.975 110.412 72.9487 110.659 72.9002C110.906 72.8497 111.126 72.787 111.318 72.7082C111.509 72.6314 111.672 72.5526 111.807 72.4758C111.942 72.397 112.042 72.3242 112.111 72.2575L112.665 73.941C112.586 73.9955 112.459 74.0703 112.286 74.1653C112.113 74.2603 111.897 74.3472 111.64 74.4321C111.383 74.5149 111.079 74.5857 110.733 74.6483C110.386 74.7089 110.005 74.7392 109.591 74.7392C109.063 74.7392 108.563 74.6564 108.086 74.4906C107.611 74.3229 107.193 74.0642 106.836 73.7146C106.477 73.365 106.192 72.9305 105.98 72.4091C105.766 71.8877 105.66 71.2652 105.66 70.5438C105.66 69.8667 105.758 69.2665 105.953 68.7451C106.149 68.2237 106.418 67.7851 106.759 67.4295C107.101 67.0758 107.499 66.803 107.951 66.613C108.406 66.4251 108.889 66.3301 109.405 66.3301C109.921 66.3301 110.396 66.415 110.834 66.5807C111.271 66.7464 111.648 67.0051 111.968 67.3547C112.286 67.7043 112.539 68.157 112.723 68.7128C112.908 69.2665 113 69.9274 113 70.6933V71.0591L107.743 71.0591Z" fill="#828282"/>
<path d="M34.3932 110.032H38.2432C39.3352 110.032 40.2732 110.228 41.0572 110.62C41.8412 111.012 42.4386 111.581 42.8492 112.328C43.2692 113.075 43.4792 113.966 43.4792 115.002C43.4792 116.047 43.2739 116.943 42.8632 117.69C42.4526 118.437 41.8552 119.011 41.0712 119.412C40.2872 119.804 39.3446 120 38.2432 120H34.3932V110.032ZM38.1032 118.236C40.2312 118.236 41.2952 117.158 41.2952 115.002C41.2952 112.865 40.2312 111.796 38.1032 111.796H36.5772V118.236H38.1032ZM49.38 120.126C48.624 120.126 47.896 120.028 47.196 119.832C46.5053 119.627 45.9313 119.342 45.474 118.978L46.174 117.41C47.1353 118.082 48.2087 118.418 49.394 118.418C50.0287 118.418 50.514 118.32 50.85 118.124C51.1953 117.919 51.368 117.634 51.368 117.27C51.368 116.953 51.2093 116.705 50.892 116.528C50.584 116.341 50.038 116.164 49.254 115.996C48.3767 115.819 47.6767 115.604 47.154 115.352C46.6407 115.091 46.2627 114.778 46.02 114.414C45.7867 114.041 45.67 113.579 45.67 113.028C45.67 112.431 45.8333 111.894 46.16 111.418C46.496 110.942 46.9627 110.573 47.56 110.312C48.1573 110.041 48.848 109.906 49.632 109.906C50.3413 109.906 51.0227 110.009 51.676 110.214C52.3293 110.419 52.852 110.699 53.244 111.054L52.544 112.622C51.6667 111.95 50.7007 111.614 49.646 111.614C49.086 111.614 48.638 111.726 48.302 111.95C47.966 112.174 47.798 112.477 47.798 112.86C47.798 113.084 47.8587 113.271 47.98 113.42C48.1107 113.569 48.3253 113.705 48.624 113.826C48.9227 113.938 49.3473 114.05 49.898 114.162C51.1767 114.442 52.096 114.806 52.656 115.254C53.2253 115.702 53.51 116.313 53.51 117.088C53.51 118.021 53.146 118.763 52.418 119.314C51.69 119.855 50.6773 120.126 49.38 120.126ZM55.7952 110.032H57.9792V118.222H62.4312V120H55.7952V110.032ZM75.7534 116.668H73.0374V119.398H71.5814V116.668H68.8654V115.226H71.5814V112.496H73.0374V115.226H75.7534V116.668ZM85.1314 111.81H82.0094V110.032H90.4654V111.81H87.3434V120H85.1314V111.81ZM102.106 110.032L97.6259 120H95.8759L91.3959 110.032H93.6639L96.7719 117.27L99.9079 110.032H102.106Z" fill="#828282"/>
<mask id="path-13-inside-1" fill="white">
<path fill-rule="evenodd" clip-rule="evenodd" d="M68 8C65.7909 8 64 9.79086 64 12V14H56C53.7909 14 52 15.7909 52 18C52 20.2091 53.7909 22 56 22H68H80C82.2091 22 84 20.2091 84 18C84 15.7909 82.2091 14 80 14H72V12C72 9.79086 70.2091 8 68 8Z"/>
</mask>
<path fill-rule="evenodd" clip-rule="evenodd" d="M68 8C65.7909 8 64 9.79086 64 12V14H56C53.7909 14 52 15.7909 52 18C52 20.2091 53.7909 22 56 22H68H80C82.2091 22 84 20.2091 84 18C84 15.7909 82.2091 14 80 14H72V12C72 9.79086 70.2091 8 68 8Z" fill="#F2F2F2"/>
<path d="M64 14V14.5C64.2761 14.5 64.5 14.2761 64.5 14H64ZM72 14H71.5C71.5 14.2761 71.7239 14.5 72 14.5V14ZM63.5 12V12.5H64.5V12H63.5ZM63.5 13.5V14H64.5V13.5H63.5ZM64 13.5H63V14.5H64V13.5ZM61 13.5H59V14.5H61V13.5ZM57 13.5H56V14.5H57V13.5ZM56 13.5C55.7001 13.5 55.4066 13.5294 55.1223 13.5856L55.3164 14.5666C55.5371 14.523 55.7656 14.5 56 14.5V13.5ZM53.4994 14.2583C53.0089 14.5866 52.5866 15.0089 52.2583 15.4994L53.0892 16.0557C53.3449 15.6738 53.6738 15.3449 54.0557 15.0892L53.4994 14.2583ZM51.5856 17.1223C51.5294 17.4066 51.5 17.7001 51.5 18H52.5C52.5 17.7656 52.523 17.5371 52.5666 17.3164L51.5856 17.1223ZM51.5 18C51.5 18.2999 51.5294 18.5934 51.5856 18.8777L52.5666 18.6836C52.523 18.4629 52.5 18.2344 52.5 18H51.5ZM52.2583 20.5006C52.5866 20.9911 53.0089 21.4134 53.4994 21.7417L54.0557 20.9108C53.6738 20.6551 53.3449 20.3262 53.0892 19.9443L52.2583 20.5006ZM55.1223 22.4144C55.4066 22.4706 55.7001 22.5 56 22.5V21.5C55.7656 21.5 55.5371 21.477 55.3164 21.4334L55.1223 22.4144ZM56 22.5H57V21.5H56V22.5ZM59 22.5H61V21.5H59V22.5ZM63 22.5H65V21.5H63V22.5ZM67 22.5H68V21.5H67V22.5ZM68 22.5H69V21.5H68V22.5ZM71 22.5H73V21.5H71V22.5ZM75 22.5H77V21.5H75V22.5ZM79 22.5H80V21.5H79V22.5ZM80 22.5C80.2999 22.5 80.5934 22.4706 80.8777 22.4144L80.6836 21.4334C80.4629 21.477 80.2344 21.5 80 21.5V22.5ZM82.5006 21.7417C82.9911 21.4134 83.4134 20.9911 83.7417 20.5006L82.9108 19.9443C82.6551 20.3262 82.3262 20.6551 81.9443 20.9108L82.5006 21.7417ZM84.4144 18.8777C84.4706 18.5934 84.5 18.2999 84.5 18H83.5C83.5 18.2344 83.477 18.4629 83.4334 18.6836L84.4144 18.8777ZM84.5 18C84.5 17.7001 84.4706 17.4066 84.4144 17.1223L83.4334 17.3164C83.477 17.5371 83.5 17.7656 83.5 18H84.5ZM83.7417 15.4994C83.4134 15.0089 82.9911 14.5866 82.5006 14.2583L81.9443 15.0892C82.3262 15.3449 82.6551 15.6738 82.9108 16.0557L83.7417 15.4994ZM80.8777 13.5856C80.5934 13.5294 80.2999 13.5 80 13.5V14.5C80.2344 14.5 80.4629 14.523 80.6836 14.5666L80.8777 13.5856ZM80 13.5H79V14.5H80V13.5ZM77 13.5H75V14.5H77V13.5ZM73 13.5H72V14.5H73V13.5ZM72.5 14V13.5H71.5V14H72.5ZM72.5 12.5V12H71.5V12.5H72.5ZM72.5 12C72.5 11.7001 72.4706 11.4066 72.4144 11.1223L71.4334 11.3164C71.477 11.5371 71.5 11.7656 71.5 12H72.5ZM71.7417 9.49938C71.4134 9.00886 70.9911 8.58665 70.5006 8.25825L69.9443 9.08922C70.3262 9.3449 70.6551 9.6738 70.9108 10.0557L71.7417 9.49938ZM68.8777 7.58564C68.5934 7.52941 68.2999 7.5 68 7.5V8.5C68.2344 8.5 68.4629 8.52297 68.6836 8.56663L68.8777 7.58564ZM68 7.5C67.7001 7.5 67.4066 7.52941 67.1223 7.58564L67.3164 8.56663C67.5371 8.52297 67.7656 8.5 68 8.5V7.5ZM65.4994 8.25825C65.0089 8.58665 64.5866 9.00886 64.2583 9.49938L65.0892 10.0557C65.3449 9.6738 65.6738 9.3449 66.0557 9.08922L65.4994 8.25825ZM63.5856 11.1223C63.5294 11.4066 63.5 11.7001 63.5 12H64.5C64.5 11.7656 64.523 11.5371 64.5666 11.3164L63.5856 11.1223ZM64 14V15C64.5523 15 65 14.5523 65 14H64ZM72 14H71C71 14.5523 71.4477 15 72 15V14ZM63 12V12.5H65V12H63ZM63 13.5V14H65V13.5H63ZM64 13H63V15H64V13ZM61 13H59V15H61V13ZM57 13H56V15H57V13ZM56 13C55.6674 13 55.3413 13.0326 55.0253 13.0951L55.4134 15.0571C55.6023 15.0198 55.7984 15 56 15V13ZM53.2212 13.8428C52.6764 14.2075 52.2075 14.6764 51.8428 15.2212L53.5047 16.3339C53.724 16.0063 54.0063 15.724 54.3339 15.5047L53.2212 13.8428ZM51.0951 17.0253C51.0326 17.3413 51 17.6674 51 18H53C53 17.7984 53.0198 17.6023 53.0571 17.4134L51.0951 17.0253ZM51 18C51 18.3326 51.0326 18.6587 51.0951 18.9747L53.0571 18.5866C53.0198 18.3977 53 18.2016 53 18H51ZM51.8428 20.7788C52.2075 21.3236 52.6764 21.7925 53.2212 22.1572L54.3339 20.4953C54.0063 20.276 53.724 19.9937 53.5047 19.6661L51.8428 20.7788ZM55.0253 22.9049C55.3413 22.9674 55.6674 23 56 23V21C55.7984 21 55.6023 20.9802 55.4134 20.9429L55.0253 22.9049ZM56 23H57V21H56V23ZM59 23H61V21H59V23ZM63 23H65V21H63V23ZM67 23H68V21H67V23ZM68 23H69V21H68V23ZM71 23H73V21H71V23ZM75 23H77V21H75V23ZM79 23H80V21H79V23ZM80 23C80.3326 23 80.6587 22.9674 80.9747 22.9049L80.5866 20.9429C80.3977 20.9802 80.2016 21 80 21V23ZM82.7788 22.1572C83.3236 21.7925 83.7925 21.3236 84.1572 20.7788L82.4953 19.6661C82.276 19.9937 81.9937 20.276 81.6661 20.4953L82.7788 22.1572ZM84.9049 18.9747C84.9674 18.6587 85 18.3326 85 18H83C83 18.2016 82.9802 18.3977 82.9429 18.5866L84.9049 18.9747ZM85 18C85 17.6674 84.9674 17.3413 84.9049 17.0253L82.9429 17.4134C82.9802 17.6023 83 17.7984 83 18H85ZM84.1572 15.2212C83.7925 14.6764 83.3236 14.2075 82.7788 13.8428L81.6661 15.5047C81.9937 15.724 82.276 16.0063 82.4953 16.3339L84.1572 15.2212ZM80.9747 13.0951C80.6587 13.0326 80.3326 13 80 13V15C80.2016 15 80.3977 15.0198 80.5866 15.0571L80.9747 13.0951ZM80 13H79V15H80V13ZM77 13H75V15H77V13ZM73 13H72V15H73V13ZM73 14V13.5H71V14H73ZM73 12.5V12H71V12.5H73ZM73 12C73 11.6674 72.9674 11.3413 72.9049 11.0253L70.9429 11.4134C70.9802 11.6023 71 11.7984 71 12H73ZM72.1572 9.22122C71.7925 8.67639 71.3236 8.20752 70.7788 7.84277L69.6661 9.50471C69.9937 9.72402 70.276 10.0063 70.4953 10.3339L72.1572 9.22122ZM68.9747 7.09515C68.6587 7.03262 68.3326 7 68 7V9C68.2016 9 68.3977 9.01975 68.5866 9.05712L68.9747 7.09515ZM68 7C67.6674 7 67.3413 7.03262 67.0253 7.09515L67.4134 9.05712C67.6023 9.01975 67.7984 9 68 9V7ZM65.2212 7.84277C64.6764 8.20752 64.2075 8.67639 63.8428 9.22122L65.5047 10.3339C65.724 10.0063 66.0063 9.72402 66.3339 9.50471L65.2212 7.84277ZM63.0951 11.0253C63.0326 11.3413 63 11.6674 63 12H65C65 11.7984 65.0198 11.6023 65.0571 11.4134L63.0951 11.0253Z" fill="#828282" mask="url(#path-13-inside-1)"/>
<path d="M84.7893 156.542L77.0226 148L75 150.223L82.7667 158.769C82.8331 158.842 82.912 158.9 82.9989 158.94C83.0857 158.98 83.1788 159 83.2728 159C83.3668 159 83.4599 158.98 83.5467 158.94C83.6336 158.9 83.7125 158.842 83.7789 158.769L84.7911 157.655C84.8575 157.582 84.9101 157.495 84.946 157.4C84.9818 157.304 85.0002 157.202 85 157.098C84.9998 156.995 84.9811 156.892 84.945 156.797C84.9088 156.701 84.8559 156.615 84.7893 156.542Z" fill="#E60000"/>
<path d="M75.4081 146.91L73.3457 149.031L74.8925 150.622L76.9549 148.501L75.4081 146.91Z" fill="#4A4D4E"/>
<path opacity="0.12" d="M84.7948 157.45L83.7821 158.443C83.7156 158.509 83.6366 158.56 83.5498 158.596C83.4629 158.631 83.3697 158.649 83.2757 158.649C83.1816 158.649 83.0885 158.631 83.0016 158.596C82.9147 158.56 82.8358 158.509 82.7693 158.443L75.1789 151L75 151.175L82.7711 158.794C82.8375 158.859 82.9165 158.911 83.0034 158.947C83.0903 158.982 83.1834 159 83.2775 159C83.3715 159 83.4647 158.982 83.5515 158.947C83.6384 158.911 83.7174 158.859 83.7838 158.794L84.7966 157.801C84.8833 157.714 84.9454 157.606 84.9768 157.489C85.0082 157.371 85.0077 157.247 84.9755 157.129C84.9454 157.25 84.883 157.361 84.7948 157.45Z" fill="#333333"/>
<path opacity="0.2" d="M84.7996 156.479L77.3829 147.714L75.9323 146L74 148.284L75.4471 149.994L82.8672 158.763C82.9307 158.838 83.0061 158.898 83.089 158.938C83.172 158.979 83.2609 159 83.3507 159C83.4405 159 83.5295 158.979 83.6124 158.938C83.6954 158.898 83.7708 158.838 83.8342 158.763L84.8013 157.62C84.9289 157.469 85.0003 157.263 85 157.049C84.9997 156.836 84.9276 156.631 84.7996 156.479Z" fill="url(#paint0_linear)"/>
<path d="M66.5 131C64.8189 131 63.1755 131.528 61.7777 132.517C60.3798 133.506 59.2904 134.911 58.647 136.556C58.0037 138.2 57.8354 140.01 58.1633 141.756C58.4913 143.502 59.3008 145.105 60.4896 146.364C61.6783 147.623 63.1929 148.48 64.8417 148.827C66.4906 149.174 68.1996 148.996 69.7528 148.315C71.306 147.634 72.6335 146.48 73.5675 145C74.5015 143.52 75 141.78 75 140C74.9973 137.614 74.1009 135.326 72.5074 133.639C70.914 131.952 68.7535 131.003 66.5 131Z" fill="#EBEBEB"/>
<path d="M67 129C64.8244 129 62.6977 129.645 60.8887 130.854C59.0798 132.063 57.6699 133.78 56.8373 135.79C56.0048 137.8 55.7869 140.012 56.2114 142.146C56.6358 144.28 57.6835 146.24 59.2218 147.778C60.7602 149.317 62.7202 150.364 64.854 150.789C66.9878 151.213 69.1995 150.995 71.2095 150.163C73.2195 149.33 74.9375 147.92 76.1462 146.111C77.3549 144.302 78 142.176 78 140C77.9966 137.084 76.8366 134.288 74.7744 132.226C72.7123 130.163 69.9163 129.003 67 129ZM67 149.167C65.187 149.167 63.4147 148.629 61.9073 147.622C60.3998 146.615 59.2249 145.183 58.5311 143.508C57.8373 141.833 57.6558 139.99 58.0095 138.212C58.3632 136.434 59.2362 134.8 60.5182 133.518C61.8002 132.236 63.4335 131.363 65.2117 131.009C66.9898 130.656 68.8329 130.837 70.5079 131.531C72.1829 132.225 73.6146 133.4 74.6218 134.907C75.6291 136.415 76.1667 138.187 76.1667 140C76.1638 142.43 75.1971 144.76 73.4786 146.479C71.7601 148.197 69.4303 149.164 67 149.167Z" fill="#EBEBEB"/>
<path opacity="0.06" d="M67 129C64.8244 129 62.6977 129.645 60.8887 130.854C59.0798 132.063 57.6699 133.78 56.8373 135.79C56.0048 137.8 55.7869 140.012 56.2114 142.146C56.6358 144.28 57.6835 146.24 59.2218 147.778C60.7602 149.317 62.7202 150.364 64.854 150.789C66.9878 151.213 69.1995 150.995 71.2095 150.163C73.2195 149.33 74.9375 147.92 76.1462 146.111C77.3549 144.302 78 142.176 78 140C77.9966 137.084 76.8366 134.288 74.7744 132.226C72.7123 130.163 69.9163 129.003 67 129ZM67 149.167C65.187 149.167 63.4147 148.629 61.9073 147.622C60.3998 146.615 59.2249 145.183 58.5311 143.508C57.8373 141.833 57.6558 139.99 58.0095 138.212C58.3632 136.434 59.2362 134.8 60.5182 133.518C61.8002 132.236 63.4335 131.363 65.2117 131.009C66.9898 130.656 68.8329 130.837 70.5079 131.531C72.1829 132.225 73.6146 133.4 74.6218 134.907C75.6291 136.415 76.1667 138.187 76.1667 140C76.1638 142.43 75.1971 144.76 73.4786 146.479C71.7601 148.197 69.4303 149.164 67 149.167Z" fill="#333333"/>
<path opacity="0.06" d="M66.5 131C64.2465 131.003 62.086 131.933 60.4926 133.587C58.8991 135.242 58.0027 137.484 58 139.824C58 139.884 58 139.942 58 140C58 137.66 58.8955 135.416 60.4896 133.761C62.0837 132.106 64.2457 131.176 66.5 131.176C68.7543 131.176 70.9163 132.106 72.5104 133.761C74.1045 135.416 75 137.66 75 140C75 139.942 75 139.884 75 139.824C74.9973 137.484 74.1009 135.242 72.5074 133.587C70.914 131.933 68.7535 131.003 66.5 131Z" fill="#333333"/>
<path opacity="0.06" d="M67 150.639C64.115 150.637 61.3461 149.521 59.289 147.531C57.2319 145.542 56.0509 142.837 56 140C56 140.06 56 140.119 56 140.18C56 143.05 57.1589 145.802 59.2218 147.831C61.2847 149.86 64.0826 151 67 151C69.9174 151 72.7153 149.86 74.7782 147.831C76.8411 145.802 78 143.05 78 140.18C78 140.119 78 140.06 78 140C77.9491 142.837 76.7681 145.542 74.711 147.531C72.6539 149.521 69.885 150.637 67 150.639Z" fill="#333333"/>
<path d="M71.7711 133.477C70.4938 132.483 68.9766 131.968 67.4303 132.002C65.8839 132.036 64.3853 132.617 63.1427 133.666C63.0798 133.719 63.0341 133.794 63.013 133.88C62.9919 133.965 62.9966 134.056 63.0263 134.139C63.056 134.221 63.109 134.29 63.1768 134.333C63.2447 134.377 63.3235 134.394 63.4008 134.381C65.7652 134.017 68.1642 134.666 70.1329 136.201C72.1017 137.736 73.5 140.05 74.0572 142.692C74.0749 142.778 74.1172 142.855 74.1777 142.911C74.2381 142.967 74.3131 142.998 74.3909 143C74.4686 143.002 74.5446 142.974 74.6069 142.921C74.6692 142.868 74.7143 142.793 74.7349 142.707C75.1439 141.009 75.0783 139.207 74.5472 137.553C74.016 135.899 73.0457 134.474 71.7711 133.477Z" fill="url(#paint1_linear)"/>
<path d="M84.7893 156.542L77.0226 148L75 150.223L82.7667 158.769C82.8331 158.842 82.912 158.9 82.9989 158.94C83.0857 158.98 83.1788 159 83.2728 159C83.3668 159 83.4599 158.98 83.5467 158.94C83.6336 158.9 83.7125 158.842 83.7789 158.769L84.7911 157.655C84.8575 157.582 84.9101 157.495 84.946 157.4C84.9818 157.304 85.0002 157.202 85 157.098C84.9998 156.995 84.9811 156.892 84.945 156.797C84.9088 156.701 84.8559 156.615 84.7893 156.542Z" fill="#E60000"/>
<path d="M75.4081 146.91L73.3457 149.031L74.8925 150.622L76.9549 148.501L75.4081 146.91Z" fill="#4A4D4E"/>
<path opacity="0.12" d="M84.7948 157.45L83.7821 158.443C83.7156 158.509 83.6366 158.56 83.5498 158.596C83.4629 158.631 83.3697 158.649 83.2757 158.649C83.1816 158.649 83.0885 158.631 83.0016 158.596C82.9147 158.56 82.8358 158.509 82.7693 158.443L75.1789 151L75 151.175L82.7711 158.794C82.8375 158.859 82.9165 158.911 83.0034 158.947C83.0903 158.982 83.1834 159 83.2775 159C83.3715 159 83.4647 158.982 83.5515 158.947C83.6384 158.911 83.7174 158.859 83.7838 158.794L84.7966 157.801C84.8833 157.714 84.9454 157.606 84.9768 157.489C85.0082 157.371 85.0077 157.247 84.9755 157.129C84.9454 157.25 84.883 157.361 84.7948 157.45Z" fill="#333333"/>
<path opacity="0.2" d="M84.7996 156.479L77.3829 147.714L75.9323 146L74 148.284L75.4471 149.994L82.8672 158.763C82.9307 158.838 83.0061 158.898 83.089 158.938C83.172 158.979 83.2609 159 83.3507 159C83.4405 159 83.5295 158.979 83.6124 158.938C83.6954 158.898 83.7708 158.838 83.8342 158.763L84.8013 157.62C84.9289 157.469 85.0003 157.263 85 157.049C84.9997 156.836 84.9276 156.631 84.7996 156.479Z" fill="url(#paint2_linear)"/>
<path d="M66.5 131C64.8189 131 63.1755 131.528 61.7777 132.517C60.3798 133.506 59.2904 134.911 58.647 136.556C58.0037 138.2 57.8354 140.01 58.1633 141.756C58.4913 143.502 59.3008 145.105 60.4896 146.364C61.6783 147.623 63.1929 148.48 64.8417 148.827C66.4906 149.174 68.1996 148.996 69.7528 148.315C71.306 147.634 72.6335 146.48 73.5675 145C74.5015 143.52 75 141.78 75 140C74.9973 137.614 74.1009 135.326 72.5074 133.639C70.914 131.952 68.7535 131.003 66.5 131Z" fill="#EBEBEB"/>
<path d="M67 129C64.8244 129 62.6977 129.645 60.8887 130.854C59.0798 132.063 57.6699 133.78 56.8373 135.79C56.0048 137.8 55.7869 140.012 56.2114 142.146C56.6358 144.28 57.6835 146.24 59.2218 147.778C60.7602 149.317 62.7202 150.364 64.854 150.789C66.9878 151.213 69.1995 150.995 71.2095 150.163C73.2195 149.33 74.9375 147.92 76.1462 146.111C77.3549 144.302 78 142.176 78 140C77.9966 137.084 76.8366 134.288 74.7744 132.226C72.7123 130.163 69.9163 129.003 67 129ZM67 149.167C65.187 149.167 63.4147 148.629 61.9073 147.622C60.3998 146.615 59.2249 145.183 58.5311 143.508C57.8373 141.833 57.6558 139.99 58.0095 138.212C58.3632 136.434 59.2362 134.8 60.5182 133.518C61.8002 132.236 63.4335 131.363 65.2117 131.009C66.9898 130.656 68.8329 130.837 70.5079 131.531C72.1829 132.225 73.6146 133.4 74.6218 134.907C75.6291 136.415 76.1667 138.187 76.1667 140C76.1638 142.43 75.1971 144.76 73.4786 146.479C71.7601 148.197 69.4303 149.164 67 149.167Z" fill="#EBEBEB"/>
<path opacity="0.06" d="M67 129C64.8244 129 62.6977 129.645 60.8887 130.854C59.0798 132.063 57.6699 133.78 56.8373 135.79C56.0048 137.8 55.7869 140.012 56.2114 142.146C56.6358 144.28 57.6835 146.24 59.2218 147.778C60.7602 149.317 62.7202 150.364 64.854 150.789C66.9878 151.213 69.1995 150.995 71.2095 150.163C73.2195 149.33 74.9375 147.92 76.1462 146.111C77.3549 144.302 78 142.176 78 140C77.9966 137.084 76.8366 134.288 74.7744 132.226C72.7123 130.163 69.9163 129.003 67 129ZM67 149.167C65.187 149.167 63.4147 148.629 61.9073 147.622C60.3998 146.615 59.2249 145.183 58.5311 143.508C57.8373 141.833 57.6558 139.99 58.0095 138.212C58.3632 136.434 59.2362 134.8 60.5182 133.518C61.8002 132.236 63.4335 131.363 65.2117 131.009C66.9898 130.656 68.8329 130.837 70.5079 131.531C72.1829 132.225 73.6146 133.4 74.6218 134.907C75.6291 136.415 76.1667 138.187 76.1667 140C76.1638 142.43 75.1971 144.76 73.4786 146.479C71.7601 148.197 69.4303 149.164 67 149.167Z" fill="#333333"/>
<path opacity="0.06" d="M66.5 131C64.2465 131.003 62.086 131.933 60.4926 133.587C58.8991 135.242 58.0027 137.484 58 139.824C58 139.884 58 139.942 58 140C58 137.66 58.8955 135.416 60.4896 133.761C62.0837 132.106 64.2457 131.176 66.5 131.176C68.7543 131.176 70.9163 132.106 72.5104 133.761C74.1045 135.416 75 137.66 75 140C75 139.942 75 139.884 75 139.824C74.9973 137.484 74.1009 135.242 72.5074 133.587C70.914 131.933 68.7535 131.003 66.5 131Z" fill="#333333"/>
<path opacity="0.06" d="M67 150.639C64.115 150.637 61.3461 149.521 59.289 147.531C57.2319 145.542 56.0509 142.837 56 140C56 140.06 56 140.119 56 140.18C56 143.05 57.1589 145.802 59.2218 147.831C61.2847 149.86 64.0826 151 67 151C69.9174 151 72.7153 149.86 74.7782 147.831C76.8411 145.802 78 143.05 78 140.18C78 140.119 78 140.06 78 140C77.9491 142.837 76.7681 145.542 74.711 147.531C72.6539 149.521 69.885 150.637 67 150.639Z" fill="#333333"/>
<path d="M71.7711 133.477C70.4938 132.483 68.9766 131.968 67.4303 132.002C65.8839 132.036 64.3853 132.617 63.1427 133.666C63.0798 133.719 63.0341 133.794 63.013 133.88C62.9919 133.965 62.9966 134.056 63.0263 134.139C63.056 134.221 63.109 134.29 63.1768 134.333C63.2447 134.377 63.3235 134.394 63.4008 134.381C65.7652 134.017 68.1642 134.666 70.1329 136.201C72.1017 137.736 73.5 140.05 74.0572 142.692C74.0749 142.778 74.1172 142.855 74.1777 142.911C74.2381 142.967 74.3131 142.998 74.3909 143C74.4686 143.002 74.5446 142.974 74.6069 142.921C74.6692 142.868 74.7143 142.793 74.7349 142.707C75.1439 141.009 75.0783 139.207 74.5472 137.553C74.016 135.899 73.0457 134.474 71.7711 133.477Z" fill="url(#paint3_linear)"/>
<defs>
<linearGradient id="paint0_linear" x1="74.9653" y1="147.143" x2="85.8638" y2="156.365" gradientUnits="userSpaceOnUse">
<stop/>
<stop offset="1" stop-opacity="0"/>
</linearGradient>
<linearGradient id="paint1_linear" x1="65.241" y1="131.269" x2="76.3136" y2="140.989" gradientUnits="userSpaceOnUse">
<stop stop-color="white"/>
<stop offset="1" stop-color="white" stop-opacity="0"/>
</linearGradient>
<linearGradient id="paint2_linear" x1="74.9653" y1="147.143" x2="85.8638" y2="156.365" gradientUnits="userSpaceOnUse">
<stop/>
<stop offset="1" stop-opacity="0"/>
</linearGradient>
<linearGradient id="paint3_linear" x1="65.241" y1="131.269" x2="76.3136" y2="140.989" gradientUnits="userSpaceOnUse">
<stop stop-color="white"/>
<stop offset="1" stop-color="white" stop-opacity="0"/>
</linearGradient>
</defs>
</svg>
