<svg width="24" height="24" viewBox="0 0 24 24" fill="none" xmlns="http://www.w3.org/2000/svg">
<path d="M7.625 8.5H13.5" stroke="#828282" stroke-width="1.5" stroke-linecap="round" stroke-linejoin="round"/>
<path d="M7.625 11.5H13.5" stroke="#828282" stroke-width="1.5" stroke-linecap="round" stroke-linejoin="round"/>
<path d="M7.625 14.5H13.5" stroke="#828282" stroke-width="1.5" stroke-linecap="round" stroke-linejoin="round"/>
<path d="M7.625 17.5H13.5" stroke="#828282" stroke-width="1.5" stroke-linecap="round" stroke-linejoin="round"/>
<path d="M16.5 20V6C16.5 5.17157 15.8284 4.5 15 4.5L6 4.5C5.17157 4.5 4.5 5.17157 4.5 6L4.5 20C4.5 20.8284 5.17157 21.5 6 21.5H15C15.8284 21.5 16.5 20.8284 16.5 20Z" stroke="#828282" stroke-width="1.5" stroke-linecap="round" stroke-linejoin="round"/>
<path d="M7.5 4.375V4C7.5 3.60218 7.65804 3.22064 7.93934 2.93934C8.22064 2.65804 8.60218 2.5 9 2.5H18C18.3978 2.5 18.7794 2.65804 19.0607 2.93934C19.342 3.22064 19.5 3.60218 19.5 4V18C19.5 18.3978 19.342 18.7794 19.0607 19.0607C18.7794 19.342 18.3978 19.5 18 19.5H16.69" stroke="#828282" stroke-width="1.5" stroke-linejoin="round"/>
</svg>
