<svg width="268" height="51" viewBox="0 0 268 51" fill="none" xmlns="http://www.w3.org/2000/svg">
<rect x="0.5" y="0.5" width="267" height="50" rx="7.5" fill="#E50800" stroke="#E50800"/>
<path d="M11.4043 18.8076C22.6851 7.90375 41.0197 7.90375 52.3005 18.7816C52.3005 18.7816 52.3005 18.7816 52.3274 18.8076" stroke="white" stroke-linecap="round" stroke-linejoin="round"/>
<path d="M17.3281 24.7788C25.4051 16.9904 38.4897 16.9904 46.5666 24.7788" stroke="white" stroke-linecap="round" stroke-linejoin="round"/>
<path d="M23.4121 30.6463C28.0967 26.129 35.716 26.129 40.4006 30.6463" stroke="white" stroke-linecap="round" stroke-linejoin="round"/>
<path d="M31.8659 37.6296C32.0146 37.6296 32.1351 37.5134 32.1351 37.37C32.1351 37.2266 32.0146 37.1104 31.8659 37.1104C31.7172 37.1104 31.5967 37.2266 31.5967 37.37C31.5967 37.5134 31.7172 37.6296 31.8659 37.6296Z" stroke="white" stroke-linecap="round" stroke-linejoin="round"/>
<path d="M83.1533 41.1538H105.846" stroke="white" stroke-linecap="round" stroke-linejoin="round"/>
<path d="M94.5 41.1539V36.8462" stroke="white" stroke-linejoin="round"/>
<path d="M76.3462 8.84619H112.654C114.526 8.84619 116.058 10.3 116.058 12.077V33.6154C116.058 35.3923 114.526 36.8462 112.654 36.8462H76.3462C74.4741 36.8462 72.9424 35.3923 72.9424 33.6154V12.077C72.9424 10.3 74.4741 8.84619 76.3462 8.84619Z" stroke="white" stroke-linecap="round" stroke-linejoin="round"/>
<path d="M146.589 8.168H151.869V9.521H148.283V11.336H151.649V12.7H148.283V16H146.589V8.168ZM158.286 13.349H154.612C154.641 13.8697 154.777 14.251 155.019 14.493C155.261 14.7277 155.62 14.845 156.097 14.845C156.383 14.845 156.669 14.7973 156.955 14.702C157.241 14.6067 157.505 14.4673 157.747 14.284L158.187 15.406C157.923 15.6187 157.593 15.7873 157.197 15.912C156.808 16.0293 156.416 16.088 156.02 16.088C155.081 16.088 154.344 15.8313 153.809 15.318C153.274 14.7973 153.006 14.0897 153.006 13.195C153.006 12.6303 153.12 12.128 153.347 11.688C153.582 11.2407 153.908 10.896 154.326 10.654C154.744 10.4047 155.217 10.28 155.745 10.28C156.53 10.28 157.149 10.5367 157.604 11.05C158.059 11.556 158.286 12.2417 158.286 13.107V13.349ZM155.789 11.446C155.474 11.446 155.217 11.5377 155.019 11.721C154.828 11.9043 154.704 12.172 154.645 12.524H156.856C156.768 11.8053 156.412 11.446 155.789 11.446ZM162.013 16.088C160.957 16.088 160.125 15.8607 159.516 15.406L159.956 14.251C160.249 14.4637 160.576 14.6287 160.935 14.746C161.294 14.856 161.661 14.911 162.035 14.911C162.321 14.911 162.541 14.867 162.695 14.779C162.849 14.691 162.926 14.5627 162.926 14.394C162.926 14.2547 162.871 14.1447 162.761 14.064C162.651 13.9833 162.457 13.9137 162.178 13.855L161.265 13.646C160.73 13.5287 160.334 13.3417 160.077 13.085C159.828 12.8283 159.703 12.4873 159.703 12.062C159.703 11.7173 159.802 11.4093 160 11.138C160.205 10.8667 160.488 10.6577 160.847 10.511C161.206 10.357 161.621 10.28 162.09 10.28C162.486 10.28 162.875 10.3423 163.256 10.467C163.637 10.5843 163.978 10.753 164.279 10.973L163.817 12.084C163.531 11.886 163.238 11.7357 162.937 11.633C162.644 11.5303 162.358 11.479 162.079 11.479C161.808 11.479 161.595 11.5267 161.441 11.622C161.287 11.7173 161.21 11.8493 161.21 12.018C161.21 12.1427 161.254 12.2453 161.342 12.326C161.437 12.3993 161.602 12.4617 161.837 12.513L162.772 12.722C163.344 12.854 163.758 13.052 164.015 13.316C164.272 13.58 164.4 13.932 164.4 14.372C164.4 14.9 164.187 15.318 163.762 15.626C163.337 15.934 162.754 16.088 162.013 16.088ZM167.997 11.666V13.833C167.997 14.141 168.078 14.3683 168.239 14.515C168.401 14.6543 168.61 14.724 168.866 14.724C169.028 14.724 169.211 14.6983 169.416 14.647V15.934C169.152 16.0367 168.833 16.088 168.459 16.088C167.77 16.088 167.242 15.8937 166.875 15.505C166.516 15.1163 166.336 14.57 166.336 13.866V11.666H165.28V10.423H166.336V9.114L167.997 8.575V10.423H169.416V11.666H167.997ZM175.646 14.757V16H170.729V14.834L173.545 11.666H170.773V10.423H175.536V11.545L172.676 14.757H175.646ZM180.698 10.28C182.018 10.28 182.678 11.061 182.678 12.623V16H181.017V12.7C181.017 12.3113 180.944 12.029 180.797 11.853C180.658 11.6697 180.434 11.578 180.126 11.578C179.76 11.578 179.466 11.6953 179.246 11.93C179.026 12.1647 178.916 12.48 178.916 12.876V16H177.255V12.018C177.255 11.424 177.226 10.8923 177.167 10.423H178.729L178.839 11.303C179.037 10.973 179.294 10.72 179.609 10.544C179.932 10.368 180.295 10.28 180.698 10.28ZM189.557 13.349H185.883C185.912 13.8697 186.048 14.251 186.29 14.493C186.532 14.7277 186.891 14.845 187.368 14.845C187.654 14.845 187.94 14.7973 188.226 14.702C188.512 14.6067 188.776 14.4673 189.018 14.284L189.458 15.406C189.194 15.6187 188.864 15.7873 188.468 15.912C188.079 16.0293 187.687 16.088 187.291 16.088C186.352 16.088 185.615 15.8313 185.08 15.318C184.544 14.7973 184.277 14.0897 184.277 13.195C184.277 12.6303 184.39 12.128 184.618 11.688C184.852 11.2407 185.179 10.896 185.597 10.654C186.015 10.4047 186.488 10.28 187.016 10.28C187.8 10.28 188.42 10.5367 188.875 11.05C189.329 11.556 189.557 12.2417 189.557 13.107V13.349ZM187.06 11.446C186.744 11.446 186.488 11.5377 186.29 11.721C186.099 11.9043 185.974 12.172 185.916 12.524H188.127C188.039 11.8053 187.683 11.446 187.06 11.446ZM193.132 11.666V13.833C193.132 14.141 193.213 14.3683 193.374 14.515C193.535 14.6543 193.744 14.724 194.001 14.724C194.162 14.724 194.346 14.6983 194.551 14.647V15.934C194.287 16.0367 193.968 16.088 193.594 16.088C192.905 16.088 192.377 15.8937 192.01 15.505C191.651 15.1163 191.471 14.57 191.471 13.866V11.666H190.415V10.423H191.471V9.114L193.132 8.575V10.423H194.551V11.666H193.132ZM200.781 14.757V16H195.864V14.834L198.68 11.666H195.908V10.423H200.671V11.545L197.811 14.757H200.781ZM212.546 16.11C211.856 15.8973 211.292 15.5967 210.852 15.208C210.162 15.7947 209.381 16.088 208.509 16.088C207.959 16.088 207.471 15.9963 207.046 15.813C206.628 15.6297 206.301 15.373 206.067 15.043C205.832 14.7057 205.715 14.3243 205.715 13.899C205.715 13.4297 205.839 13.0153 206.089 12.656C206.338 12.2967 206.73 11.963 207.266 11.655C206.76 11.1197 206.507 10.5697 206.507 10.005C206.507 9.631 206.602 9.301 206.793 9.015C206.983 8.72167 207.247 8.49433 207.585 8.333C207.929 8.17167 208.325 8.091 208.773 8.091C209.396 8.091 209.895 8.25233 210.269 8.575C210.643 8.89033 210.83 9.31567 210.83 9.851C210.83 10.2617 210.716 10.6283 210.489 10.951C210.261 11.2737 209.906 11.5743 209.422 11.853L210.775 13.184C211.053 12.59 211.215 11.9337 211.259 11.215H212.634C212.575 12.3443 212.285 13.3233 211.765 14.152C212.219 14.5407 212.744 14.812 213.338 14.966L212.546 16.11ZM208.795 9.202C208.553 9.202 208.358 9.27533 208.212 9.422C208.065 9.56133 207.992 9.752 207.992 9.994C207.992 10.1407 208.032 10.2873 208.113 10.434C208.201 10.5807 208.355 10.7713 208.575 11.006C208.912 10.8227 209.15 10.6467 209.29 10.478C209.436 10.3093 209.51 10.1223 209.51 9.917C209.51 9.697 209.444 9.52467 209.312 9.4C209.18 9.268 209.007 9.202 208.795 9.202ZM207.332 13.8C207.332 14.1153 207.442 14.3647 207.662 14.548C207.882 14.7313 208.179 14.823 208.553 14.823C209.051 14.823 209.51 14.647 209.928 14.295L208.124 12.513C207.852 12.689 207.651 12.8833 207.519 13.096C207.394 13.3013 207.332 13.536 207.332 13.8ZM219.822 9.565H217.369V8.168H224.013V9.565H221.56V16H219.822V9.565ZM233.159 8.168L229.639 16H228.264L224.744 8.168H226.526L228.968 13.855L231.432 8.168H233.159ZM168.545 24.434L166.092 30H164.684L162.264 24.434H164.002L165.432 28.042L166.906 24.434H168.545ZM174.54 27.349H170.866C170.895 27.8697 171.031 28.251 171.273 28.493C171.515 28.7277 171.874 28.845 172.351 28.845C172.637 28.845 172.923 28.7973 173.209 28.702C173.495 28.6067 173.759 28.4673 174.001 28.284L174.441 29.406C174.177 29.6187 173.847 29.7873 173.451 29.912C173.062 30.0293 172.67 30.088 172.274 30.088C171.335 30.088 170.598 29.8313 170.063 29.318C169.528 28.7973 169.26 28.0897 169.26 27.195C169.26 26.6303 169.374 26.128 169.601 25.688C169.836 25.2407 170.162 24.896 170.58 24.654C170.998 24.4047 171.471 24.28 171.999 24.28C172.784 24.28 173.403 24.5367 173.858 25.05C174.313 25.556 174.54 26.2417 174.54 27.107V27.349ZM172.043 25.446C171.728 25.446 171.471 25.5377 171.273 25.721C171.082 25.9043 170.958 26.172 170.899 26.524H173.11C173.022 25.8053 172.666 25.446 172.043 25.446ZM179.378 24.291C179.613 24.291 179.811 24.3277 179.972 24.401L179.961 25.919C179.69 25.7943 179.418 25.732 179.147 25.732C178.707 25.732 178.37 25.853 178.135 26.095C177.908 26.3297 177.794 26.6597 177.794 27.085V30H176.133V26.018C176.133 25.424 176.104 24.8923 176.045 24.423H177.607L177.717 25.38C177.856 25.028 178.073 24.7603 178.366 24.577C178.667 24.3863 179.004 24.291 179.378 24.291ZM184.668 23.213C184.412 23.213 184.206 23.2863 184.052 23.433C183.898 23.5723 183.821 23.7997 183.821 24.115V24.423H184.987V25.666H183.821V30H182.16V25.666H181.115V24.423H182.16V24.071C182.16 23.367 182.34 22.8207 182.699 22.432C183.059 22.0433 183.579 21.849 184.261 21.849C184.643 21.849 184.958 21.8967 185.207 21.992V23.29C184.995 23.2387 184.815 23.213 184.668 23.213ZM191.849 24.423V30H190.232V29.186C190.056 29.4793 189.825 29.703 189.539 29.857C189.253 30.011 188.93 30.088 188.571 30.088C187.874 30.088 187.354 29.8937 187.009 29.505C186.664 29.1163 186.492 28.5297 186.492 27.745V24.423H188.153V27.778C188.153 28.4527 188.443 28.79 189.022 28.79C189.367 28.79 189.645 28.6727 189.858 28.438C190.071 28.2033 190.177 27.8953 190.177 27.514V24.423H191.849ZM188.89 21.86V23.312H187.361V21.86H188.89ZM191.002 21.86V23.312H189.473V21.86H191.002ZM199.389 24.423V29.747C199.389 30.6343 199.132 31.309 198.619 31.771C198.105 32.233 197.357 32.464 196.375 32.464C195.487 32.464 194.717 32.2917 194.065 31.947L194.318 30.715C194.992 31.0523 195.66 31.221 196.32 31.221C196.796 31.221 197.152 31.1073 197.387 30.88C197.621 30.66 197.739 30.3227 197.739 29.868V28.9C197.563 29.1713 197.317 29.3987 197.002 29.582C196.686 29.758 196.338 29.846 195.957 29.846C195.473 29.846 195.044 29.7323 194.67 29.505C194.296 29.2703 194.002 28.944 193.79 28.526C193.577 28.1007 193.471 27.613 193.471 27.063C193.471 26.513 193.577 26.029 193.79 25.611C194.002 25.1857 194.296 24.8593 194.67 24.632C195.044 24.3973 195.473 24.28 195.957 24.28C196.345 24.28 196.697 24.3643 197.013 24.533C197.328 24.7017 197.57 24.929 197.739 25.215V24.423H199.389ZM196.441 28.581C196.844 28.581 197.159 28.449 197.387 28.185C197.621 27.9137 197.739 27.5397 197.739 27.063C197.739 26.5937 197.625 26.227 197.398 25.963C197.17 25.6917 196.851 25.556 196.441 25.556C196.03 25.556 195.707 25.6917 195.473 25.963C195.238 26.227 195.121 26.5937 195.121 27.063C195.121 27.5323 195.238 27.9027 195.473 28.174C195.707 28.4453 196.03 28.581 196.441 28.581ZM204.677 24.28C205.161 24.28 205.59 24.401 205.964 24.643C206.338 24.8777 206.628 25.215 206.833 25.655C207.039 26.0877 207.141 26.59 207.141 27.162C207.141 27.734 207.035 28.2437 206.822 28.691C206.617 29.131 206.327 29.4757 205.953 29.725C205.579 29.967 205.154 30.088 204.677 30.088C204.289 30.088 203.937 30.0073 203.621 29.846C203.313 29.6773 203.079 29.45 202.917 29.164V30H201.267V21.904H202.928V25.204C203.09 24.918 203.324 24.6943 203.632 24.533C203.948 24.3643 204.296 24.28 204.677 24.28ZM204.204 28.823C204.615 28.823 204.93 28.68 205.15 28.394C205.37 28.108 205.48 27.6973 205.48 27.162C205.48 26.6487 205.37 26.2527 205.15 25.974C204.93 25.6953 204.615 25.556 204.204 25.556C203.794 25.556 203.475 25.699 203.247 25.985C203.027 26.2637 202.917 26.6633 202.917 27.184C202.917 27.712 203.027 28.119 203.247 28.405C203.475 28.6837 203.794 28.823 204.204 28.823ZM214.345 24.423V30H212.706V29.175C212.537 29.461 212.299 29.6847 211.991 29.846C211.683 30.0073 211.335 30.088 210.946 30.088C210.462 30.088 210.033 29.9707 209.659 29.736C209.292 29.5013 209.003 29.1677 208.79 28.735C208.585 28.295 208.482 27.789 208.482 27.217C208.482 26.645 208.585 26.1353 208.79 25.688C209.003 25.2407 209.296 24.896 209.67 24.654C210.044 24.4047 210.469 24.28 210.946 24.28C211.335 24.28 211.683 24.3643 211.991 24.533C212.299 24.7017 212.537 24.929 212.706 25.215V24.423H214.345ZM211.43 28.823C211.841 28.823 212.156 28.6837 212.376 28.405C212.596 28.1263 212.706 27.723 212.706 27.195C212.706 26.667 212.596 26.2637 212.376 25.985C212.156 25.699 211.841 25.556 211.43 25.556C211.019 25.556 210.7 25.7027 210.473 25.996C210.246 26.2893 210.132 26.6963 210.132 27.217C210.132 27.7377 210.242 28.1373 210.462 28.416C210.689 28.6873 211.012 28.823 211.43 28.823ZM219.481 24.291C219.715 24.291 219.913 24.3277 220.075 24.401L220.064 25.919C219.792 25.7943 219.521 25.732 219.25 25.732C218.81 25.732 218.472 25.853 218.238 26.095C218.01 26.3297 217.897 26.6597 217.897 27.085V30H216.236V26.018C216.236 25.424 216.206 24.8923 216.148 24.423H217.71L217.82 25.38C217.959 25.028 218.175 24.7603 218.469 24.577C218.769 24.3863 219.107 24.291 219.481 24.291Z" fill="white"/>
</svg>
