<svg width="24" height="24" viewBox="0 0 24 24" fill="none" xmlns="http://www.w3.org/2000/svg">
<path d="M8.5 2.5V5.5" stroke="#828282" stroke-width="1.5" stroke-miterlimit="10" stroke-linecap="round"/>
<path d="M15.5 2.5V5.5" stroke="#828282" stroke-width="1.5" stroke-miterlimit="10" stroke-linecap="round"/>
<path d="M19 4.5H5C4.17157 4.5 3.5 5.17157 3.5 6V20C3.5 20.8284 4.17157 21.5 5 21.5H19C19.8284 21.5 20.5 20.8284 20.5 20V6C20.5 5.17157 19.8284 4.5 19 4.5Z" stroke="#828282" stroke-width="1.5" stroke-miterlimit="10" stroke-linecap="round"/>
<path d="M20.1713 8.5H3.85876" stroke="#828282" stroke-width="1.5" stroke-miterlimit="10"/>
<path d="M9.085 14.42C9.2424 14.39 9.40227 14.375 9.5625 14.375C10.77 14.375 11.75 15.215 11.75 16.25C11.75 17.285 10.77 18.25 9.5625 18.25C9.19871 18.2598 8.83891 18.1723 8.52028 17.9965C8.20164 17.8207 7.93572 17.563 7.75 17.25" stroke="#828282" stroke-width="1.5" stroke-linecap="round" stroke-linejoin="round"/>
<path d="M7.75 12H11.5L9.07875 14.4213" stroke="#828282" stroke-width="1.5" stroke-linecap="round" stroke-linejoin="round"/>
<path d="M14 13L16 11.75V18.25" stroke="#828282" stroke-width="1.5" stroke-linecap="round" stroke-linejoin="round"/>
</svg>
