<svg width="44" height="46" viewBox="0 0 44 46" fill="none" xmlns="http://www.w3.org/2000/svg">
<path d="M42 38H28V27.6266C28 26.1767 29.2544 25 30.8 25H39.2C40.7456 25 42 26.1767 42 27.6266V38Z" stroke="#828282" stroke-width="2.5" stroke-linecap="round" stroke-linejoin="round"/>
<path d="M5 2H13V8H5V2Z" stroke="#828282" stroke-width="2.5" stroke-linecap="round" stroke-linejoin="round"/>
<path d="M15 8H2V19.2281C2 20.7582 3.1648 22 4.6 22H12.4C13.8352 22 15 20.7582 15 19.2281V8Z" stroke="#828282" stroke-width="2.5" stroke-linecap="round" stroke-linejoin="round"/>
<path d="M35 24.5419V9C35 5.13413 32.0897 2 28.5 2C24.9103 2 22 5.13413 22 9V37C22 40.8659 19.0897 44 15.5 44C11.9103 44 9 40.8659 9 37V21.7419" stroke="#828282" stroke-width="2.5" stroke-linecap="round" stroke-linejoin="round"/>
</svg>
