<svg width="24" height="24" viewBox="0 0 24 24" fill="none" xmlns="http://www.w3.org/2000/svg">
<path d="M9.11758 14.5806C12.4926 16.0806 15.4926 16.0806 18.9926 14.5806" stroke="#828282" stroke-width="1.5" stroke-linecap="round" stroke-linejoin="round"/>
<path d="M8.54873 16.4029L7.49219 14.1371L9.75796 13.0806" stroke="#828282" stroke-width="1.5" stroke-linecap="round" stroke-linejoin="round"/>
<path d="M15.7995 19.2971L14.0934 5.40142C13.9924 4.57916 13.244 3.99444 12.4217 4.0954L3.48882 5.19223C2.66657 5.29319 2.08184 6.0416 2.1828 6.86385L3.88897 20.7595C3.98993 21.5817 4.73834 22.1665 5.5606 22.0655L14.4935 20.9687C15.3158 20.8677 15.9005 20.1193 15.7995 19.2971Z" stroke="#828282" stroke-width="1.5" stroke-linecap="round" stroke-linejoin="round"/>
<path d="M10.7185 3.86473L10.7577 3.49178C10.7993 3.09614 10.9963 2.73322 11.3055 2.48286C11.6146 2.2325 12.0106 2.11521 12.4062 2.15679L21.3569 3.09755C21.7526 3.13913 22.1155 3.33618 22.3659 3.64535C22.6162 3.95452 22.7335 4.35048 22.6919 4.74612L21.2285 18.6694C21.1869 19.0651 20.9899 19.428 20.6807 19.6784C20.3716 19.9287 19.9756 20.046 19.58 20.0044L18.2771 19.8675" stroke="#828282" stroke-width="1.5" stroke-linecap="round" stroke-linejoin="round"/>
</svg>
