<?xml version="1.0" ?><svg id="Layer_1" style="enable-background:new 0 0 128 128;" version="1.1" viewBox="0 0 128 128" xml:space="preserve" xmlns="http://www.w3.org/2000/svg" xmlns:xlink="http://www.w3.org/1999/xlink"><style type="text/css">
	.st0{fill:#FFFFFF;}
	.st1{fill:#444B54;}
	.st2{fill:#DFE8F4;}
	.st3{fill:#6F4986;}
	.st4{fill:#C0E7FF;}
	.st5{fill:#71C2FF;}
	.st6{fill:#FFEC7B;}
	.st7{fill:#EFC71D;}
	.st8{fill:#8E6DA5;}
	.st9{fill:#D3D8DD;}
	.st10{fill:#FF697D;}
	.st11{fill:#C95065;}
	.st12{fill:#ADF9D2;}
	.st13{fill:#5A3475;}
	.st14{fill:#00D6C6;}
	.st15{fill:#FF5576;}
	.st16{fill:#FFA9BE;}
	.st17{fill:#B6BCC1;}
	.st18{fill:#71BDE2;}
</style><g><path class="st1" d="M107,33H92c-1.7,0-3-1.3-3-3s1.3-3,3-3h12V15c0-1.7,1.3-3,3-3s3,1.3,3,3v15C110,31.7,108.7,33,107,33z"/><path class="st1" d="M64.1,122c-1.8,0-3.6-0.1-5.4-0.3c-15.1-1.4-28.9-8.5-38.7-20.1c-1.1-1.3-0.9-3.2,0.3-4.2   c1.3-1.1,3.2-0.9,4.2,0.3c8.8,10.3,21.2,16.7,34.7,18c13.6,1.3,26.9-2.8,37.5-11.4c16.8-13.6,23.4-35.7,16.8-56.3   c-0.5-1.6,0.4-3.3,1.9-3.8s3.3,0.4,3.8,1.9c7.4,23,0,47.6-18.7,62.8C90.1,117.5,77.3,122,64.1,122z"/><path class="st1" d="M11.5,83.5c-1.3,0-2.5-0.8-2.9-2.1C1.5,58.5,8.9,34,27.5,18.9c24.9-20.1,61.4-16.3,81.6,8.6   c1,1.3,0.8,3.2-0.4,4.2c-1.3,1-3.2,0.8-4.2-0.4C86.4,9,53.6,5.5,31.3,23.6c-16.7,13.5-23.3,35.5-16.9,56c0.5,1.6-0.4,3.3-2,3.8   C12.1,83.4,11.8,83.5,11.5,83.5z"/><path class="st1" d="M22,117c-1.7,0-3-1.3-3-3V99c0-1.7,1.3-3,3-3h15c1.7,0,3,1.3,3,3s-1.3,3-3,3H25v12C25,115.7,23.7,117,22,117z"/></g></svg>