<svg width="24" height="24" viewBox="0 0 24 24" fill="none" xmlns="http://www.w3.org/2000/svg">
<path d="M12 12.5C13.933 12.5 15.5 10.933 15.5 9C15.5 7.067 13.933 5.5 12 5.5C10.067 5.5 8.5 7.067 8.5 9C8.5 10.933 10.067 12.5 12 12.5Z" stroke="#828282" stroke-width="1.5" stroke-miterlimit="10" stroke-linecap="round"/>
<path d="M13.9075 19.26C15.8388 16.875 18.5 12.8175 18.5 9.345C18.5 5.625 15.76 2.5 12 2.5C8.24 2.5 5.5 5.515 5.5 9.23375C5.5 14.4225 12 21.5 12 21.5C12 21.5 13.445 19.8313 13.9075 19.26Z" stroke="#828282" stroke-width="1.5" stroke-linecap="round" stroke-linejoin="round"/>
</svg>
