<svg width="24" height="24" viewBox="0 0 24 24" fill="none" xmlns="http://www.w3.org/2000/svg">
<mask id="path-1-inside-1" fill="white">
<path fill-rule="evenodd" clip-rule="evenodd" d="M20.1694 15.3387C19.0585 15.8712 17.8141 16.1694 16.5 16.1694C11.8056 16.1694 8 12.3638 8 7.66937C8 6.35527 8.2982 5.11082 8.83063 4C5.97321 5.36959 4 8.28905 4 11.6694C4 16.3638 7.80558 20.1694 12.5 20.1694C15.8803 20.1694 18.7998 18.1962 20.1694 15.3387Z"/>
</mask>
<path d="M20.1694 15.3387L21.522 15.9871C21.7971 15.4132 21.6801 14.7281 21.23 14.2781C20.78 13.828 20.095 13.711 19.521 13.9861L20.1694 15.3387ZM8.83063 4L10.1833 4.64834C10.4584 4.07441 10.3413 3.38937 9.89129 2.93934C9.44126 2.48931 8.75622 2.37226 8.18229 2.64735L8.83063 4ZM19.521 13.9861C18.6082 14.4236 17.5849 14.6694 16.5 14.6694V17.6694C18.0433 17.6694 19.5088 17.3187 20.8177 16.6914L19.521 13.9861ZM16.5 14.6694C12.634 14.6694 9.5 11.5354 9.5 7.66937H6.5C6.5 13.1922 10.9772 17.6694 16.5 17.6694V14.6694ZM9.5 7.66937C9.5 6.58444 9.74577 5.56112 10.1833 4.64834L7.47798 3.35166C6.85063 4.66052 6.5 6.1261 6.5 7.66937H9.5ZM5.5 11.6694C5.5 8.88782 7.12228 6.48223 9.47897 5.35265L8.18229 2.64735C4.82414 4.25695 2.5 7.69027 2.5 11.6694H5.5ZM12.5 18.6694C8.63401 18.6694 5.5 15.5354 5.5 11.6694H2.5C2.5 17.1922 6.97715 21.6694 12.5 21.6694V18.6694ZM18.8167 14.6904C17.6871 17.0471 15.2816 18.6694 12.5 18.6694V21.6694C16.4791 21.6694 19.9124 19.3452 21.522 15.9871L18.8167 14.6904Z" fill="#333333" mask="url(#path-1-inside-1)"/>
</svg>
