<svg width="24" height="24" viewBox="0 0 24 24" fill="none" xmlns="http://www.w3.org/2000/svg">
<path d="M6.625 8.5H12.5" stroke="#E50800" stroke-width="1.5" stroke-linecap="round" stroke-linejoin="round"/>
<path d="M6.625 11.5H8.5" stroke="#E50800" stroke-width="1.5" stroke-linecap="round" stroke-linejoin="round"/>
<path d="M6.625 14.5H7.5" stroke="#E50800" stroke-width="1.5" stroke-linecap="round" stroke-linejoin="round"/>
<path d="M6.625 17.5H7.5" stroke="#E50800" stroke-width="1.5" stroke-linecap="round" stroke-linejoin="round"/>
<path d="M11 21.5H5C4.17157 21.5 3.5 20.8284 3.5 20L3.5 6C3.5 5.17157 4.17157 4.5 5 4.5L14 4.5C14.8284 4.5 15.5 5.17157 15.5 6L15.5 7.5" stroke="#E50800" stroke-width="1.5" stroke-linecap="round" stroke-linejoin="round"/>
<path d="M8 2.5L8 1.75L8 2.5ZM17.75 8.5C17.75 8.91421 18.0858 9.25 18.5 9.25C18.9142 9.25 19.25 8.91421 19.25 8.5H17.75ZM7.25 4.375V4H5.75V4.375H7.25ZM7.25 4C7.25 3.80109 7.32902 3.61032 7.46967 3.46967L6.40901 2.40901C5.98705 2.83097 5.75 3.40326 5.75 4H7.25ZM7.46967 3.46967C7.61032 3.32902 7.80109 3.25 8 3.25L8 1.75C7.40326 1.75 6.83097 1.98705 6.40901 2.40901L7.46967 3.46967ZM8 3.25H17V1.75H8V3.25ZM17 3.25C17.1989 3.25 17.3897 3.32902 17.5303 3.46967L18.591 2.40901C18.169 1.98705 17.5967 1.75 17 1.75V3.25ZM17.5303 3.46967C17.671 3.61032 17.75 3.80109 17.75 4H19.25C19.25 3.40326 19.0129 2.83097 18.591 2.40901L17.5303 3.46967ZM17.75 4V8.5H19.25V4H17.75Z" fill="#E50800"/>
<circle cx="15" cy="15" r="5" stroke="#E50800" stroke-width="1.5"/>
<path d="M19.5303 17.9697C19.2374 17.6768 18.7626 17.6768 18.4697 17.9697C18.1768 18.2626 18.1768 18.7374 18.4697 19.0303L19.5303 17.9697ZM20.9697 21.5303C21.2626 21.8232 21.7374 21.8232 22.0303 21.5303C22.3232 21.2374 22.3232 20.7626 22.0303 20.4697L20.9697 21.5303ZM18.4697 19.0303L20.9697 21.5303L22.0303 20.4697L19.5303 17.9697L18.4697 19.0303Z" fill="#E50800"/>
</svg>
