<svg width="24" height="24" viewBox="0 0 24 24" fill="none" xmlns="http://www.w3.org/2000/svg">
<path d="M12 12.5C14.4915 12.5 16.5113 10.4803 16.5113 7.98876C16.5113 5.49726 14.4915 3.47751 12 3.47751C9.50852 3.47751 7.48877 5.49726 7.48877 7.98876C7.48877 10.4803 9.50852 12.5 12 12.5Z" stroke="#333333" stroke-width="1.5" stroke-linecap="round" stroke-linejoin="round"/>
<path d="M19.5 20.5125C18.69 15.0275 15.3537 12.4838 12.045 12.4838C8.73625 12.4838 5.31125 15.0263 4.5 20.5113" stroke="#333333" stroke-width="1.5" stroke-linecap="round" stroke-linejoin="round"/>
<path d="M12 12.5C14.4915 12.5 16.5113 10.4803 16.5113 7.98876C16.5113 5.49726 14.4915 3.47751 12 3.47751C9.50852 3.47751 7.48877 5.49726 7.48877 7.98876C7.48877 10.4803 9.50852 12.5 12 12.5Z" stroke="#333333" stroke-width="1.5" stroke-linecap="round" stroke-linejoin="round"/>
<path d="M19.5 20.5125C18.69 15.0275 15.3537 12.4838 12.045 12.4838C8.73625 12.4838 5.31125 15.0263 4.5 20.5113" stroke="#333333" stroke-width="1.5" stroke-linecap="round" stroke-linejoin="round"/>
<path d="M12 12.5C14.4915 12.5 16.5113 10.4803 16.5113 7.98876C16.5113 5.49726 14.4915 3.47751 12 3.47751C9.50852 3.47751 7.48877 5.49726 7.48877 7.98876C7.48877 10.4803 9.50852 12.5 12 12.5Z" stroke="#828282" stroke-width="1.5" stroke-linecap="round" stroke-linejoin="round"/>
<path d="M19.5 20.5125C18.69 15.0275 15.3537 12.4838 12.045 12.4838C8.73625 12.4838 5.31125 15.0263 4.5 20.5113" stroke="#828282" stroke-width="1.5" stroke-linecap="round" stroke-linejoin="round"/>
<circle cx="4" cy="12" r="3" stroke="#828282" stroke-width="1.5"/>
<path d="M4 15C3 15 1 16 1 17.5" stroke="#828282" stroke-width="1.5" stroke-linecap="round" stroke-linejoin="round"/>
<path d="M20 15C21 15 23 16 23 17.5" stroke="#828282" stroke-width="1.5" stroke-linecap="round" stroke-linejoin="round"/>
<circle cx="20" cy="12" r="3" stroke="#828282" stroke-width="1.5"/>
</svg>
