<svg width="42" height="43" viewBox="0 0 42 43" fill="none" xmlns="http://www.w3.org/2000/svg">
<path d="M22.5215 38.8458C28.5094 35.3349 33.4752 30.2131 36.8964 24.0194C37.8211 22.4354 38.1813 20.5648 37.9139 18.7334C37.6468 16.902 36.7691 15.2262 35.434 13.9978C34.5975 13.2254 33.6072 12.6541 32.5336 12.3245C31.46 11.9949 30.3297 11.9151 29.2232 12.0909C28.1168 12.2668 27.0611 12.6938 26.1316 13.3416C25.2022 13.9894 24.4218 14.8421 23.8459 15.8388L17.8485 26.2161C16.4879 28.5708 14.563 30.5196 12.2614 31.8726C9.95979 33.2254 7.35999 33.9361 4.7152 33.9357H3.26438C3.02249 33.9359 2.78573 34.0082 2.58213 34.1437C2.37853 34.2792 2.21664 34.4726 2.11563 34.701C2.0146 34.9291 1.9787 35.1825 2.01217 35.4312C2.04566 35.68 2.14709 35.9136 2.30447 36.1043C4.97631 38.6969 8.36296 40.3553 11.9889 40.8469C15.6149 41.3387 19.2983 40.6389 22.5215 38.8458Z" stroke="#828282" stroke-width="2.5" stroke-linecap="round" stroke-linejoin="round"/>
<path d="M29 12.4829C30.7174 9.39012 34.297 8.12462 36.8031 9.64031C39.2121 11.0931 39.7176 14.578 37.9327 17.4108L37.6034 18" stroke="#828282" stroke-width="2.5" stroke-linecap="round" stroke-linejoin="round"/>
<path d="M37 9L40 2" stroke="#828282" stroke-width="2.5" stroke-linecap="round" stroke-linejoin="round"/>
</svg>
