<svg width="24" height="24" viewBox="0 0 24 24" fill="none" xmlns="http://www.w3.org/2000/svg">
<path d="M12 12.5C14.4915 12.5 16.5113 10.4803 16.5113 7.98879C16.5113 5.49729 14.4915 3.47754 12 3.47754C9.50852 3.47754 7.48877 5.49729 7.48877 7.98879C7.48877 10.4803 9.50852 12.5 12 12.5Z" stroke="#828282" stroke-width="1.5" stroke-linecap="round" stroke-linejoin="round"/>
<path d="M19.5 20.5126C18.69 15.0276 15.3537 12.4839 12.045 12.4839C8.73625 12.4839 5.31125 15.0264 4.5 20.5114" stroke="#828282" stroke-width="1.5" stroke-linecap="round" stroke-linejoin="round"/>
<path d="M12 12.5C14.4915 12.5 16.5113 10.4803 16.5113 7.98879C16.5113 5.49729 14.4915 3.47754 12 3.47754C9.50852 3.47754 7.48877 5.49729 7.48877 7.98879C7.48877 10.4803 9.50852 12.5 12 12.5Z" stroke="#828282" stroke-width="1.5" stroke-linecap="round" stroke-linejoin="round"/>
<path d="M19.5 20.5126C18.69 15.0276 15.3537 12.4839 12.045 12.4839C8.73625 12.4839 5.31125 15.0264 4.5 20.5114" stroke="#828282" stroke-width="1.5" stroke-linecap="round" stroke-linejoin="round"/>
<path d="M12 12.5C14.4915 12.5 16.5113 10.4803 16.5113 7.98879C16.5113 5.49729 14.4915 3.47754 12 3.47754C9.50852 3.47754 7.48877 5.49729 7.48877 7.98879C7.48877 10.4803 9.50852 12.5 12 12.5Z" stroke="#333333" stroke-width="1.5" stroke-linecap="round" stroke-linejoin="round"/>
<path d="M19.5 20.5126C18.69 15.0276 15.3537 12.4839 12.045 12.4839C8.73625 12.4839 5.31125 15.0264 4.5 20.5114" stroke="#333333" stroke-width="1.5" stroke-linecap="round" stroke-linejoin="round"/>
</svg>
