<svg width="184" height="138" viewBox="0 0 184 138" fill="none" xmlns="http://www.w3.org/2000/svg">
<g filter="url(#filter0_d)">
<rect x="24" width="136" height="90" rx="8" fill="white"/>
</g>
<path d="M103.194 35C103.194 41.075 98.2269 46 92.0979 46C85.9689 46 81 41.075 81 35C81 28.925 85.9689 24 92.0979 24C98.2269 24 103.194 28.925 103.194 35Z" fill="#E50800"/>
<path d="M92.1855 41.1335C89.1373 41.1437 85.9648 38.5649 85.9505 34.4219C85.9403 31.6836 87.4328 29.0462 89.3371 27.482C91.1966 25.9582 93.7433 24.9781 96.0513 24.97C96.349 24.97 96.661 24.9942 96.8506 25.0589C94.832 25.4732 93.2254 27.3364 93.2315 29.4484C93.2315 29.519 93.2376 29.5938 93.2457 29.6282C96.6242 30.4447 98.1575 32.4656 98.1677 35.2606C98.1758 38.0576 95.9493 41.1213 92.1855 41.1334" fill="white"/>
<path d="M84.9103 60.81H81.7883V59.032H90.2443V60.81H87.1223V69H84.9103V60.81ZM101.885 59.032L97.4048 69H95.6548L91.1748 59.032H93.4428L96.5508 66.27L99.6868 59.032H101.885Z" fill="#E50800"/>
<defs>
<filter id="filter0_d" x="0" y="0" width="184" height="138" filterUnits="userSpaceOnUse" color-interpolation-filters="sRGB">
<feFlood flood-opacity="0" result="BackgroundImageFix"/>
<feColorMatrix in="SourceAlpha" type="matrix" values="0 0 0 0 0 0 0 0 0 0 0 0 0 0 0 0 0 0 127 0"/>
<feOffset dy="24"/>
<feGaussianBlur stdDeviation="12"/>
<feColorMatrix type="matrix" values="0 0 0 0 0.2 0 0 0 0 0.2 0 0 0 0 0.2 0 0 0 0.1 0"/>
<feBlend mode="normal" in2="BackgroundImageFix" result="effect1_dropShadow"/>
<feBlend mode="normal" in="SourceGraphic" in2="effect1_dropShadow" result="shape"/>
</filter>
</defs>
</svg>