<svg width="184" height="138" viewBox="0 0 184 138" fill="none" xmlns="http://www.w3.org/2000/svg">
<g filter="url(#filter0_d)">
<rect x="24" width="136" height="90" rx="8" fill="#333333"/>
</g>
<path d="M66.0613 59.032V69H64.1293V63.554L61.8333 69H60.4193L58.1093 63.624V69H56.1913V59.032H57.9273L61.1473 66.382L64.3393 59.032H66.0613ZM72.0195 69.112C71.2635 69.112 70.6009 68.9627 70.0315 68.664C69.4715 68.3653 69.0375 67.936 68.7295 67.376C68.4309 66.816 68.2815 66.1627 68.2815 65.416C68.2815 64.6693 68.4309 64.016 68.7295 63.456C69.0375 62.896 69.4715 62.4667 70.0315 62.168C70.6009 61.8693 71.2635 61.72 72.0195 61.72C72.7662 61.72 73.4195 61.8693 73.9795 62.168C74.5395 62.4667 74.9689 62.896 75.2675 63.456C75.5755 64.016 75.7295 64.6693 75.7295 65.416C75.7295 66.1627 75.5755 66.816 75.2675 67.376C74.9689 67.936 74.5395 68.3653 73.9795 68.664C73.4195 68.9627 72.7662 69.112 72.0195 69.112ZM72.0195 67.502C72.5422 67.502 72.9389 67.3293 73.2095 66.984C73.4895 66.6387 73.6295 66.116 73.6295 65.416C73.6295 64.7253 73.4895 64.2073 73.2095 63.862C72.9389 63.5073 72.5422 63.33 72.0195 63.33C71.4875 63.33 71.0815 63.5073 70.8015 63.862C70.5215 64.2073 70.3815 64.7253 70.3815 65.416C70.3815 66.8067 70.9275 67.502 72.0195 67.502ZM82.1208 61.72C82.7368 61.72 83.2828 61.874 83.7588 62.182C84.2348 62.4807 84.6034 62.91 84.8648 63.47C85.1261 64.0207 85.2568 64.66 85.2568 65.388C85.2568 66.116 85.1214 66.7647 84.8508 67.334C84.5894 67.894 84.2208 68.3327 83.7448 68.65C83.2688 68.958 82.7274 69.112 82.1208 69.112C81.6261 69.112 81.1781 69.0093 80.7768 68.804C80.3848 68.5893 80.0861 68.3 79.8808 67.936V69H77.7808V58.696H79.8948V62.896C80.1001 62.532 80.3988 62.2473 80.7908 62.042C81.1921 61.8273 81.6354 61.72 82.1208 61.72ZM81.5188 67.502C82.0414 67.502 82.4428 67.32 82.7228 66.956C83.0028 66.592 83.1428 66.0693 83.1428 65.388C83.1428 64.7347 83.0028 64.2307 82.7228 63.876C82.4428 63.5213 82.0414 63.344 81.5188 63.344C80.9961 63.344 80.5901 63.526 80.3008 63.89C80.0208 64.2447 79.8808 64.7533 79.8808 65.416C79.8808 66.088 80.0208 66.606 80.3008 66.97C80.5901 67.3247 80.9961 67.502 81.5188 67.502ZM87.3128 61.902H89.4268V69H87.3128V61.902ZM89.4968 58.57V60.558H87.2428V58.57H89.4968ZM91.8546 58.696H93.9686V69H91.8546V58.696ZM100.12 60.362C99.7937 60.362 99.5324 60.4553 99.3364 60.642C99.1404 60.8193 99.0424 61.1087 99.0424 61.51V61.902H100.526V63.484H99.0424V69H96.9284V63.484H95.5984V61.902H96.9284V61.454C96.9284 60.558 97.157 59.8627 97.6144 59.368C98.0717 58.8733 98.7344 58.626 99.6024 58.626C100.088 58.626 100.489 58.6867 100.806 58.808V60.46C100.536 60.3947 100.307 60.362 100.12 60.362ZM109.259 61.902V69H107.201V67.964C106.977 68.3373 106.683 68.622 106.319 68.818C105.955 69.014 105.544 69.112 105.087 69.112C104.2 69.112 103.538 68.8647 103.099 68.37C102.66 67.8753 102.441 67.1287 102.441 66.13V61.902H104.555V66.172C104.555 67.0307 104.924 67.46 105.661 67.46C106.1 67.46 106.454 67.3107 106.725 67.012C106.996 66.7133 107.131 66.3213 107.131 65.836V61.902H109.259ZM116.055 61.72C117.735 61.72 118.575 62.714 118.575 64.702V69H116.461V64.8C116.461 64.3053 116.368 63.946 116.181 63.722C116.004 63.4887 115.719 63.372 115.327 63.372C114.861 63.372 114.487 63.5213 114.207 63.82C113.927 64.1187 113.787 64.52 113.787 65.024V69H111.673V63.932C111.673 63.176 111.636 62.4993 111.561 61.902H113.549L113.689 63.022C113.941 62.602 114.268 62.28 114.669 62.056C115.08 61.832 115.542 61.72 116.055 61.72ZM125.859 69L123.073 65.822V69H120.959V58.696H123.073V64.954L125.733 61.916H128.267L125.257 65.318L128.449 69H125.859Z" fill="#FF6600"/>
<path d="M96.3686 32.438V38.1422C96.3686 38.806 95.829 39.3418 95.1658 39.3418H88.8709C88.2053 39.3418 87.668 38.806 87.668 38.1422V31.8666C87.668 31.2028 88.2053 30.6669 88.8709 30.6669L94.5192 30.6646V27.0064H88.8115C86.1538 27.0064 84 29.1544 84 31.8049V38.2038C84 40.852 86.1538 43 88.8115 43H95.2252C97.8829 43 100.037 40.852 100.037 38.2038V32.438H96.3686Z" fill="white"/>
<path d="M96.3589 27.0193V30.668H100.01C99.5539 28.8875 98.1418 27.4768 96.3589 27.0193Z" fill="#FF6600"/>
<defs>
<filter id="filter0_d" x="0" y="0" width="184" height="138" filterUnits="userSpaceOnUse" color-interpolation-filters="sRGB">
<feFlood flood-opacity="0" result="BackgroundImageFix"/>
<feColorMatrix in="SourceAlpha" type="matrix" values="0 0 0 0 0 0 0 0 0 0 0 0 0 0 0 0 0 0 127 0"/>
<feOffset dy="24"/>
<feGaussianBlur stdDeviation="12"/>
<feColorMatrix type="matrix" values="0 0 0 0 0.2 0 0 0 0 0.2 0 0 0 0 0.2 0 0 0 0.1 0"/>
<feBlend mode="normal" in2="BackgroundImageFix" result="effect1_dropShadow"/>
<feBlend mode="normal" in="SourceGraphic" in2="effect1_dropShadow" result="shape"/>
</filter>
</defs>
</svg>
