<svg width="184" height="138" viewBox="0 0 184 138" fill="none" xmlns="http://www.w3.org/2000/svg">
<g filter="url(#filter0_d)">
<rect x="24" width="136" height="90" rx="8" fill="white"/>
</g>
<path d="M103.194 35C103.194 41.075 98.2269 46 92.0979 46C85.9689 46 81 41.075 81 35C81 28.925 85.9689 24 92.0979 24C98.2269 24 103.194 28.925 103.194 35Z" fill="#E50800"/>
<path d="M92.1855 41.1335C89.1373 41.1437 85.9648 38.5649 85.9505 34.4219C85.9403 31.6836 87.4328 29.0462 89.3371 27.482C91.1966 25.9582 93.7433 24.9781 96.0513 24.97C96.349 24.97 96.661 24.9942 96.8506 25.0589C94.832 25.4732 93.2254 27.3364 93.2315 29.4484C93.2315 29.519 93.2376 29.5938 93.2457 29.6282C96.6242 30.4447 98.1575 32.4656 98.1677 35.2606C98.1758 38.0576 95.9493 41.1213 92.1855 41.1334" fill="white"/>
<path d="M77.9577 59.032H81.8077C82.8997 59.032 83.8377 59.228 84.6217 59.62C85.4057 60.012 86.003 60.5813 86.4137 61.328C86.8337 62.0747 87.0437 62.966 87.0437 64.002C87.0437 65.0473 86.8383 65.9433 86.4277 66.69C86.017 67.4367 85.4197 68.0107 84.6357 68.412C83.8517 68.804 82.909 69 81.8077 69H77.9577V59.032ZM81.6677 67.236C83.7957 67.236 84.8597 66.158 84.8597 64.002C84.8597 61.8647 83.7957 60.796 81.6677 60.796H80.1417V67.236H81.6677ZM92.9445 69.126C92.1885 69.126 91.4605 69.028 90.7605 68.832C90.0698 68.6267 89.4958 68.342 89.0385 67.978L89.7385 66.41C90.6998 67.082 91.7731 67.418 92.9585 67.418C93.5931 67.418 94.0785 67.32 94.4145 67.124C94.7598 66.9187 94.9325 66.634 94.9325 66.27C94.9325 65.9527 94.7738 65.7053 94.4565 65.528C94.1485 65.3413 93.6025 65.164 92.8185 64.996C91.9411 64.8187 91.2411 64.604 90.7185 64.352C90.2051 64.0907 89.8271 63.778 89.5845 63.414C89.3511 63.0407 89.2345 62.5787 89.2345 62.028C89.2345 61.4307 89.3978 60.894 89.7245 60.418C90.0605 59.942 90.5271 59.5733 91.1245 59.312C91.7218 59.0413 92.4125 58.906 93.1965 58.906C93.9058 58.906 94.5871 59.0087 95.2405 59.214C95.8938 59.4193 96.4165 59.6993 96.8085 60.054L96.1085 61.622C95.2311 60.95 94.2651 60.614 93.2105 60.614C92.6505 60.614 92.2025 60.726 91.8665 60.95C91.5305 61.174 91.3625 61.4773 91.3625 61.86C91.3625 62.084 91.4231 62.2707 91.5445 62.42C91.6751 62.5693 91.8898 62.7047 92.1885 62.826C92.4871 62.938 92.9118 63.05 93.4625 63.162C94.7411 63.442 95.6605 63.806 96.2205 64.254C96.7898 64.702 97.0745 65.3133 97.0745 66.088C97.0745 67.0213 96.7105 67.7633 95.9825 68.314C95.2545 68.8553 94.2418 69.126 92.9445 69.126ZM99.3596 59.032H101.544V67.222H105.996V69H99.3596V59.032Z" fill="#E50800"/>
<defs>
<filter id="filter0_d" x="0" y="0" width="184" height="138" filterUnits="userSpaceOnUse" color-interpolation-filters="sRGB">
<feFlood flood-opacity="0" result="BackgroundImageFix"/>
<feColorMatrix in="SourceAlpha" type="matrix" values="0 0 0 0 0 0 0 0 0 0 0 0 0 0 0 0 0 0 127 0"/>
<feOffset dy="24"/>
<feGaussianBlur stdDeviation="12"/>
<feColorMatrix type="matrix" values="0 0 0 0 0.2 0 0 0 0 0.2 0 0 0 0 0.2 0 0 0 0.1 0"/>
<feBlend mode="normal" in2="BackgroundImageFix" result="effect1_dropShadow"/>
<feBlend mode="normal" in="SourceGraphic" in2="effect1_dropShadow" result="shape"/>
</filter>
</defs>
</svg>
