<svg width="184" height="138" viewBox="0 0 184 138" fill="none" xmlns="http://www.w3.org/2000/svg">
<g filter="url(#filter0_d)">
<rect x="24" width="136" height="90" rx="8" fill="white"/>
</g>
<path d="M103.194 35C103.194 41.075 98.2269 46 92.0979 46C85.9689 46 81 41.075 81 35C81 28.925 85.9689 24 92.0979 24C98.2269 24 103.194 28.925 103.194 35Z" fill="#E50800"/>
<path d="M92.1855 41.1335C89.1373 41.1437 85.9648 38.5649 85.9505 34.4219C85.9403 31.6836 87.4328 29.0462 89.3371 27.482C91.1966 25.9582 93.7433 24.9781 96.0513 24.97C96.349 24.97 96.661 24.9942 96.8506 25.0589C94.832 25.4732 93.2254 27.3364 93.2315 29.4484C93.2315 29.519 93.2376 29.5938 93.2457 29.6282C96.6242 30.4447 98.1575 32.4656 98.1677 35.2606C98.1758 38.0576 95.9493 41.1213 92.1855 41.1334" fill="white"/>
<path d="M61.5104 59.032H68.2304V60.754H63.6664V63.064H67.9504V64.8H63.6664V69H61.5104V59.032ZM76.3974 65.626H71.7214C71.7588 66.2887 71.9314 66.774 72.2394 67.082C72.5474 67.3807 73.0048 67.53 73.6114 67.53C73.9754 67.53 74.3394 67.4693 74.7034 67.348C75.0674 67.2267 75.4034 67.0493 75.7114 66.816L76.2714 68.244C75.9354 68.5147 75.5154 68.7293 75.0114 68.888C74.5168 69.0373 74.0174 69.112 73.5134 69.112C72.3188 69.112 71.3808 68.7853 70.6994 68.132C70.0181 67.4693 69.6774 66.5687 69.6774 65.43C69.6774 64.7113 69.8221 64.072 70.1114 63.512C70.4101 62.9427 70.8254 62.504 71.3574 62.196C71.8894 61.8787 72.4914 61.72 73.1634 61.72C74.1621 61.72 74.9508 62.0467 75.5294 62.7C76.1081 63.344 76.3974 64.2167 76.3974 65.318V65.626ZM73.2194 63.204C72.8181 63.204 72.4914 63.3207 72.2394 63.554C71.9968 63.7873 71.8381 64.128 71.7634 64.576H74.5774C74.4654 63.6613 74.0128 63.204 73.2194 63.204ZM81.1407 69.112C79.7967 69.112 78.7374 68.8227 77.9627 68.244L78.5227 66.774C78.896 67.0447 79.3114 67.2547 79.7687 67.404C80.226 67.544 80.6927 67.614 81.1687 67.614C81.5327 67.614 81.8127 67.558 82.0087 67.446C82.2047 67.334 82.3027 67.1707 82.3027 66.956C82.3027 66.7787 82.2327 66.6387 82.0927 66.536C81.9527 66.4333 81.7054 66.3447 81.3507 66.27L80.1887 66.004C79.5074 65.8547 79.0034 65.6167 78.6767 65.29C78.3594 64.9633 78.2007 64.5293 78.2007 63.988C78.2007 63.5493 78.3267 63.1573 78.5787 62.812C78.84 62.4667 79.1994 62.2007 79.6567 62.014C80.114 61.818 80.6414 61.72 81.2387 61.72C81.7427 61.72 82.2374 61.7993 82.7227 61.958C83.208 62.1073 83.642 62.322 84.0247 62.602L83.4367 64.016C83.0727 63.764 82.6994 63.5727 82.3167 63.442C81.9434 63.3113 81.5794 63.246 81.2247 63.246C80.8794 63.246 80.6087 63.3067 80.4127 63.428C80.2167 63.5493 80.1187 63.7173 80.1187 63.932C80.1187 64.0907 80.1747 64.2213 80.2867 64.324C80.408 64.4173 80.618 64.4967 80.9167 64.562L82.1067 64.828C82.8347 64.996 83.362 65.248 83.6887 65.584C84.0154 65.92 84.1787 66.368 84.1787 66.928C84.1787 67.6 83.908 68.132 83.3667 68.524C82.8254 68.916 82.0834 69.112 81.1407 69.112ZM88.7574 63.484V66.242C88.7574 66.634 88.86 66.9233 89.0654 67.11C89.2707 67.2873 89.5367 67.376 89.8634 67.376C90.0687 67.376 90.302 67.3433 90.5634 67.278V68.916C90.2274 69.0467 89.8214 69.112 89.3454 69.112C88.468 69.112 87.796 68.8647 87.3294 68.37C86.872 67.8753 86.6434 67.18 86.6434 66.284V63.484H85.2994V61.902H86.6434V60.236L88.7574 59.55V61.902H90.5634V63.484H88.7574ZM96.7301 61.72C98.4101 61.72 99.2501 62.714 99.2501 64.702V69H97.1361V64.8C97.1361 64.3053 97.0428 63.946 96.8561 63.722C96.6788 63.4887 96.3941 63.372 96.0021 63.372C95.5355 63.372 95.1621 63.5213 94.8821 63.82C94.6021 64.1187 94.4621 64.52 94.4621 65.024V69H92.3481V63.932C92.3481 63.176 92.3108 62.4993 92.2361 61.902H94.2241L94.3641 63.022C94.6161 62.602 94.9428 62.28 95.3441 62.056C95.7548 61.832 96.2168 61.72 96.7301 61.72ZM108.004 65.626H103.328C103.365 66.2887 103.538 66.774 103.846 67.082C104.154 67.3807 104.611 67.53 105.218 67.53C105.582 67.53 105.946 67.4693 106.31 67.348C106.674 67.2267 107.01 67.0493 107.318 66.816L107.878 68.244C107.542 68.5147 107.122 68.7293 106.618 68.888C106.123 69.0373 105.624 69.112 105.12 69.112C103.925 69.112 102.987 68.7853 102.306 68.132C101.625 67.4693 101.284 66.5687 101.284 65.43C101.284 64.7113 101.429 64.072 101.718 63.512C102.017 62.9427 102.432 62.504 102.964 62.196C103.496 61.8787 104.098 61.72 104.77 61.72C105.769 61.72 106.557 62.0467 107.136 62.7C107.715 63.344 108.004 64.2167 108.004 65.318V65.626ZM104.826 63.204C104.425 63.204 104.098 63.3207 103.846 63.554C103.603 63.7873 103.445 64.128 103.37 64.576H106.184C106.072 63.6613 105.619 63.204 104.826 63.204ZM112.555 63.484V66.242C112.555 66.634 112.657 66.9233 112.863 67.11C113.068 67.2873 113.334 67.376 113.661 67.376C113.866 67.376 114.099 67.3433 114.361 67.278V68.916C114.025 69.0467 113.619 69.112 113.143 69.112C112.265 69.112 111.593 68.8647 111.127 68.37C110.669 67.8753 110.441 67.18 110.441 66.284V63.484H109.097V61.902H110.441V60.236L112.555 59.55V61.902H114.361V63.484H112.555ZM122.29 67.418V69H116.032V67.516L119.616 63.484H116.088V61.902H122.15V63.33L118.51 67.418H122.29Z" fill="#E50800"/>
<defs>
<filter id="filter0_d" x="0" y="0" width="184" height="138" filterUnits="userSpaceOnUse" color-interpolation-filters="sRGB">
<feFlood flood-opacity="0" result="BackgroundImageFix"/>
<feColorMatrix in="SourceAlpha" type="matrix" values="0 0 0 0 0 0 0 0 0 0 0 0 0 0 0 0 0 0 127 0"/>
<feOffset dy="24"/>
<feGaussianBlur stdDeviation="12"/>
<feColorMatrix type="matrix" values="0 0 0 0 0.2 0 0 0 0 0.2 0 0 0 0 0.2 0 0 0 0.1 0"/>
<feBlend mode="normal" in2="BackgroundImageFix" result="effect1_dropShadow"/>
<feBlend mode="normal" in="SourceGraphic" in2="effect1_dropShadow" result="shape"/>
</filter>
</defs>
</svg>
