<svg width="185" height="138" viewBox="0 0 185 138" fill="none" xmlns="http://www.w3.org/2000/svg">
<g filter="url(#filter0_d)">
<rect x="24" width="137" height="90" rx="8" fill="#E50800"/>
</g>
<path d="M67.0613 59.032V69H65.1293V63.554L62.8333 69H61.4193L59.1093 63.624V69H57.1913V59.032H58.9273L62.1473 66.382L65.3393 59.032H67.0613ZM73.0195 69.112C72.2635 69.112 71.6009 68.9627 71.0315 68.664C70.4715 68.3653 70.0375 67.936 69.7295 67.376C69.4309 66.816 69.2815 66.1627 69.2815 65.416C69.2815 64.6693 69.4309 64.016 69.7295 63.456C70.0375 62.896 70.4715 62.4667 71.0315 62.168C71.6009 61.8693 72.2635 61.72 73.0195 61.72C73.7662 61.72 74.4195 61.8693 74.9795 62.168C75.5395 62.4667 75.9689 62.896 76.2675 63.456C76.5755 64.016 76.7295 64.6693 76.7295 65.416C76.7295 66.1627 76.5755 66.816 76.2675 67.376C75.9689 67.936 75.5395 68.3653 74.9795 68.664C74.4195 68.9627 73.7662 69.112 73.0195 69.112ZM73.0195 67.502C73.5422 67.502 73.9389 67.3293 74.2095 66.984C74.4895 66.6387 74.6295 66.116 74.6295 65.416C74.6295 64.7253 74.4895 64.2073 74.2095 63.862C73.9389 63.5073 73.5422 63.33 73.0195 63.33C72.4875 63.33 72.0815 63.5073 71.8015 63.862C71.5215 64.2073 71.3815 64.7253 71.3815 65.416C71.3815 66.8067 71.9275 67.502 73.0195 67.502ZM83.1208 61.72C83.7368 61.72 84.2828 61.874 84.7588 62.182C85.2348 62.4807 85.6034 62.91 85.8648 63.47C86.1261 64.0207 86.2568 64.66 86.2568 65.388C86.2568 66.116 86.1214 66.7647 85.8508 67.334C85.5894 67.894 85.2208 68.3327 84.7448 68.65C84.2688 68.958 83.7274 69.112 83.1208 69.112C82.6261 69.112 82.1781 69.0093 81.7768 68.804C81.3848 68.5893 81.0861 68.3 80.8808 67.936V69H78.7808V58.696H80.8948V62.896C81.1001 62.532 81.3988 62.2473 81.7908 62.042C82.1921 61.8273 82.6354 61.72 83.1208 61.72ZM82.5188 67.502C83.0414 67.502 83.4428 67.32 83.7228 66.956C84.0028 66.592 84.1428 66.0693 84.1428 65.388C84.1428 64.7347 84.0028 64.2307 83.7228 63.876C83.4428 63.5213 83.0414 63.344 82.5188 63.344C81.9961 63.344 81.5901 63.526 81.3008 63.89C81.0208 64.2447 80.8808 64.7533 80.8808 65.416C80.8808 66.088 81.0208 66.606 81.3008 66.97C81.5901 67.3247 81.9961 67.502 82.5188 67.502ZM88.3128 61.902H90.4268V69H88.3128V61.902ZM90.4968 58.57V60.558H88.2428V58.57H90.4968ZM92.8546 58.696H94.9686V69H92.8546V58.696ZM101.12 60.362C100.794 60.362 100.532 60.4553 100.336 60.642C100.14 60.8193 100.042 61.1087 100.042 61.51V61.902H101.526V63.484H100.042V69H97.9284V63.484H96.5984V61.902H97.9284V61.454C97.9284 60.558 98.157 59.8627 98.6144 59.368C99.0717 58.8733 99.7344 58.626 100.602 58.626C101.088 58.626 101.489 58.6867 101.806 58.808V60.46C101.536 60.3947 101.307 60.362 101.12 60.362ZM110.259 61.902V69H108.201V67.964C107.977 68.3373 107.683 68.622 107.319 68.818C106.955 69.014 106.544 69.112 106.087 69.112C105.2 69.112 104.538 68.8647 104.099 68.37C103.66 67.8753 103.441 67.1287 103.441 66.13V61.902H105.555V66.172C105.555 67.0307 105.924 67.46 106.661 67.46C107.1 67.46 107.454 67.3107 107.725 67.012C107.996 66.7133 108.131 66.3213 108.131 65.836V61.902H110.259ZM117.055 61.72C118.735 61.72 119.575 62.714 119.575 64.702V69H117.461V64.8C117.461 64.3053 117.368 63.946 117.181 63.722C117.004 63.4887 116.719 63.372 116.327 63.372C115.861 63.372 115.487 63.5213 115.207 63.82C114.927 64.1187 114.787 64.52 114.787 65.024V69H112.673V63.932C112.673 63.176 112.636 62.4993 112.561 61.902H114.549L114.689 63.022C114.941 62.602 115.268 62.28 115.669 62.056C116.08 61.832 116.542 61.72 117.055 61.72ZM126.859 69L124.073 65.822V69H121.959V58.696H124.073V64.954L126.733 61.916H129.267L126.257 65.318L129.449 69H126.859Z" fill="white"/>
<path d="M103.194 35C103.194 41.075 98.2269 46 92.0979 46C85.9689 46 81 41.075 81 35C81 28.925 85.9689 24 92.0979 24C98.2269 24 103.194 28.925 103.194 35Z" fill="white"/>
<path d="M92.1855 41.1335C89.1373 41.1437 85.9648 38.5649 85.9505 34.4219C85.9403 31.6836 87.4328 29.0462 89.3371 27.482C91.1966 25.9582 93.7433 24.9781 96.0513 24.97C96.349 24.97 96.661 24.9942 96.8506 25.0589C94.832 25.4732 93.2254 27.3364 93.2315 29.4484C93.2315 29.519 93.2376 29.5938 93.2457 29.6282C96.6242 30.4447 98.1575 32.4656 98.1677 35.2606C98.1758 38.0576 95.9493 41.1213 92.1855 41.1334" fill="#E50800"/>
<defs>
<filter id="filter0_d" x="0" y="0" width="185" height="138" filterUnits="userSpaceOnUse" color-interpolation-filters="sRGB">
<feFlood flood-opacity="0" result="BackgroundImageFix"/>
<feColorMatrix in="SourceAlpha" type="matrix" values="0 0 0 0 0 0 0 0 0 0 0 0 0 0 0 0 0 0 127 0"/>
<feOffset dy="24"/>
<feGaussianBlur stdDeviation="12"/>
<feColorMatrix type="matrix" values="0 0 0 0 0.2 0 0 0 0 0.2 0 0 0 0 0.2 0 0 0 0.1 0"/>
<feBlend mode="normal" in2="BackgroundImageFix" result="effect1_dropShadow"/>
<feBlend mode="normal" in="SourceGraphic" in2="effect1_dropShadow" result="shape"/>
</filter>
</defs>
</svg>
