<svg width="184" height="138" viewBox="0 0 184 138" fill="none" xmlns="http://www.w3.org/2000/svg">
<g filter="url(#filter0_d)">
<rect x="24" width="136" height="90" rx="8" fill="white"/>
</g>
<path d="M103.194 35C103.194 41.075 98.2269 46 92.0979 46C85.9689 46 81 41.075 81 35C81 28.925 85.9689 24 92.0979 24C98.2269 24 103.194 28.925 103.194 35Z" fill="#E50800"/>
<path d="M92.1855 41.1335C89.1373 41.1437 85.9648 38.5649 85.9505 34.4219C85.9403 31.6836 87.4328 29.0462 89.3371 27.482C91.1966 25.9582 93.7433 24.9781 96.0513 24.97C96.349 24.97 96.661 24.9942 96.8506 25.0589C94.832 25.4732 93.2254 27.3364 93.2315 29.4484C93.2315 29.519 93.2376 29.5938 93.2457 29.6282C96.6242 30.4447 98.1575 32.4656 98.1677 35.2606C98.1758 38.0576 95.9493 41.1213 92.1855 41.1334" fill="white"/>
<path d="M78.4155 69L74.0755 64.394V69H71.8915V59.032H74.0755V63.414L78.2615 59.032H80.8655L76.2315 63.792L81.0475 69H78.4155ZM89.0791 61.902V69H86.9931V67.95C86.7784 68.314 86.4751 68.5987 86.0831 68.804C85.6911 69.0093 85.2478 69.112 84.7531 69.112C84.1371 69.112 83.5911 68.9627 83.1151 68.664C82.6484 68.3653 82.2798 67.9407 82.0091 67.39C81.7478 66.83 81.6171 66.186 81.6171 65.458C81.6171 64.73 81.7478 64.0813 82.0091 63.512C82.2798 62.9427 82.6531 62.504 83.1291 62.196C83.6051 61.8787 84.1464 61.72 84.7531 61.72C85.2478 61.72 85.6911 61.8273 86.0831 62.042C86.4751 62.2567 86.7784 62.546 86.9931 62.91V61.902H89.0791ZM85.3691 67.502C85.8918 67.502 86.2931 67.3247 86.5731 66.97C86.8531 66.6153 86.9931 66.102 86.9931 65.43C86.9931 64.758 86.8531 64.2447 86.5731 63.89C86.2931 63.526 85.8918 63.344 85.3691 63.344C84.8464 63.344 84.4404 63.5307 84.1511 63.904C83.8618 64.2773 83.7171 64.7953 83.7171 65.458C83.7171 66.1207 83.8571 66.6293 84.1371 66.984C84.4264 67.3293 84.8371 67.502 85.3691 67.502ZM95.8254 61.72C96.4414 61.72 96.9874 61.874 97.4634 62.182C97.9394 62.4807 98.3081 62.91 98.5694 63.47C98.8308 64.0207 98.9614 64.66 98.9614 65.388C98.9614 66.116 98.8261 66.7647 98.5554 67.334C98.2941 67.894 97.9254 68.3327 97.4494 68.65C96.9734 68.958 96.4321 69.112 95.8254 69.112C95.3308 69.112 94.8828 69.0093 94.4814 68.804C94.0894 68.5893 93.7908 68.3 93.5854 67.936V69H91.4854V58.696H93.5994V62.896C93.8048 62.532 94.1034 62.2473 94.4954 62.042C94.8968 61.8273 95.3401 61.72 95.8254 61.72ZM95.2234 67.502C95.7461 67.502 96.1474 67.32 96.4274 66.956C96.7074 66.592 96.8474 66.0693 96.8474 65.388C96.8474 64.7347 96.7074 64.2307 96.4274 63.876C96.1474 63.5213 95.7461 63.344 95.2234 63.344C94.7008 63.344 94.2948 63.526 94.0054 63.89C93.7254 64.2447 93.5854 64.7533 93.5854 65.416C93.5854 66.088 93.7254 66.606 94.0054 66.97C94.2948 67.3247 94.7008 67.502 95.2234 67.502ZM107.387 65.626H102.711C102.749 66.2887 102.921 66.774 103.229 67.082C103.537 67.3807 103.995 67.53 104.601 67.53C104.965 67.53 105.329 67.4693 105.693 67.348C106.057 67.2267 106.393 67.0493 106.701 66.816L107.261 68.244C106.925 68.5147 106.505 68.7293 106.001 68.888C105.507 69.0373 105.007 69.112 104.503 69.112C103.309 69.112 102.371 68.7853 101.689 68.132C101.008 67.4693 100.667 66.5687 100.667 65.43C100.667 64.7113 100.812 64.072 101.101 63.512C101.4 62.9427 101.815 62.504 102.347 62.196C102.879 61.8787 103.481 61.72 104.153 61.72C105.152 61.72 105.941 62.0467 106.519 62.7C107.098 63.344 107.387 64.2167 107.387 65.318V65.626ZM104.209 63.204C103.808 63.204 103.481 63.3207 103.229 63.554C102.987 63.7873 102.828 64.128 102.753 64.576H105.567C105.455 63.6613 105.003 63.204 104.209 63.204ZM109.415 58.696H111.529V69H109.415V58.696Z" fill="#E50800"/>
<defs>
<filter id="filter0_d" x="0" y="0" width="184" height="138" filterUnits="userSpaceOnUse" color-interpolation-filters="sRGB">
<feFlood flood-opacity="0" result="BackgroundImageFix"/>
<feColorMatrix in="SourceAlpha" type="matrix" values="0 0 0 0 0 0 0 0 0 0 0 0 0 0 0 0 0 0 127 0"/>
<feOffset dy="24"/>
<feGaussianBlur stdDeviation="12"/>
<feColorMatrix type="matrix" values="0 0 0 0 0.2 0 0 0 0 0.2 0 0 0 0 0.2 0 0 0 0.1 0"/>
<feBlend mode="normal" in2="BackgroundImageFix" result="effect1_dropShadow"/>
<feBlend mode="normal" in="SourceGraphic" in2="effect1_dropShadow" result="shape"/>
</filter>
</defs>
</svg>
