<svg width="44" height="44" viewBox="0 0 44 44" fill="none" xmlns="http://www.w3.org/2000/svg">
<rect width="44" height="44" rx="8" fill="#333333"/>
<path d="M26.3686 19.4316V25.1358C26.3686 25.7996 25.829 26.3354 25.1658 26.3354H18.8709C18.2053 26.3354 17.668 25.7996 17.668 25.1358V18.8602C17.668 18.1964 18.2053 17.6606 18.8709 17.6606L24.5192 17.6582V14H18.8115C16.1538 14 14 16.148 14 18.7986V25.1974C14 27.8457 16.1538 29.9936 18.8115 29.9936H25.2252C27.8829 29.9936 30.0367 27.8457 30.0367 25.1974V19.4316H26.3686Z" fill="white"/>
<path d="M26.3589 14.0129V17.6616H30.0103C29.5539 15.8811 28.1418 14.4705 26.3589 14.0129Z" fill="#FF6600"/>
</svg>
