<svg width="136" height="90" viewBox="0 0 136 90" fill="none" xmlns="http://www.w3.org/2000/svg">
<rect width="136" height="90" rx="8" fill="white"/>
<path d="M79.1937 35C79.1937 41.075 74.2269 46 68.0979 46C61.9689 46 57 41.075 57 35C57 28.925 61.9689 24 68.0979 24C74.2269 24 79.1937 28.925 79.1937 35Z" fill="#E50800"/>
<path d="M68.1855 41.1332C65.1373 41.1435 61.9648 38.5646 61.9505 34.4217C61.9403 31.6833 63.4328 29.046 65.3371 27.4818C67.1966 25.958 69.7433 24.9778 72.0513 24.9697C72.349 24.9697 72.661 24.9939 72.8506 25.0586C70.832 25.4729 69.2254 27.3362 69.2315 29.4481C69.2315 29.5188 69.2376 29.5936 69.2457 29.628C72.6242 30.4444 74.1575 32.4654 74.1677 35.2603C74.1758 38.0573 71.9493 41.1211 68.1855 41.1332" fill="white"/>
<path d="M60.9103 60.81H57.7883V59.032H66.2443V60.81H63.1223V69H60.9103V60.81ZM77.8848 59.032L73.4048 69H71.6548L67.1748 59.032H69.4428L72.5508 66.27L75.6868 59.032H77.8848Z" fill="#E50800"/>
</svg>
