<svg width="44" height="44" viewBox="0 0 44 44" fill="none" xmlns="http://www.w3.org/2000/svg">
<rect x="0.5" y="0.5" width="43" height="43" rx="7.5" fill="white" stroke="#E0E0E0"/>
<path d="M33.1937 22.0001C33.1937 28.0751 28.2269 33.0001 22.0979 33.0001C15.9689 33.0001 11 28.0751 11 22.0001C11 15.9252 15.9689 11.0001 22.0979 11.0001C28.2269 11.0001 33.1937 15.9252 33.1937 22.0001Z" fill="#E50800"/>
<path d="M22.1855 28.1335C19.1373 28.1437 15.9648 25.5649 15.9505 21.4219C15.9403 18.6836 17.4328 16.0462 19.3371 14.482C21.1966 12.9582 23.7433 11.9781 26.0513 11.97C26.349 11.97 26.661 11.9942 26.8506 12.0589C24.832 12.4732 23.2254 14.3364 23.2315 16.4484C23.2315 16.519 23.2376 16.5938 23.2457 16.6282C26.6242 17.4447 28.1575 19.4656 28.1677 22.2606C28.1758 25.0576 25.9493 28.1213 22.1855 28.1334" fill="white"/>
</svg>
