<svg width="136" height="90" viewBox="0 0 136 90" fill="none" xmlns="http://www.w3.org/2000/svg">
<rect width="136" height="90" rx="8" fill="white"/>
<path d="M79.1937 35C79.1937 41.075 74.2269 46 68.0979 46C61.9689 46 57 41.075 57 35C57 28.925 61.9689 24 68.0979 24C74.2269 24 79.1937 28.925 79.1937 35Z" fill="#E50800"/>
<path d="M68.1855 41.1337C65.1373 41.144 61.9648 38.5651 61.9505 34.4222C61.9403 31.6838 63.4328 29.0465 65.3371 27.4823C67.1966 25.9585 69.7433 24.9783 72.0513 24.9702C72.349 24.9702 72.661 24.9944 72.8506 25.0591C70.832 25.4734 69.2254 27.3367 69.2315 29.4486C69.2315 29.5193 69.2376 29.5941 69.2457 29.6284C72.6242 30.4449 74.1575 32.4659 74.1677 35.2608C74.1758 38.0578 71.9493 41.1215 68.1855 41.1337" fill="white"/>
<path d="M37.5104 59.032H44.2304V60.754H39.6664V63.064H43.9504V64.8H39.6664V69H37.5104V59.032ZM52.3974 65.626H47.7214C47.7588 66.2887 47.9314 66.774 48.2394 67.082C48.5474 67.3807 49.0048 67.53 49.6114 67.53C49.9754 67.53 50.3394 67.4693 50.7034 67.348C51.0674 67.2267 51.4034 67.0493 51.7114 66.816L52.2714 68.244C51.9354 68.5147 51.5154 68.7293 51.0114 68.888C50.5168 69.0373 50.0174 69.112 49.5134 69.112C48.3188 69.112 47.3808 68.7853 46.6994 68.132C46.0181 67.4693 45.6774 66.5687 45.6774 65.43C45.6774 64.7113 45.8221 64.072 46.1114 63.512C46.4101 62.9427 46.8254 62.504 47.3574 62.196C47.8894 61.8787 48.4914 61.72 49.1634 61.72C50.1621 61.72 50.9508 62.0467 51.5294 62.7C52.1081 63.344 52.3974 64.2167 52.3974 65.318V65.626ZM49.2194 63.204C48.8181 63.204 48.4914 63.3207 48.2394 63.554C47.9968 63.7873 47.8381 64.128 47.7634 64.576H50.5774C50.4654 63.6613 50.0128 63.204 49.2194 63.204ZM57.1407 69.112C55.7967 69.112 54.7374 68.8227 53.9627 68.244L54.5227 66.774C54.896 67.0447 55.3114 67.2547 55.7687 67.404C56.226 67.544 56.6927 67.614 57.1687 67.614C57.5327 67.614 57.8127 67.558 58.0087 67.446C58.2047 67.334 58.3027 67.1707 58.3027 66.956C58.3027 66.7787 58.2327 66.6387 58.0927 66.536C57.9527 66.4333 57.7054 66.3447 57.3507 66.27L56.1887 66.004C55.5074 65.8547 55.0034 65.6167 54.6767 65.29C54.3594 64.9633 54.2007 64.5293 54.2007 63.988C54.2007 63.5493 54.3267 63.1573 54.5787 62.812C54.84 62.4667 55.1994 62.2007 55.6567 62.014C56.114 61.818 56.6414 61.72 57.2387 61.72C57.7427 61.72 58.2374 61.7993 58.7227 61.958C59.208 62.1073 59.642 62.322 60.0247 62.602L59.4367 64.016C59.0727 63.764 58.6994 63.5727 58.3167 63.442C57.9434 63.3113 57.5794 63.246 57.2247 63.246C56.8794 63.246 56.6087 63.3067 56.4127 63.428C56.2167 63.5493 56.1187 63.7173 56.1187 63.932C56.1187 64.0907 56.1747 64.2213 56.2867 64.324C56.408 64.4173 56.618 64.4967 56.9167 64.562L58.1067 64.828C58.8347 64.996 59.362 65.248 59.6887 65.584C60.0154 65.92 60.1787 66.368 60.1787 66.928C60.1787 67.6 59.908 68.132 59.3667 68.524C58.8254 68.916 58.0834 69.112 57.1407 69.112ZM64.7574 63.484V66.242C64.7574 66.634 64.86 66.9233 65.0654 67.11C65.2707 67.2873 65.5367 67.376 65.8634 67.376C66.0687 67.376 66.302 67.3433 66.5634 67.278V68.916C66.2274 69.0467 65.8214 69.112 65.3454 69.112C64.468 69.112 63.796 68.8647 63.3294 68.37C62.872 67.8753 62.6434 67.18 62.6434 66.284V63.484H61.2994V61.902H62.6434V60.236L64.7574 59.55V61.902H66.5634V63.484H64.7574ZM72.7301 61.72C74.4101 61.72 75.2501 62.714 75.2501 64.702V69H73.1361V64.8C73.1361 64.3053 73.0428 63.946 72.8561 63.722C72.6788 63.4887 72.3941 63.372 72.0021 63.372C71.5355 63.372 71.1621 63.5213 70.8821 63.82C70.6021 64.1187 70.4621 64.52 70.4621 65.024V69H68.3481V63.932C68.3481 63.176 68.3108 62.4993 68.2361 61.902H70.2241L70.3641 63.022C70.6161 62.602 70.9428 62.28 71.3441 62.056C71.7548 61.832 72.2168 61.72 72.7301 61.72ZM84.0041 65.626H79.3281C79.3654 66.2887 79.5381 66.774 79.8461 67.082C80.1541 67.3807 80.6114 67.53 81.2181 67.53C81.5821 67.53 81.9461 67.4693 82.3101 67.348C82.6741 67.2267 83.0101 67.0493 83.3181 66.816L83.8781 68.244C83.5421 68.5147 83.1221 68.7293 82.6181 68.888C82.1234 69.0373 81.6241 69.112 81.1201 69.112C79.9254 69.112 78.9874 68.7853 78.3061 68.132C77.6247 67.4693 77.2841 66.5687 77.2841 65.43C77.2841 64.7113 77.4287 64.072 77.7181 63.512C78.0167 62.9427 78.4321 62.504 78.9641 62.196C79.4961 61.8787 80.0981 61.72 80.7701 61.72C81.7687 61.72 82.5574 62.0467 83.1361 62.7C83.7147 63.344 84.0041 64.2167 84.0041 65.318V65.626ZM80.8261 63.204C80.4247 63.204 80.0981 63.3207 79.8461 63.554C79.6034 63.7873 79.4447 64.128 79.3701 64.576H82.1841C82.0721 63.6613 81.6194 63.204 80.8261 63.204ZM88.5546 63.484V66.242C88.5546 66.634 88.6573 66.9233 88.8626 67.11C89.068 67.2873 89.334 67.376 89.6606 67.376C89.866 67.376 90.0993 67.3433 90.3606 67.278V68.916C90.0246 69.0467 89.6186 69.112 89.1426 69.112C88.2653 69.112 87.5933 68.8647 87.1266 68.37C86.6693 67.8753 86.4406 67.18 86.4406 66.284V63.484H85.0966V61.902H86.4406V60.236L88.5546 59.55V61.902H90.3606V63.484H88.5546ZM98.2898 67.418V69H92.0318V67.516L95.6158 63.484H92.0878V61.902H98.1498V63.33L94.5098 67.418H98.2898Z" fill="#E50800"/>
</svg>
