<svg width="43" height="112" viewBox="0 0 43 112" fill="none" xmlns="http://www.w3.org/2000/svg">
<path d="M5.984 102.016L3.786 107H3.177L0.979 102.016H1.735L3.485 106.09L5.242 102.016H5.984ZM10.9401 102.016L8.74205 107H8.13305L5.93505 102.016H6.69105L8.44105 106.09L10.1981 102.016H10.9401ZM11.4931 102.016H12.2141V106.398H14.6361V107H11.4931V102.016ZM21.1836 103.388C21.9676 103.388 22.3596 103.859 22.3596 104.802V107H21.6526V104.837C21.6526 104.534 21.599 104.312 21.4916 104.172C21.389 104.032 21.221 103.962 20.9876 103.962C20.717 103.962 20.5023 104.055 20.3436 104.242C20.1896 104.429 20.1126 104.683 20.1126 105.005V107H19.4056V104.837C19.4056 104.534 19.352 104.312 19.2446 104.172C19.142 104.032 18.974 103.962 18.7406 103.962C18.47 103.962 18.2553 104.055 18.0966 104.242C17.938 104.429 17.8586 104.683 17.8586 105.005V107H17.1586V104.466C17.1586 104.097 17.14 103.766 17.1026 103.472H17.7606L17.8236 104.06C17.9263 103.845 18.0733 103.68 18.2646 103.563C18.456 103.446 18.68 103.388 18.9366 103.388C19.4826 103.388 19.8396 103.614 20.0076 104.067C20.115 103.857 20.2713 103.691 20.4766 103.57C20.6866 103.449 20.9223 103.388 21.1836 103.388ZM24.8915 107.049C24.5462 107.049 24.2428 106.974 23.9815 106.825C23.7202 106.676 23.5172 106.463 23.3725 106.188C23.2325 105.913 23.1625 105.591 23.1625 105.222C23.1625 104.853 23.2325 104.531 23.3725 104.256C23.5172 103.976 23.7202 103.761 23.9815 103.612C24.2428 103.463 24.5462 103.388 24.8915 103.388C25.2322 103.388 25.5332 103.463 25.7945 103.612C26.0558 103.761 26.2565 103.976 26.3965 104.256C26.5412 104.531 26.6135 104.853 26.6135 105.222C26.6135 105.591 26.5412 105.913 26.3965 106.188C26.2565 106.463 26.0558 106.676 25.7945 106.825C25.5332 106.974 25.2322 107.049 24.8915 107.049ZM24.8845 106.489C25.2112 106.489 25.4608 106.382 25.6335 106.167C25.8062 105.952 25.8925 105.637 25.8925 105.222C25.8925 104.816 25.8038 104.503 25.6265 104.284C25.4538 104.065 25.2088 103.955 24.8915 103.955C24.5695 103.955 24.3198 104.065 24.1425 104.284C23.9652 104.503 23.8765 104.816 23.8765 105.222C23.8765 105.637 23.9628 105.952 24.1355 106.167C24.3128 106.382 24.5625 106.489 24.8845 106.489ZM24.6255 101.953V102.653H23.8975V101.953H24.6255ZM25.8785 101.953V102.653H25.1505V101.953H25.8785ZM30.6949 103.472V106.937C30.6949 107.474 30.5525 107.877 30.2679 108.148C29.9879 108.423 29.5702 108.561 29.0149 108.561C28.4782 108.561 28.0092 108.444 27.6079 108.211L27.7269 107.658C27.9462 107.775 28.1562 107.861 28.3569 107.917C28.5622 107.973 28.7792 108.001 29.0079 108.001C29.6659 108.001 29.9949 107.665 29.9949 106.993V106.23C29.8875 106.435 29.7312 106.599 29.5259 106.72C29.3205 106.837 29.0825 106.895 28.8119 106.895C28.5039 106.895 28.2285 106.823 27.9859 106.678C27.7479 106.533 27.5612 106.328 27.4259 106.062C27.2952 105.796 27.2299 105.49 27.2299 105.145C27.2299 104.8 27.2952 104.494 27.4259 104.228C27.5612 103.962 27.7479 103.757 27.9859 103.612C28.2285 103.463 28.5039 103.388 28.8119 103.388C29.0825 103.388 29.3205 103.446 29.5259 103.563C29.7312 103.675 29.8875 103.836 29.9949 104.046V103.472H30.6949ZM28.9729 106.328C29.2902 106.328 29.5399 106.223 29.7219 106.013C29.9039 105.803 29.9949 105.514 29.9949 105.145C29.9949 104.776 29.9039 104.487 29.7219 104.277C29.5445 104.062 29.2949 103.955 28.9729 103.955C28.6555 103.955 28.4035 104.062 28.2169 104.277C28.0349 104.487 27.9439 104.776 27.9439 105.145C27.9439 105.509 28.0349 105.798 28.2169 106.013C28.4035 106.223 28.6555 106.328 28.9729 106.328ZM31.7328 101.848H32.4328V107H31.7328V101.848ZM33.4692 103.472H34.1692V107H33.4692V103.472ZM34.2252 101.932V102.674H33.4062V101.932H34.2252ZM36.7385 107.049C36.3838 107.049 36.0735 106.974 35.8075 106.825C35.5462 106.676 35.3455 106.466 35.2055 106.195C35.0655 105.92 34.9955 105.6 34.9955 105.236C34.9955 104.872 35.0678 104.55 35.2125 104.27C35.3618 103.99 35.5695 103.773 35.8355 103.619C36.1015 103.465 36.4118 103.388 36.7665 103.388C37.0138 103.388 37.2518 103.43 37.4805 103.514C37.7092 103.593 37.8935 103.703 38.0335 103.843L37.8165 104.354C37.4852 104.093 37.1515 103.962 36.8155 103.962C36.4748 103.962 36.2088 104.074 36.0175 104.298C35.8262 104.517 35.7305 104.828 35.7305 105.229C35.7305 105.63 35.8262 105.941 36.0175 106.16C36.2088 106.375 36.4748 106.482 36.8155 106.482C37.1608 106.482 37.4945 106.351 37.8165 106.09L38.0335 106.601C37.8842 106.741 37.6928 106.851 37.4595 106.93C37.2308 107.009 36.9905 107.049 36.7385 107.049ZM40.5747 103.388C41.4193 103.388 41.8417 103.859 41.8417 104.802V107H41.1347V104.844C41.1347 104.536 41.074 104.312 40.9527 104.172C40.836 104.032 40.647 103.962 40.3857 103.962C40.087 103.962 39.8467 104.055 39.6647 104.242C39.4873 104.429 39.3987 104.678 39.3987 104.991V107H38.6987V101.848H39.3987V104.018C39.5153 103.813 39.6763 103.656 39.8817 103.549C40.087 103.442 40.318 103.388 40.5747 103.388Z" fill="#828282"/>
<rect x="6.5" y="65.5" width="31" height="31" rx="10.5" fill="#828282" stroke="#F0F5FB" stroke-linecap="round" stroke-linejoin="round"/>
<rect x="6.5" y="0.5" width="31" height="31" rx="10.5" fill="#828282" stroke="#F0F5FB" stroke-linecap="round" stroke-linejoin="round"/>
<rect x="6.5" y="32.5" width="31" height="32" rx="10.5" fill="#828282" stroke="#F0F5FB" stroke-linecap="round" stroke-linejoin="round"/>
<circle cx="22" cy="16" r="10" fill="#D32D1F" fill-opacity="0.3"/>
<circle cx="22" cy="49" r="10" fill="#F2C94C" fill-opacity="0.3"/>
<circle cx="22" cy="82" r="9.5" fill="#219653" stroke="#E0E0E0"/>
</svg>
