<svg width="64" height="112" viewBox="0 0 64 112" fill="none" xmlns="http://www.w3.org/2000/svg">
<path d="M2.905 107L1.218 105.334V107H0.518V101.848H1.218V105.068L2.786 103.479H3.661L1.974 105.173L3.808 107H2.905ZM7.19206 105.25H4.67206C4.6954 106.076 5.07106 106.489 5.79906 106.489C6.20506 106.489 6.57606 106.356 6.91206 106.09L7.12906 106.594C6.9704 106.734 6.7674 106.846 6.52006 106.93C6.2774 107.009 6.0324 107.049 5.78506 107.049C5.2204 107.049 4.77706 106.888 4.45506 106.566C4.13306 106.239 3.97206 105.794 3.97206 105.229C3.97206 104.87 4.04206 104.55 4.18206 104.27C4.32673 103.99 4.5274 103.773 4.78406 103.619C5.04073 103.465 5.3324 103.388 5.65906 103.388C6.13506 103.388 6.5084 103.542 6.77906 103.85C7.0544 104.158 7.19206 104.585 7.19206 105.131V105.25ZM5.67306 103.913C5.40706 103.913 5.19006 103.992 5.02206 104.151C4.85406 104.31 4.74673 104.536 4.70006 104.83H6.56906C6.54106 104.531 6.45006 104.305 6.29606 104.151C6.14206 103.992 5.9344 103.913 5.67306 103.913ZM8.00335 103.472H8.70335V107H8.00335V103.472ZM8.75935 101.932V102.674H7.94035V101.932H8.75935ZM11.6157 103.388C12.4603 103.388 12.8827 103.859 12.8827 104.802V107H12.1757V104.844C12.1757 104.536 12.115 104.312 11.9937 104.172C11.877 104.032 11.688 103.962 11.4267 103.962C11.128 103.962 10.8877 104.055 10.7057 104.242C10.5283 104.429 10.4397 104.678 10.4397 104.991V107H9.73968V104.466C9.73968 104.097 9.72101 103.766 9.68368 103.472H10.3417L10.4047 104.081C10.5167 103.857 10.6777 103.687 10.8877 103.57C11.1023 103.449 11.345 103.388 11.6157 103.388ZM16.8991 105.25H14.3791C14.4024 106.076 14.7781 106.489 15.5061 106.489C15.9121 106.489 16.2831 106.356 16.6191 106.09L16.8361 106.594C16.6774 106.734 16.4744 106.846 16.2271 106.93C15.9844 107.009 15.7394 107.049 15.4921 107.049C14.9274 107.049 14.4841 106.888 14.1621 106.566C13.8401 106.239 13.6791 105.794 13.6791 105.229C13.6791 104.87 13.7491 104.55 13.8891 104.27C14.0338 103.99 14.2344 103.773 14.4911 103.619C14.7478 103.465 15.0394 103.388 15.3661 103.388C15.8421 103.388 16.2154 103.542 16.4861 103.85C16.7614 104.158 16.8991 104.585 16.8991 105.131V105.25ZM15.3801 103.913C15.1141 103.913 14.8971 103.992 14.7291 104.151C14.5611 104.31 14.4538 104.536 14.4071 104.83H16.2761C16.2481 104.531 16.1571 104.305 16.0031 104.151C15.8491 103.992 15.6414 103.913 15.3801 103.913ZM24.0426 102.016L21.8446 107H21.2356L19.0376 102.016H19.7936L21.5436 106.09L23.3006 102.016H24.0426ZM28.9986 102.016L26.8006 107H26.1916L23.9936 102.016H24.7496L26.4996 106.09L28.2566 102.016H28.9986ZM29.5517 102.016H30.2727V106.398H32.6947V107H29.5517V102.016ZM39.2422 103.388C40.0262 103.388 40.4182 103.859 40.4182 104.802V107H39.7112V104.837C39.7112 104.534 39.6576 104.312 39.5502 104.172C39.4476 104.032 39.2796 103.962 39.0462 103.962C38.7756 103.962 38.5609 104.055 38.4022 104.242C38.2482 104.429 38.1712 104.683 38.1712 105.005V107H37.4642V104.837C37.4642 104.534 37.4106 104.312 37.3032 104.172C37.2006 104.032 37.0326 103.962 36.7992 103.962C36.5286 103.962 36.3139 104.055 36.1552 104.242C35.9966 104.429 35.9172 104.683 35.9172 105.005V107H35.2172V104.466C35.2172 104.097 35.1986 103.766 35.1612 103.472H35.8192L35.8822 104.06C35.9849 103.845 36.1319 103.68 36.3232 103.563C36.5146 103.446 36.7386 103.388 36.9952 103.388C37.5412 103.388 37.8982 103.614 38.0662 104.067C38.1736 103.857 38.3299 103.691 38.5352 103.57C38.7452 103.449 38.9809 103.388 39.2422 103.388ZM42.9501 107.049C42.6048 107.049 42.3014 106.974 42.0401 106.825C41.7788 106.676 41.5758 106.463 41.4311 106.188C41.2911 105.913 41.2211 105.591 41.2211 105.222C41.2211 104.853 41.2911 104.531 41.4311 104.256C41.5758 103.976 41.7788 103.761 42.0401 103.612C42.3014 103.463 42.6048 103.388 42.9501 103.388C43.2908 103.388 43.5918 103.463 43.8531 103.612C44.1144 103.761 44.3151 103.976 44.4551 104.256C44.5998 104.531 44.6721 104.853 44.6721 105.222C44.6721 105.591 44.5998 105.913 44.4551 106.188C44.3151 106.463 44.1144 106.676 43.8531 106.825C43.5918 106.974 43.2908 107.049 42.9501 107.049ZM42.9431 106.489C43.2698 106.489 43.5194 106.382 43.6921 106.167C43.8648 105.952 43.9511 105.637 43.9511 105.222C43.9511 104.816 43.8624 104.503 43.6851 104.284C43.5124 104.065 43.2674 103.955 42.9501 103.955C42.6281 103.955 42.3784 104.065 42.2011 104.284C42.0238 104.503 41.9351 104.816 41.9351 105.222C41.9351 105.637 42.0214 105.952 42.1941 106.167C42.3714 106.382 42.6211 106.489 42.9431 106.489ZM42.6841 101.953V102.653H41.9561V101.953H42.6841ZM43.9371 101.953V102.653H43.2091V101.953H43.9371ZM48.7535 103.472V106.937C48.7535 107.474 48.6111 107.877 48.3265 108.148C48.0465 108.423 47.6288 108.561 47.0735 108.561C46.5368 108.561 46.0678 108.444 45.6665 108.211L45.7855 107.658C46.0048 107.775 46.2148 107.861 46.4155 107.917C46.6208 107.973 46.8378 108.001 47.0665 108.001C47.7245 108.001 48.0535 107.665 48.0535 106.993V106.23C47.9461 106.435 47.7898 106.599 47.5845 106.72C47.3791 106.837 47.1411 106.895 46.8705 106.895C46.5625 106.895 46.2871 106.823 46.0445 106.678C45.8065 106.533 45.6198 106.328 45.4845 106.062C45.3538 105.796 45.2885 105.49 45.2885 105.145C45.2885 104.8 45.3538 104.494 45.4845 104.228C45.6198 103.962 45.8065 103.757 46.0445 103.612C46.2871 103.463 46.5625 103.388 46.8705 103.388C47.1411 103.388 47.3791 103.446 47.5845 103.563C47.7898 103.675 47.9461 103.836 48.0535 104.046V103.472H48.7535ZM47.0315 106.328C47.3488 106.328 47.5985 106.223 47.7805 106.013C47.9625 105.803 48.0535 105.514 48.0535 105.145C48.0535 104.776 47.9625 104.487 47.7805 104.277C47.6031 104.062 47.3535 103.955 47.0315 103.955C46.7141 103.955 46.4621 104.062 46.2755 104.277C46.0935 104.487 46.0025 104.776 46.0025 105.145C46.0025 105.509 46.0935 105.798 46.2755 106.013C46.4621 106.223 46.7141 106.328 47.0315 106.328ZM49.7914 101.848H50.4914V107H49.7914V101.848ZM51.5278 103.472H52.2278V107H51.5278V103.472ZM52.2838 101.932V102.674H51.4648V101.932H52.2838ZM54.7971 107.049C54.4424 107.049 54.1321 106.974 53.8661 106.825C53.6048 106.676 53.4041 106.466 53.2641 106.195C53.1241 105.92 53.0541 105.6 53.0541 105.236C53.0541 104.872 53.1264 104.55 53.2711 104.27C53.4204 103.99 53.6281 103.773 53.8941 103.619C54.1601 103.465 54.4704 103.388 54.8251 103.388C55.0724 103.388 55.3104 103.43 55.5391 103.514C55.7678 103.593 55.9521 103.703 56.0921 103.843L55.8751 104.354C55.5438 104.093 55.2101 103.962 54.8741 103.962C54.5334 103.962 54.2674 104.074 54.0761 104.298C53.8848 104.517 53.7891 104.828 53.7891 105.229C53.7891 105.63 53.8848 105.941 54.0761 106.16C54.2674 106.375 54.5334 106.482 54.8741 106.482C55.2194 106.482 55.5531 106.351 55.8751 106.09L56.0921 106.601C55.9428 106.741 55.7514 106.851 55.5181 106.93C55.2894 107.009 55.0491 107.049 54.7971 107.049ZM58.6333 103.388C59.4779 103.388 59.9003 103.859 59.9003 104.802V107H59.1933V104.844C59.1933 104.536 59.1326 104.312 59.0113 104.172C58.8946 104.032 58.7056 103.962 58.4443 103.962C58.1456 103.962 57.9053 104.055 57.7233 104.242C57.5459 104.429 57.4573 104.678 57.4573 104.991V107H56.7573V101.848H57.4573V104.018C57.5739 103.813 57.7349 103.656 57.9403 103.549C58.1456 103.442 58.3766 103.388 58.6333 103.388Z" fill="#828282"/>
<rect x="16.5" y="65.5" width="31" height="31" rx="10.5" fill="#828282" stroke="#F0F5FB" stroke-linecap="round" stroke-linejoin="round"/>
<rect x="16.5" y="0.5" width="31" height="31" rx="10.5" fill="#828282" stroke="#F0F5FB" stroke-linecap="round" stroke-linejoin="round"/>
<rect x="16.5" y="32.5" width="31" height="32" rx="10.5" fill="#828282" stroke="#F0F5FB" stroke-linecap="round" stroke-linejoin="round"/>
<circle cx="32" cy="16" r="9.5" fill="#D32D1F" stroke="#E0E0E0"/>
<path d="M42 49C42 54.5228 37.5228 59 32 59C26.4772 59 22 54.5228 22 49C22 43.4772 26.4772 39 32 39C37.5228 39 42 43.4772 42 49Z" fill="#F2C94C" fill-opacity="0.3"/>
<circle cx="32" cy="82" r="10" fill="#219653" fill-opacity="0.3"/>
</svg>
