<svg width="59" height="112" viewBox="0 0 59 112" fill="none" xmlns="http://www.w3.org/2000/svg">
<path d="M5.984 102.016L3.786 107H3.177L0.979 102.016H1.735L3.485 106.09L5.242 102.016H5.984ZM10.9401 102.016L8.74205 107H8.13305L5.93505 102.016H6.69105L8.44105 106.09L10.1981 102.016H10.9401ZM11.4931 102.016H12.2141V106.398H14.6361V107H11.4931V102.016ZM15.6636 102.618H13.9766V102.016H18.0786V102.618H16.3916V107H15.6636V102.618ZM25.9108 102.016L24.1538 107H23.5518L22.2078 103.15L20.8568 107H20.2548L18.5048 102.016H19.2398L20.5768 105.978L21.9558 102.016L22.4878 102.023L23.8458 105.999L25.2038 102.016H25.9108ZM32.5244 103.388C33.3084 103.388 33.7004 103.859 33.7004 104.802V107H32.9934V104.837C32.9934 104.534 32.9398 104.312 32.8324 104.172C32.7298 104.032 32.5618 103.962 32.3284 103.962C32.0578 103.962 31.8431 104.055 31.6844 104.242C31.5304 104.429 31.4534 104.683 31.4534 105.005V107H30.7464V104.837C30.7464 104.534 30.6928 104.312 30.5854 104.172C30.4828 104.032 30.3148 103.962 30.0814 103.962C29.8108 103.962 29.5961 104.055 29.4374 104.242C29.2788 104.429 29.1994 104.683 29.1994 105.005V107H28.4994V104.466C28.4994 104.097 28.4808 103.766 28.4434 103.472H29.1014L29.1644 104.06C29.2671 103.845 29.4141 103.68 29.6054 103.563C29.7968 103.446 30.0208 103.388 30.2774 103.388C30.8234 103.388 31.1804 103.614 31.3484 104.067C31.4558 103.857 31.6121 103.691 31.8174 103.57C32.0274 103.449 32.2631 103.388 32.5244 103.388ZM36.2323 107.049C35.887 107.049 35.5836 106.974 35.3223 106.825C35.061 106.676 34.858 106.463 34.7133 106.188C34.5733 105.913 34.5033 105.591 34.5033 105.222C34.5033 104.853 34.5733 104.531 34.7133 104.256C34.858 103.976 35.061 103.761 35.3223 103.612C35.5836 103.463 35.887 103.388 36.2323 103.388C36.573 103.388 36.874 103.463 37.1353 103.612C37.3966 103.761 37.5973 103.976 37.7373 104.256C37.882 104.531 37.9543 104.853 37.9543 105.222C37.9543 105.591 37.882 105.913 37.7373 106.188C37.5973 106.463 37.3966 106.676 37.1353 106.825C36.874 106.974 36.573 107.049 36.2323 107.049ZM36.2253 106.489C36.552 106.489 36.8016 106.382 36.9743 106.167C37.147 105.952 37.2333 105.637 37.2333 105.222C37.2333 104.816 37.1446 104.503 36.9673 104.284C36.7946 104.065 36.5496 103.955 36.2323 103.955C35.9103 103.955 35.6606 104.065 35.4833 104.284C35.306 104.503 35.2173 104.816 35.2173 105.222C35.2173 105.637 35.3036 105.952 35.4763 106.167C35.6536 106.382 35.9033 106.489 36.2253 106.489ZM35.9663 101.953V102.653H35.2383V101.953H35.9663ZM37.2193 101.953V102.653H36.4913V101.953H37.2193ZM42.0357 103.472V106.937C42.0357 107.474 41.8934 107.877 41.6087 108.148C41.3287 108.423 40.911 108.561 40.3557 108.561C39.819 108.561 39.35 108.444 38.9487 108.211L39.0677 107.658C39.287 107.775 39.497 107.861 39.6977 107.917C39.903 107.973 40.12 108.001 40.3487 108.001C41.0067 108.001 41.3357 107.665 41.3357 106.993V106.23C41.2284 106.435 41.072 106.599 40.8667 106.72C40.6614 106.837 40.4234 106.895 40.1527 106.895C39.8447 106.895 39.5694 106.823 39.3267 106.678C39.0887 106.533 38.902 106.328 38.7667 106.062C38.636 105.796 38.5707 105.49 38.5707 105.145C38.5707 104.8 38.636 104.494 38.7667 104.228C38.902 103.962 39.0887 103.757 39.3267 103.612C39.5694 103.463 39.8447 103.388 40.1527 103.388C40.4234 103.388 40.6614 103.446 40.8667 103.563C41.072 103.675 41.2284 103.836 41.3357 104.046V103.472H42.0357ZM40.3137 106.328C40.631 106.328 40.8807 106.223 41.0627 106.013C41.2447 105.803 41.3357 105.514 41.3357 105.145C41.3357 104.776 41.2447 104.487 41.0627 104.277C40.8854 104.062 40.6357 103.955 40.3137 103.955C39.9964 103.955 39.7444 104.062 39.5577 104.277C39.3757 104.487 39.2847 104.776 39.2847 105.145C39.2847 105.509 39.3757 105.798 39.5577 106.013C39.7444 106.223 39.9964 106.328 40.3137 106.328ZM43.0737 101.848H43.7737V107H43.0737V101.848ZM44.81 103.472H45.51V107H44.81V103.472ZM45.566 101.932V102.674H44.747V101.932H45.566ZM48.0793 107.049C47.7247 107.049 47.4143 106.974 47.1483 106.825C46.887 106.676 46.6863 106.466 46.5463 106.195C46.4063 105.92 46.3363 105.6 46.3363 105.236C46.3363 104.872 46.4087 104.55 46.5533 104.27C46.7027 103.99 46.9103 103.773 47.1763 103.619C47.4423 103.465 47.7527 103.388 48.1073 103.388C48.3547 103.388 48.5927 103.43 48.8213 103.514C49.05 103.593 49.2343 103.703 49.3743 103.843L49.1573 104.354C48.826 104.093 48.4923 103.962 48.1563 103.962C47.8157 103.962 47.5497 104.074 47.3583 104.298C47.167 104.517 47.0713 104.828 47.0713 105.229C47.0713 105.63 47.167 105.941 47.3583 106.16C47.5497 106.375 47.8157 106.482 48.1563 106.482C48.5017 106.482 48.8353 106.351 49.1573 106.09L49.3743 106.601C49.225 106.741 49.0337 106.851 48.8003 106.93C48.5717 107.009 48.3313 107.049 48.0793 107.049ZM51.9155 103.388C52.7602 103.388 53.1825 103.859 53.1825 104.802V107H52.4755V104.844C52.4755 104.536 52.4148 104.312 52.2935 104.172C52.1768 104.032 51.9878 103.962 51.7265 103.962C51.4278 103.962 51.1875 104.055 51.0055 104.242C50.8282 104.429 50.7395 104.678 50.7395 104.991V107H50.0395V101.848H50.7395V104.018C50.8562 103.813 51.0172 103.656 51.2225 103.549C51.4278 103.442 51.6588 103.388 51.9155 103.388Z" fill="#828282"/>
<rect x="11.5" y="65.5" width="31" height="31" rx="10.5" fill="#828282" stroke="#F0F5FB" stroke-linecap="round" stroke-linejoin="round"/>
<rect x="11.5" y="0.5" width="31" height="31" rx="10.5" fill="#828282" stroke="#F0F5FB" stroke-linecap="round" stroke-linejoin="round"/>
<rect x="11.5" y="32.5" width="31" height="32" rx="10.5" fill="#828282" stroke="#F0F5FB" stroke-linecap="round" stroke-linejoin="round"/>
<circle cx="27" cy="16" r="9.5" fill="#D32D1F" fill-opacity="0.3" stroke="#E0E0E0"/>
<circle cx="27" cy="49" r="9.5" fill="#F2C94C" stroke="#E0E0E0"/>
<circle cx="27" cy="82" r="9.5" fill="#219653" fill-opacity="0.3" stroke="#E0E0E0"/>
</svg>
