<svg width="47" height="112" viewBox="0 0 47 112" fill="none" xmlns="http://www.w3.org/2000/svg">
<path d="M3.724 103.479L2.191 107H1.554L0.035 103.479H0.784L1.89 106.202L3.017 103.479H3.724ZM8.73693 102.016L6.53893 107H5.92993L3.73193 102.016H4.48793L6.23793 106.09L7.99493 102.016H8.73693ZM13.693 102.016L11.495 107H10.886L8.68798 102.016H9.44398L11.194 106.09L12.951 102.016H13.693ZM14.246 102.016H14.967V106.398H17.389V107H14.246V102.016ZM23.9366 103.388C24.7206 103.388 25.1126 103.859 25.1126 104.802V107H24.4056V104.837C24.4056 104.534 24.3519 104.312 24.2446 104.172C24.1419 104.032 23.9739 103.962 23.7406 103.962C23.4699 103.962 23.2552 104.055 23.0966 104.242C22.9426 104.429 22.8656 104.683 22.8656 105.005V107H22.1586V104.837C22.1586 104.534 22.1049 104.312 21.9976 104.172C21.8949 104.032 21.7269 103.962 21.4936 103.962C21.2229 103.962 21.0082 104.055 20.8496 104.242C20.6909 104.429 20.6116 104.683 20.6116 105.005V107H19.9116V104.466C19.9116 104.097 19.8929 103.766 19.8556 103.472H20.5136L20.5766 104.06C20.6792 103.845 20.8262 103.68 21.0176 103.563C21.2089 103.446 21.4329 103.388 21.6896 103.388C22.2356 103.388 22.5926 103.614 22.7606 104.067C22.8679 103.857 23.0242 103.691 23.2296 103.57C23.4396 103.449 23.6752 103.388 23.9366 103.388ZM27.6444 107.049C27.2991 107.049 26.9958 106.974 26.7344 106.825C26.4731 106.676 26.2701 106.463 26.1254 106.188C25.9854 105.913 25.9154 105.591 25.9154 105.222C25.9154 104.853 25.9854 104.531 26.1254 104.256C26.2701 103.976 26.4731 103.761 26.7344 103.612C26.9958 103.463 27.2991 103.388 27.6444 103.388C27.9851 103.388 28.2861 103.463 28.5474 103.612C28.8088 103.761 29.0094 103.976 29.1494 104.256C29.2941 104.531 29.3664 104.853 29.3664 105.222C29.3664 105.591 29.2941 105.913 29.1494 106.188C29.0094 106.463 28.8088 106.676 28.5474 106.825C28.2861 106.974 27.9851 107.049 27.6444 107.049ZM27.6374 106.489C27.9641 106.489 28.2138 106.382 28.3864 106.167C28.5591 105.952 28.6454 105.637 28.6454 105.222C28.6454 104.816 28.5568 104.503 28.3794 104.284C28.2068 104.065 27.9618 103.955 27.6444 103.955C27.3224 103.955 27.0728 104.065 26.8954 104.284C26.7181 104.503 26.6294 104.816 26.6294 105.222C26.6294 105.637 26.7158 105.952 26.8884 106.167C27.0658 106.382 27.3154 106.489 27.6374 106.489ZM27.3784 101.953V102.653H26.6504V101.953H27.3784ZM28.6314 101.953V102.653H27.9034V101.953H28.6314ZM33.4478 103.472V106.937C33.4478 107.474 33.3055 107.877 33.0208 108.148C32.7408 108.423 32.3231 108.561 31.7678 108.561C31.2311 108.561 30.7621 108.444 30.3608 108.211L30.4798 107.658C30.6991 107.775 30.9091 107.861 31.1098 107.917C31.3151 107.973 31.5321 108.001 31.7608 108.001C32.4188 108.001 32.7478 107.665 32.7478 106.993V106.23C32.6405 106.435 32.4841 106.599 32.2788 106.72C32.0735 106.837 31.8355 106.895 31.5648 106.895C31.2568 106.895 30.9815 106.823 30.7388 106.678C30.5008 106.533 30.3141 106.328 30.1788 106.062C30.0481 105.796 29.9828 105.49 29.9828 105.145C29.9828 104.8 30.0481 104.494 30.1788 104.228C30.3141 103.962 30.5008 103.757 30.7388 103.612C30.9815 103.463 31.2568 103.388 31.5648 103.388C31.8355 103.388 32.0735 103.446 32.2788 103.563C32.4841 103.675 32.6405 103.836 32.7478 104.046V103.472H33.4478ZM31.7258 106.328C32.0431 106.328 32.2928 106.223 32.4748 106.013C32.6568 105.803 32.7478 105.514 32.7478 105.145C32.7478 104.776 32.6568 104.487 32.4748 104.277C32.2975 104.062 32.0478 103.955 31.7258 103.955C31.4085 103.955 31.1565 104.062 30.9698 104.277C30.7878 104.487 30.6968 104.776 30.6968 105.145C30.6968 105.509 30.7878 105.798 30.9698 106.013C31.1565 106.223 31.4085 106.328 31.7258 106.328ZM34.4858 101.848H35.1858V107H34.4858V101.848ZM36.2221 103.472H36.9221V107H36.2221V103.472ZM36.9781 101.932V102.674H36.1591V101.932H36.9781ZM39.4914 107.049C39.1368 107.049 38.8264 106.974 38.5604 106.825C38.2991 106.676 38.0984 106.466 37.9584 106.195C37.8184 105.92 37.7484 105.6 37.7484 105.236C37.7484 104.872 37.8208 104.55 37.9654 104.27C38.1148 103.99 38.3224 103.773 38.5884 103.619C38.8544 103.465 39.1648 103.388 39.5194 103.388C39.7668 103.388 40.0048 103.43 40.2334 103.514C40.4621 103.593 40.6464 103.703 40.7864 103.843L40.5694 104.354C40.2381 104.093 39.9044 103.962 39.5684 103.962C39.2278 103.962 38.9618 104.074 38.7704 104.298C38.5791 104.517 38.4834 104.828 38.4834 105.229C38.4834 105.63 38.5791 105.941 38.7704 106.16C38.9618 106.375 39.2278 106.482 39.5684 106.482C39.9138 106.482 40.2474 106.351 40.5694 106.09L40.7864 106.601C40.6371 106.741 40.4458 106.851 40.2124 106.93C39.9838 107.009 39.7434 107.049 39.4914 107.049ZM43.3276 103.388C44.1723 103.388 44.5946 103.859 44.5946 104.802V107H43.8876V104.844C43.8876 104.536 43.8269 104.312 43.7056 104.172C43.5889 104.032 43.3999 103.962 43.1386 103.962C42.8399 103.962 42.5996 104.055 42.4176 104.242C42.2403 104.429 42.1516 104.678 42.1516 104.991V107H41.4516V101.848H42.1516V104.018C42.2683 103.813 42.4293 103.656 42.6346 103.549C42.8399 103.442 43.0709 103.388 43.3276 103.388Z" fill="#828282"/>
<rect x="8.5" y="65.5" width="31" height="31" rx="10.5" fill="#828282" stroke="#F0F5FB" stroke-linecap="round" stroke-linejoin="round"/>
<rect x="8.5" y="0.5" width="31" height="31" rx="10.5" fill="#828282" stroke="#F0F5FB" stroke-linecap="round" stroke-linejoin="round"/>
<rect x="8.5" y="32.5" width="31" height="32" rx="10.5" fill="#828282" stroke="#F0F5FB" stroke-linecap="round" stroke-linejoin="round"/>
<circle cx="24" cy="16" r="10" fill="#D32D1F" fill-opacity="0.3"/>
<circle cx="24" cy="49" r="9.5" fill="#F2C94C" stroke="#E0E0E0"/>
<circle cx="24" cy="82" r="10" fill="#219653" fill-opacity="0.3"/>
</svg>
