<?xml version="1.0" encoding="utf-8"?>
<!-- Generator: Adobe Illustrator 22.1.0, SVG Export Plug-In . SVG Version: 6.00 Build 0)  -->
<svg version="1.1" xmlns="http://www.w3.org/2000/svg" xmlns:xlink="http://www.w3.org/1999/xlink" x="0px" y="0px"
	 viewBox="0 0 192 192" style="enable-background:new 0 0 192 192;" xml:space="preserve">
<style type="text/css">
	.st0{fill:#F2F3F4;}
	.st1{fill:none;stroke:#CECBCB;stroke-width:0.4444;stroke-linecap:round;stroke-miterlimit:10;}
	.st2{fill:none;stroke:#CECBCB;stroke-width:0.4444;stroke-miterlimit:10;}
	.st3{fill:none;stroke:#CECBCB;stroke-width:0.2089;stroke-miterlimit:10;}
	.st4{fill:none;stroke:#CECBCB;stroke-width:0.4178;stroke-miterlimit:10;}
	.st5{fill:#CECBCB;}
	.st6{fill:none;stroke:#CECBCB;stroke-width:0.4414;stroke-linecap:round;stroke-miterlimit:10;}
	.st7{display:none;}
	.st8{fill:none;stroke:#343434;stroke-width:8;stroke-linecap:round;stroke-linejoin:round;}
</style>
<symbol  id="_x2D_-Icon_x5F_grid_x5F_192" viewBox="-96 -96 192 192">
	<g id="icons_7_">
	</g>
	<path id="XMLID_16414_" class="st0" d="M96-96H-96V96H96V-96z M80,80H-80V-80H80V80z"/>
	<line id="XMLID_16413_" class="st1" x1="-80" y1="80" x2="80" y2="-80"/>
	<line id="XMLID_16412_" class="st1" x1="-80" y1="-80" x2="80" y2="80"/>
	<rect id="XMLID_16411_" x="-80" y="-80" class="st2" width="160" height="160"/>
	<path id="XMLID_16410_" class="st1" d="M80,0c0-44.2-35.8-80-80-80c-44.2,0-80,35.8-80,80c0,44.2,35.8,80,80,80
		C44.2,80,80,44.2,80,0z"/>
	<line id="XMLID_16409_" class="st3" x1="-88" y1="-96" x2="-88" y2="96"/>
	<line id="XMLID_16408_" class="st3" x1="-80" y1="-96" x2="-80" y2="96"/>
	<line id="XMLID_16407_" class="st3" x1="-72" y1="-96" x2="-72" y2="96"/>
	<line id="XMLID_16406_" class="st3" x1="-64" y1="-96" x2="-64" y2="96"/>
	<line id="XMLID_16405_" class="st3" x1="-56" y1="-96" x2="-56" y2="96"/>
	<line id="XMLID_16404_" class="st3" x1="-48" y1="-96" x2="-48" y2="96"/>
	<line id="XMLID_16403_" class="st3" x1="-40" y1="-96" x2="-40" y2="96"/>
	<line id="XMLID_16402_" class="st3" x1="-32" y1="-96" x2="-32" y2="96"/>
	<line id="XMLID_16401_" class="st3" x1="-24" y1="-96" x2="-24" y2="96"/>
	<line id="XMLID_16400_" class="st3" x1="-16" y1="-96" x2="-16" y2="96"/>
	<line id="XMLID_16399_" class="st4" x1="0" y1="-96" x2="0" y2="96"/>
	<line id="XMLID_16398_" class="st3" x1="8" y1="-96" x2="8" y2="96"/>
	<line id="XMLID_16397_" class="st3" x1="16" y1="-96" x2="16" y2="96"/>
	<line id="XMLID_16396_" class="st3" x1="24" y1="-96" x2="24" y2="96"/>
	<line id="XMLID_16395_" class="st3" x1="32" y1="-96" x2="32" y2="96"/>
	<line id="XMLID_16394_" class="st3" x1="40" y1="-96" x2="40" y2="96"/>
	<line id="XMLID_16393_" class="st3" x1="48" y1="-96" x2="48" y2="96"/>
	<line id="XMLID_16392_" class="st3" x1="56" y1="-96" x2="56" y2="96"/>
	<line id="XMLID_16391_" class="st3" x1="64" y1="-96" x2="64" y2="96"/>
	<line id="XMLID_16390_" class="st3" x1="72" y1="-96" x2="72" y2="96"/>
	<line id="XMLID_16389_" class="st3" x1="80" y1="-96" x2="80" y2="96"/>
	<g id="XMLID_16387_">
		<path class="st5" d="M95.8,95.8V-95.8H-95.8V95.8H95.8 M96,96H-96V-96H96V96L96,96z"/>
	</g>
	<line id="XMLID_16386_" class="st3" x1="-8" y1="-96" x2="-8" y2="96"/>
	<line id="XMLID_16385_" class="st3" x1="88" y1="-96" x2="88" y2="96"/>
	<line id="XMLID_16384_" class="st3" x1="-96" y1="88" x2="96" y2="88"/>
	<line id="XMLID_16383_" class="st3" x1="-96" y1="80" x2="96" y2="80"/>
	<line id="XMLID_16382_" class="st3" x1="-96" y1="72" x2="96" y2="72"/>
	<line id="XMLID_16381_" class="st3" x1="-96" y1="64" x2="96" y2="64"/>
	<line id="XMLID_16380_" class="st3" x1="-96" y1="56" x2="96" y2="56"/>
	<line id="XMLID_16379_" class="st3" x1="-96" y1="48" x2="96" y2="48"/>
	<line id="XMLID_16378_" class="st3" x1="-96" y1="40" x2="96" y2="40"/>
	<line id="XMLID_16377_" class="st3" x1="-96" y1="32" x2="96" y2="32"/>
	<line id="XMLID_16376_" class="st3" x1="-96" y1="24" x2="96" y2="24"/>
	<line id="XMLID_16375_" class="st3" x1="-96" y1="16" x2="96" y2="16"/>
	<line id="XMLID_16374_" class="st4" x1="-96" y1="0" x2="96" y2="0"/>
	<line id="XMLID_16371_" class="st3" x1="-96" y1="-8" x2="96" y2="-8"/>
	<line id="XMLID_16367_" class="st3" x1="-96" y1="-16" x2="96" y2="-16"/>
	<line id="XMLID_16366_" class="st3" x1="-96" y1="-24" x2="96" y2="-24"/>
	<line id="XMLID_16365_" class="st3" x1="-96" y1="-32" x2="96" y2="-32"/>
	<line id="XMLID_16358_" class="st3" x1="-96" y1="-40" x2="96" y2="-40"/>
	<line id="XMLID_16356_" class="st3" x1="-96" y1="-48" x2="96" y2="-48"/>
	<line id="XMLID_16355_" class="st3" x1="-96" y1="-56" x2="96" y2="-56"/>
	<line id="XMLID_16349_" class="st3" x1="-96" y1="-64" x2="96" y2="-64"/>
	<line id="XMLID_16342_" class="st3" x1="-96" y1="-72" x2="96" y2="-72"/>
	<line id="XMLID_16294_" class="st3" x1="-96" y1="-80" x2="96" y2="-80"/>
	<line id="XMLID_16154_" class="st3" x1="-96" y1="8" x2="96" y2="8"/>
	<line id="XMLID_16152_" class="st3" x1="-96" y1="-88" x2="96" y2="-88"/>
	<path class="st1" d="M40-80h-80c-8.8,0-16,7.2-16,16V64c0,8.8,7.2,16,16,16h80c8.8,0,16-7.2,16-16V-64C56-72.8,48.8-80,40-80z"/>
	<path class="st1" d="M-80-40v80c0,8.8,7.2,16,16,16H64c8.8,0,16-7.2,16-16v-80c0-8.8-7.2-16-16-16H-64C-72.8-56-80-48.8-80-40z"/>
	<path class="st6" d="M56-72H-56c-8.8,0-16,7.2-16,16V56c0,8.8,7.2,16,16,16H56c8.8,0,16-7.2,16-16V-56C72-64.8,64.8-72,56-72z"/>
</symbol>
<g id="Master_vodafone_icon_grid" class="st7">
	
		<use xlink:href="#_x2D_-Icon_x5F_grid_x5F_192"  width="192" height="192" x="-96" y="-96" transform="matrix(1 0 0 -1 96 96)" style="display:inline;overflow:visible;"/>
</g>
<g id="ICON">
	<line id="_x35_e3fc45f-696d-412e-a0e5-e353249c8043" class="st8" x1="100" y1="76" x2="52" y2="76"/>
	<line id="_x38_30c41c6-66cd-4fd7-9274-bb95280ef094" class="st8" x1="91" y1="100" x2="52" y2="100"/>
	<line id="bf26bc7d-d938-40c0-91cf-ce4c3a9efe18" class="st8" x1="82" y1="124" x2="52" y2="124"/>
	<path class="st8" d="M124,82V52L92,20H40c-6.6,0-12,5.4-12,12v112c0,6.6,5.4,12,12,12h59"/>
	<path class="st8" d="M124,144"/>
	<path class="st8" d="M112,156"/>
	<polyline class="st8" points="92,20.2 92,52 124,52 	"/>
	<g>
		<circle class="st8" cx="124.1" cy="124" r="40.1"/>
		<line class="st8" x1="152.5" y1="152.4" x2="186" y2="185"/>
	</g>
	<path id="bf26bc7d-d938-40c0-91cf-ce4c3a9efe18_4_" class="st8" d="M80,132"/>
	<path id="bf26bc7d-d938-40c0-91cf-ce4c3a9efe18_3_" class="st8" d="M80,108"/>
</g>
</svg>
