<svg width="24" height="24" viewBox="0 0 24 24" fill="none" xmlns="http://www.w3.org/2000/svg">
<path d="M15 18V9" stroke="#828282" stroke-width="1.5" stroke-linecap="round" stroke-linejoin="round"/>
<path d="M12 18V9" stroke="#828282" stroke-width="1.5" stroke-linecap="round" stroke-linejoin="round"/>
<path d="M9 18V9" stroke="#828282" stroke-width="1.5" stroke-linecap="round" stroke-linejoin="round"/>
<path d="M4.5 5.5H19.5" stroke="#828282" stroke-width="1.5" stroke-linecap="round" stroke-linejoin="round"/>
<path d="M15 5.25V4.5C15 3.96957 14.7893 3.46086 14.4142 3.08579C14.0391 2.71071 13.5304 2.5 13 2.5H11C10.4696 2.5 9.96086 2.71071 9.58579 3.08579C9.21071 3.46086 9 3.96957 9 4.5V5.25" stroke="#828282" stroke-width="1.5" stroke-linejoin="round"/>
<path d="M18.5 5.125V20C18.5 20.3978 18.342 20.7794 18.0607 21.0607C17.7794 21.342 17.3978 21.5 17 21.5H7C6.60218 21.5 6.22064 21.342 5.93934 21.0607C5.65804 20.7794 5.5 20.3978 5.5 20V5.125" stroke="#828282" stroke-width="1.5" stroke-linejoin="round"/>
</svg>
